<?xml version="1.0" standalone="no"?>
<!DOCTYPE svg PUBLIC "-//W3C//DTD SVG 1.1//EN" "http://www.w3.org/Graphics/SVG/1.1/DTD/svg11.dtd" >
<svg>
<metadata>
Created by FontForge 20120731 at Sat Mar  4 20:03:14 2017
 By www-data
Copyright \(c\) 2015, Cadson Demak \(info@cadsondemak.com\)
</metadata>
<defs>
<font id="Kanit-Light" horiz-adv-x="0" >
  <font-face 
    font-family="Kanit Light"
    font-weight="300"
    font-stretch="normal"
    units-per-em="1000"
    panose-1="0 0 4 0 0 0 0 0 0 0"
    ascent="750"
    descent="-250"
    x-height="474"
    cap-height="644"
    bbox="-574 -339 1152 1036"
    underline-thickness="50"
    underline-position="-50"
    unicode-range="U+000D-FB02"
  />
<missing-glyph horiz-adv-x="488" 
d="M38 714h411v-714h-411v714zM89 51h309v612h-309v-612z" />
    <glyph glyph-name="fi" unicode="fi" horiz-adv-x="514" 
d="M101 529c0 95 72 161 178 161c43 0 83 -6 107 -15v-62c-20 7 -54 11 -86 11c-78 0 -117 -31 -117 -95v-55h261v-474h-82v409h-179v-409h-82v409h-71v65h71v55z" />
    <glyph glyph-name="fl" unicode="fl" horiz-adv-x="514" 
d="M101 529c0 95 72 161 178 161c43 0 83 -6 107 -15h58v-675h-82v409h-179v-409h-82v409h-71v65h71v55zM183 474h179v140c-20 6 -37 10 -62 10c-78 0 -117 -31 -117 -95v-55z" />
    <glyph glyph-name="ru_lakkhangyaothai" unicode="&#xe24;&#xe45;" horiz-adv-x="875" 
d="M609 550c137 0 196 -57 196 -192v-518h-82v509c0 89 -17 131 -129 131c-24 0 -51 -3 -78 -9c23 -32 34 -74 34 -127v-504h-82v507c0 100 -42 133 -155 133c-75 0 -144 -22 -179 -57v-21l117 -28v-62c-51 -13 -75 -39 -75 -95v-101c0 -34 15 -49 47 -49h57v-67h-94
c-58 0 -92 39 -92 96v123c0 55 23 100 81 117l-113 26v96c50 47 136 92 251 92c59 0 107 -9 144 -28c40 16 97 28 152 28z" />
    <glyph glyph-name="lu_lakkhangyaothai" unicode="&#xe26;&#xe45;" horiz-adv-x="910" 
d="M644 550c137 0 196 -57 196 -192v-518h-82v509c0 89 -17 131 -129 131c-25 0 -55 -3 -83 -10c22 -32 33 -73 33 -126v-504h-82v507c0 100 -42 133 -155 133c-75 0 -144 -22 -179 -57v-21l123 -28v-62c-50 -15 -64 -37 -64 -95v-107c0 -74 -36 -110 -103 -110h-62v67h40
c30 0 43 14 43 48v104c0 55 14 98 70 117l-119 26v96c50 47 136 92 251 92c62 0 111 -10 149 -30v2c40 16 98 28 153 28z" />
    <glyph glyph-name=".notdef" horiz-adv-x="488" 
d="M38 714h411v-714h-411v714zM89 51h309v612h-309v-612z" />
    <glyph glyph-name="A" unicode="A" horiz-adv-x="685" 
d="M203 177l-68 -177h-85l245 644h96l244 -644h-84l-68 177h-280zM342 573l-125 -331h251z" />
    <glyph glyph-name="Aacute" unicode="&#xc1;" horiz-adv-x="685" 
d="M292 688l71 168h74l-79 -168h-66zM203 177l-68 -177h-85l245 644h96l244 -644h-84l-68 177h-280zM342 573l-125 -331h251z" />
    <glyph glyph-name="Abreve" unicode="&#x102;" horiz-adv-x="685" 
d="M273 814c0 -51 26 -74 68 -74c44 0 70 23 70 74h58c0 -75 -44 -126 -128 -126c-83 0 -126 51 -126 126h58zM203 177l-68 -177h-85l245 644h96l244 -644h-84l-68 177h-280zM342 573l-125 -331h251z" />
    <glyph glyph-name="uni1EAE" unicode="&#x1eae;" horiz-adv-x="685" 
d="M303 792l62 125h65l-68 -125h-59zM342 736c57 0 95 30 95 92h52c0 -102 -67 -140 -147 -140s-147 38 -147 140h52c0 -62 38 -92 95 -92zM203 177l-68 -177h-85l245 644h96l244 -644h-84l-68 177h-280zM342 573l-125 -331h251z" />
    <glyph glyph-name="uni1EB6" unicode="&#x1eb6;" horiz-adv-x="685" 
d="M273 814c0 -51 26 -74 68 -74c44 0 70 23 70 74h58c0 -75 -44 -126 -128 -126c-83 0 -126 51 -126 126h58zM203 177l-68 -177h-85l245 644h96l244 -644h-84l-68 177h-280zM342 573l-125 -331h251zM302 -164v77h80v-77h-80z" />
    <glyph glyph-name="uni1EB0" unicode="&#x1eb0;" horiz-adv-x="685" 
d="M322 792l-68 125h65l62 -125h-59zM342 736c57 0 95 30 95 92h52c0 -102 -67 -140 -147 -140s-147 38 -147 140h52c0 -62 38 -92 95 -92zM203 177l-68 -177h-85l245 644h96l244 -644h-84l-68 177h-280zM342 573l-125 -331h251z" />
    <glyph glyph-name="uni1EB2" unicode="&#x1eb2;" horiz-adv-x="685" 
d="M443 901c0 -43 -22 -65 -79 -74v-34h-60v58c67 3 82 18 82 45s-17 39 -53 39c-22 0 -40 -5 -57 -13v41c19 7 46 12 74 12c59 0 93 -28 93 -74zM342 736c57 0 95 30 95 92h52c0 -102 -67 -140 -147 -140s-147 38 -147 140h52c0 -62 38 -92 95 -92zM203 177l-68 -177h-85
l245 644h96l244 -644h-84l-68 177h-280zM342 573l-125 -331h251z" />
    <glyph glyph-name="uni1EB4" unicode="&#x1eb4;" horiz-adv-x="685" 
d="M412 849c-48 0 -93 35 -133 35c-29 0 -56 -8 -76 -32v56c15 16 48 27 76 27c51 0 88 -35 133 -35c31 0 54 10 71 33v-57c-12 -16 -40 -27 -71 -27zM342 736c57 0 95 30 95 92h52c0 -102 -67 -140 -147 -140s-147 38 -147 140h52c0 -62 38 -92 95 -92zM203 177l-68 -177
h-85l245 644h96l244 -644h-84l-68 177h-280zM342 573l-125 -331h251z" />
    <glyph glyph-name="uni01CD" unicode="&#x1cd;" horiz-adv-x="685" 
d="M375 688h-66l-115 148h71l77 -102l77 102h71zM203 177l-68 -177h-85l245 644h96l244 -644h-84l-68 177h-280zM342 573l-125 -331h251z" />
    <glyph glyph-name="Acircumflex" unicode="&#xc2;" horiz-adv-x="685" 
d="M490 688h-71l-77 102l-77 -102h-71l115 148h66zM203 177l-68 -177h-85l245 644h96l244 -644h-84l-68 177h-280zM342 573l-125 -331h251z" />
    <glyph glyph-name="uni1EA4" unicode="&#x1ea4;" horiz-adv-x="685" 
d="M417 797l62 125h65l-68 -125h-59zM481 688h-69l-75 83l-74 -83h-70l111 118h66zM203 177l-68 -177h-85l245 644h96l244 -644h-84l-68 177h-280zM342 573l-125 -331h251z" />
    <glyph glyph-name="uni1EAC" unicode="&#x1eac;" horiz-adv-x="685" 
d="M490 688h-71l-77 102l-77 -102h-71l115 148h66zM203 177l-68 -177h-85l245 644h96l244 -644h-84l-68 177h-280zM342 573l-125 -331h251zM302 -164v77h80v-77h-80z" />
    <glyph glyph-name="uni1EA6" unicode="&#x1ea6;" horiz-adv-x="685" 
d="M200 797l-68 125h65l62 -125h-59zM306 806h66l111 -118h-70l-74 83l-75 -83h-69zM203 177l-68 -177h-85l245 644h96l244 -644h-84l-68 177h-280zM342 573l-125 -331h251z" />
    <glyph glyph-name="uni1EA8" unicode="&#x1ea8;" horiz-adv-x="685" 
d="M569 885c0 -43 -24 -67 -79 -74v-35h-61v63c67 3 80 16 80 42c0 25 -16 36 -50 36c-23 0 -41 -5 -57 -12v43c18 7 41 12 71 12c60 0 96 -28 96 -75zM308 806h66l111 -118h-69l-75 83l-74 -83h-70zM203 177l-68 -177h-85l245 644h96l244 -644h-84l-68 177h-280zM342 573
l-125 -331h251z" />
    <glyph glyph-name="uni1EAA" unicode="&#x1eaa;" horiz-adv-x="685" 
d="M413 808c-48 0 -93 35 -133 35c-29 0 -56 -8 -76 -32v56c15 16 48 27 76 27c51 0 88 -35 133 -35c31 0 54 10 71 33v-57c-12 -16 -40 -27 -71 -27zM309 806h66l111 -118h-69l-75 83l-74 -83h-70zM203 177l-68 -177h-85l245 644h96l244 -644h-84l-68 177h-280zM342 573
l-125 -331h251z" />
    <glyph glyph-name="Adieresis" unicode="&#xc4;" horiz-adv-x="685" 
d="M215 710v75h78v-75h-78zM391 710v75h78v-75h-78zM203 177l-68 -177h-85l245 644h96l244 -644h-84l-68 177h-280zM342 573l-125 -331h251z" />
    <glyph glyph-name="uni1EA0" unicode="&#x1ea0;" horiz-adv-x="685" 
d="M203 177l-68 -177h-85l245 644h96l244 -644h-84l-68 177h-280zM342 573l-125 -331h251zM302 -164v77h80v-77h-80z" />
    <glyph glyph-name="Agrave" unicode="&#xc0;" horiz-adv-x="685" 
d="M296 688l-79 168h74l71 -168h-66zM203 177l-68 -177h-85l245 644h96l244 -644h-84l-68 177h-280zM342 573l-125 -331h251z" />
    <glyph glyph-name="uni1EA2" unicode="&#x1ea2;" horiz-adv-x="685" 
d="M463 829c0 -54 -22 -84 -89 -93v-48h-66v83c78 4 93 17 93 52c0 33 -25 45 -78 45c-21 0 -49 -5 -66 -12v51c20 8 56 13 85 13c79 0 121 -34 121 -91zM203 177l-68 -177h-85l245 644h96l244 -644h-84l-68 177h-280zM342 573l-125 -331h251z" />
    <glyph glyph-name="Amacron" unicode="&#x100;" horiz-adv-x="685" 
d="M486 771v-59h-288v59h288zM203 177l-68 -177h-85l245 644h96l244 -644h-84l-68 177h-280zM342 573l-125 -331h251z" />
    <glyph glyph-name="Aogonek" unicode="&#x104;" horiz-adv-x="685" 
d="M593 -163c17 0 38 4 50 11v-56c-16 -8 -44 -12 -68 -12c-54 0 -99 25 -99 88c0 52 31 102 75 132l-68 177h-280l-68 -177h-85l245 644h96l244 -644h-20c-47 -35 -72 -77 -72 -120c0 -34 17 -43 50 -43zM217 242h251l-126 331z" />
    <glyph glyph-name="Aring" unicode="&#xc5;" horiz-adv-x="685" 
d="M399 623l236 -623h-84l-68 177h-280l-68 -177h-85l237 622c-34 18 -55 53 -55 94c0 60 45 108 109 108c66 0 111 -48 111 -108c0 -40 -20 -74 -53 -93zM341 777c-35 0 -61 -27 -61 -61s26 -61 61 -61c37 0 62 27 62 61s-25 61 -62 61zM217 242h251l-126 331z" />
    <glyph glyph-name="Aringacute" unicode="&#x1fa;" horiz-adv-x="685" 
d="M436 1020l-79 -168h-66l71 168h74zM399 623l236 -623h-84l-68 177h-280l-68 -177h-85l237 622c-34 18 -55 53 -55 94c0 60 45 108 109 108c66 0 111 -48 111 -108c0 -40 -20 -74 -53 -93zM341 777c-35 0 -61 -27 -61 -61s26 -61 61 -61c37 0 62 27 62 61s-25 61 -62 61z
M217 242h251l-126 331z" />
    <glyph glyph-name="Atilde" unicode="&#xc3;" horiz-adv-x="685" 
d="M417 703c-52 0 -101 38 -144 38c-32 0 -61 -9 -83 -35v63c16 18 52 30 83 30c55 0 95 -38 144 -38c34 0 59 11 77 36v-64c-13 -18 -43 -30 -77 -30zM203 177l-68 -177h-85l245 644h96l244 -644h-84l-68 177h-280zM342 573l-125 -331h251z" />
    <glyph glyph-name="AE" unicode="&#xc6;" horiz-adv-x="840" 
d="M409 0v178h-203l-68 -178h-88l245 644h495v-65h-299v-225h263v-64h-263v-226h299v-64h-381zM409 242v337h-51l-127 -337h178z" />
    <glyph glyph-name="AEacute" unicode="&#x1fc;" horiz-adv-x="840" 
d="M432 688l71 168h74l-79 -168h-66zM409 0v178h-203l-68 -178h-88l245 644h495v-65h-299v-225h263v-64h-263v-226h299v-64h-381zM409 242v337h-51l-127 -337h178z" />
    <glyph glyph-name="B" unicode="B" horiz-adv-x="627" 
d="M577 184c0 -125 -66 -184 -193 -184h-314v644h298c127 0 184 -62 184 -170c0 -71 -31 -118 -81 -142c65 -16 106 -59 106 -148zM475 468c0 74 -27 113 -127 113h-196v-219h211c81 0 112 43 112 106zM370 62c86 0 125 34 125 125c0 74 -33 113 -138 113h-205v-238h218z
" />
    <glyph glyph-name="C" unicode="C" horiz-adv-x="595" 
d="M367 60c60 0 125 9 178 29v-73c-52 -16 -112 -26 -186 -26c-208 0 -309 126 -309 318c0 210 91 346 308 346c74 0 134 -11 187 -30v-72c-53 20 -114 32 -180 32c-174 0 -233 -104 -233 -276c0 -159 72 -248 235 -248z" />
    <glyph glyph-name="Cacute" unicode="&#x106;" horiz-adv-x="595" 
d="M303 688l71 168h74l-79 -168h-66zM367 60c60 0 125 9 178 29v-73c-52 -16 -112 -26 -186 -26c-208 0 -309 126 -309 318c0 210 91 346 308 346c74 0 134 -11 187 -30v-72c-53 20 -114 32 -180 32c-174 0 -233 -104 -233 -276c0 -159 72 -248 235 -248z" />
    <glyph glyph-name="Ccaron" unicode="&#x10c;" horiz-adv-x="595" 
d="M390 688h-66l-115 148h71l77 -102l77 102h71zM367 60c60 0 125 9 178 29v-73c-52 -16 -112 -26 -186 -26c-208 0 -309 126 -309 318c0 210 91 346 308 346c74 0 134 -11 187 -30v-72c-53 20 -114 32 -180 32c-174 0 -233 -104 -233 -276c0 -159 72 -248 235 -248z" />
    <glyph glyph-name="Ccedilla" unicode="&#xc7;" horiz-adv-x="595" 
d="M365 584c-174 0 -233 -104 -233 -276c0 -159 72 -248 235 -248c60 0 125 9 178 29v-73c-49 -15 -106 -25 -174 -26l-13 -38c73 0 111 -33 111 -90c0 -65 -44 -102 -143 -102c-22 0 -55 4 -70 8v50c18 -5 41 -8 63 -8c62 0 90 12 90 53c0 39 -28 46 -85 46h-37l26 83
c-177 18 -263 139 -263 316c0 210 91 346 308 346c74 0 134 -11 187 -30v-72c-53 20 -114 32 -180 32z" />
    <glyph glyph-name="Ccircumflex" unicode="&#x108;" horiz-adv-x="595" 
d="M479 688h-71l-77 102l-77 -102h-71l115 148h66zM367 60c60 0 125 9 178 29v-73c-52 -16 -112 -26 -186 -26c-208 0 -309 126 -309 318c0 210 91 346 308 346c74 0 134 -11 187 -30v-72c-53 20 -114 32 -180 32c-174 0 -233 -104 -233 -276c0 -159 72 -248 235 -248z" />
    <glyph glyph-name="Cdotaccent" unicode="&#x10a;" horiz-adv-x="595" 
d="M312 710v77h80v-77h-80zM367 60c60 0 125 9 178 29v-73c-52 -16 -112 -26 -186 -26c-208 0 -309 126 -309 318c0 210 91 346 308 346c74 0 134 -11 187 -30v-72c-53 20 -114 32 -180 32c-174 0 -233 -104 -233 -276c0 -159 72 -248 235 -248z" />
    <glyph glyph-name="D" unicode="D" horiz-adv-x="642" 
d="M592 318c0 -220 -80 -318 -270 -318h-252v644h252c187 0 270 -94 270 -326zM510 318c0 204 -57 261 -203 261h-155v-515h155c136 0 203 47 203 254z" />
    <glyph glyph-name="Eth" unicode="&#xd0;" horiz-adv-x="664" 
d="M344 644c187 0 270 -94 270 -326c0 -220 -80 -318 -270 -318h-252v284h-72v65h72v295h252zM329 64c136 0 203 47 203 254c0 204 -57 261 -203 261h-155v-230h181v-65h-181v-220h155z" />
    <glyph glyph-name="Dcaron" unicode="&#x10e;" horiz-adv-x="642" 
d="M331 688h-66l-115 148h71l77 -102l77 102h71zM592 318c0 -220 -80 -318 -270 -318h-252v644h252c187 0 270 -94 270 -326zM510 318c0 204 -57 261 -203 261h-155v-515h155c136 0 203 47 203 254z" />
    <glyph glyph-name="Dcroat" unicode="&#x110;" horiz-adv-x="664" 
d="M344 644c187 0 270 -94 270 -326c0 -220 -80 -318 -270 -318h-252v284h-72v65h72v295h252zM329 64c136 0 203 47 203 254c0 204 -57 261 -203 261h-155v-230h181v-65h-181v-220h155z" />
    <glyph glyph-name="uni1E0C" unicode="&#x1e0c;" horiz-adv-x="642" 
d="M592 318c0 -220 -80 -318 -270 -318h-252v644h252c187 0 270 -94 270 -326zM510 318c0 204 -57 261 -203 261h-155v-515h155c136 0 203 47 203 254zM277 -164v77h80v-77h-80z" />
    <glyph glyph-name="uni1E0E" unicode="&#x1e0e;" horiz-adv-x="642" 
d="M592 318c0 -220 -80 -318 -270 -318h-252v644h252c187 0 270 -94 270 -326zM510 318c0 204 -57 261 -203 261h-155v-515h155c136 0 203 47 203 254zM428 -85v-59h-288v59h288z" />
    <glyph glyph-name="E" unicode="E" horiz-adv-x="555" 
d="M70 0v644h435v-65h-353v-225h317v-64h-317v-226h353v-64h-435z" />
    <glyph glyph-name="Eacute" unicode="&#xc9;" horiz-adv-x="555" 
d="M239 688l71 168h74l-79 -168h-66zM70 0v644h435v-65h-353v-225h317v-64h-317v-226h353v-64h-435z" />
    <glyph glyph-name="Ebreve" unicode="&#x114;" horiz-adv-x="555" 
d="M217 814c0 -51 26 -74 68 -74c44 0 70 23 70 74h58c0 -75 -44 -126 -128 -126c-83 0 -126 51 -126 126h58zM70 0v644h435v-65h-353v-225h317v-64h-317v-226h353v-64h-435z" />
    <glyph glyph-name="Ecaron" unicode="&#x11a;" horiz-adv-x="555" 
d="M320 688h-66l-115 148h71l77 -102l77 102h71zM70 0v644h435v-65h-353v-225h317v-64h-317v-226h353v-64h-435z" />
    <glyph glyph-name="Ecircumflex" unicode="&#xca;" horiz-adv-x="555" 
d="M422 688h-71l-77 102l-77 -102h-71l115 148h66zM70 0v644h435v-65h-353v-225h317v-64h-317v-226h353v-64h-435z" />
    <glyph glyph-name="uni1EBE" unicode="&#x1ebe;" horiz-adv-x="555" 
d="M355 796l62 125h65l-68 -125h-59zM419 687h-69l-75 83l-74 -83h-70l111 118h66zM70 0v644h435v-65h-353v-225h317v-64h-317v-226h353v-64h-435z" />
    <glyph glyph-name="uni1EC6" unicode="&#x1ec6;" horiz-adv-x="555" 
d="M418 688h-71l-77 102l-77 -102h-71l115 148h66zM70 0v644h435v-65h-353v-225h317v-64h-317v-226h353v-64h-435zM230 -164v77h80v-77h-80z" />
    <glyph glyph-name="uni1EC0" unicode="&#x1ec0;" horiz-adv-x="555" 
d="M154 796l-68 125h65l62 -125h-59zM260 805h66l111 -118h-70l-74 83l-75 -83h-69zM70 0v644h435v-65h-353v-225h317v-64h-317v-226h353v-64h-435z" />
    <glyph glyph-name="uni1EC2" unicode="&#x1ec2;" horiz-adv-x="555" 
d="M508 884c0 -43 -24 -67 -79 -74v-35h-61v63c67 3 80 16 80 42c0 25 -16 36 -50 36c-23 0 -41 -5 -57 -12v43c18 7 41 12 71 12c60 0 96 -28 96 -75zM247 805h66l111 -118h-69l-75 83l-74 -83h-70zM70 0v644h435v-65h-353v-225h317v-64h-317v-226h353v-64h-435z" />
    <glyph glyph-name="uni1EC4" unicode="&#x1ec4;" horiz-adv-x="555" 
d="M352 808c-48 0 -93 35 -133 35c-29 0 -56 -8 -76 -32v56c15 16 48 27 76 27c51 0 88 -35 133 -35c31 0 54 10 71 33v-57c-12 -16 -40 -27 -71 -27zM248 806h66l111 -118h-69l-75 83l-74 -83h-70zM70 0v644h435v-65h-353v-225h317v-64h-317v-226h353v-64h-435z" />
    <glyph glyph-name="Edieresis" unicode="&#xcb;" horiz-adv-x="555" 
d="M153 711v75h78v-75h-78zM329 711v75h78v-75h-78zM70 0v644h435v-65h-353v-225h317v-64h-317v-226h353v-64h-435z" />
    <glyph glyph-name="Edotaccent" unicode="&#x116;" horiz-adv-x="555" 
d="M239 710v77h80v-77h-80zM70 0v644h435v-65h-353v-225h317v-64h-317v-226h353v-64h-435z" />
    <glyph glyph-name="uni1EB8" unicode="&#x1eb8;" horiz-adv-x="555" 
d="M70 0v644h435v-65h-353v-225h317v-64h-317v-226h353v-64h-435zM236 -164v77h80v-77h-80z" />
    <glyph glyph-name="Egrave" unicode="&#xc8;" horiz-adv-x="555" 
d="M257 688l-79 168h74l71 -168h-66zM70 0v644h435v-65h-353v-225h317v-64h-317v-226h353v-64h-435z" />
    <glyph glyph-name="uni1EBA" unicode="&#x1eba;" horiz-adv-x="555" 
d="M395 829c0 -54 -22 -84 -89 -93v-48h-66v83c78 4 93 17 93 52c0 33 -25 45 -78 45c-21 0 -49 -5 -66 -12v51c20 8 56 13 85 13c79 0 121 -34 121 -91zM70 0v644h435v-65h-353v-225h317v-64h-317v-226h353v-64h-435z" />
    <glyph glyph-name="Emacron" unicode="&#x112;" horiz-adv-x="555" 
d="M418 779v-59h-288v59h288zM70 0v644h435v-65h-353v-225h317v-64h-317v-226h353v-64h-435z" />
    <glyph glyph-name="Eogonek" unicode="&#x118;" horiz-adv-x="555" 
d="M505 579h-353v-225h317v-64h-317v-226h353v-64h-37c-47 -35 -72 -77 -72 -120c0 -34 17 -43 50 -43c17 0 38 4 50 11v-56c-16 -8 -44 -12 -68 -12c-54 0 -99 25 -99 88c0 52 31 102 75 132h-334v644h435v-65z" />
    <glyph glyph-name="uni1EBC" unicode="&#x1ebc;" horiz-adv-x="555" 
d="M352 708c-52 0 -101 38 -144 38c-32 0 -61 -9 -83 -35v63c16 18 52 30 83 30c55 0 95 -38 144 -38c34 0 59 11 77 36v-64c-13 -18 -43 -30 -77 -30zM70 0v644h435v-65h-353v-225h317v-64h-317v-226h353v-64h-435z" />
    <glyph glyph-name="F" unicode="F" horiz-adv-x="522" 
d="M70 0v644h422v-65h-340v-225h303v-64h-303v-290h-82z" />
    <glyph glyph-name="G" unicode="G" horiz-adv-x="639" 
d="M364 60c57 0 113 10 154 26v205h-172v56h243v-306c-39 -25 -110 -51 -230 -51c-208 0 -309 126 -309 318c0 210 91 346 308 346c74 0 134 -11 187 -30v-72c-53 20 -114 32 -180 32c-174 0 -233 -104 -233 -276c0 -159 69 -248 232 -248z" />
    <glyph glyph-name="Gbreve" unicode="&#x11e;" horiz-adv-x="639" 
d="M281 814c0 -51 26 -74 68 -74c44 0 70 23 70 74h58c0 -75 -44 -126 -128 -126c-83 0 -126 51 -126 126h58zM364 60c57 0 113 10 154 26v205h-172v56h243v-306c-39 -25 -110 -51 -230 -51c-208 0 -309 126 -309 318c0 210 91 346 308 346c74 0 134 -11 187 -30v-72
c-53 20 -114 32 -180 32c-174 0 -233 -104 -233 -276c0 -159 69 -248 232 -248z" />
    <glyph glyph-name="Gcaron" unicode="&#x1e6;" horiz-adv-x="639" 
d="M383 687h-66l-115 148h71l77 -102l77 102h71zM364 60c57 0 113 10 154 26v205h-172v56h243v-306c-39 -25 -110 -51 -230 -51c-208 0 -309 126 -309 318c0 210 91 346 308 346c74 0 134 -11 187 -30v-72c-53 20 -114 32 -180 32c-174 0 -233 -104 -233 -276
c0 -159 69 -248 232 -248z" />
    <glyph glyph-name="Gcircumflex" unicode="&#x11c;" horiz-adv-x="639" 
d="M504 688h-71l-77 102l-77 -102h-71l115 148h66zM364 60c57 0 113 10 154 26v205h-172v56h243v-306c-39 -25 -110 -51 -230 -51c-208 0 -309 126 -309 318c0 210 91 346 308 346c74 0 134 -11 187 -30v-72c-53 20 -114 32 -180 32c-174 0 -233 -104 -233 -276
c0 -159 69 -248 232 -248z" />
    <glyph glyph-name="Gcommaaccent" unicode="&#x122;" horiz-adv-x="639" 
d="M364 60c57 0 113 10 154 26v205h-172v56h243v-306c-39 -25 -110 -51 -230 -51c-208 0 -309 126 -309 318c0 210 91 346 308 346c74 0 134 -11 187 -30v-72c-53 20 -114 32 -180 32c-174 0 -233 -104 -233 -276c0 -159 69 -248 232 -248zM306 -224l28 177h74l-42 -177h-60
z" />
    <glyph glyph-name="Gdotaccent" unicode="&#x120;" horiz-adv-x="639" 
d="M312 710v77h80v-77h-80zM364 60c57 0 113 10 154 26v205h-172v56h243v-306c-39 -25 -110 -51 -230 -51c-208 0 -309 126 -309 318c0 210 91 346 308 346c74 0 134 -11 187 -30v-72c-53 20 -114 32 -180 32c-174 0 -233 -104 -233 -276c0 -159 69 -248 232 -248z" />
    <glyph glyph-name="uni1E20" unicode="&#x1e20;" horiz-adv-x="639" 
d="M496 776v-59h-288v59h288zM364 60c57 0 113 10 154 26v205h-172v56h243v-306c-39 -25 -110 -51 -230 -51c-208 0 -309 126 -309 318c0 210 91 346 308 346c74 0 134 -11 187 -30v-72c-53 20 -114 32 -180 32c-174 0 -233 -104 -233 -276c0 -159 69 -248 232 -248z" />
    <glyph glyph-name="H" unicode="H" horiz-adv-x="644" 
d="M492 0v290h-340v-290h-82v644h82v-290h340v290h82v-644h-82z" />
    <glyph glyph-name="Hbar" unicode="&#x126;" horiz-adv-x="644" 
d="M634 529v-65h-60v-464h-82v290h-340v-290h-82v464h-60v65h60v115h82v-115h340v115h82v-115h60zM492 354v110h-340v-110h340z" />
    <glyph glyph-name="uni1E2A" unicode="&#x1e2a;" horiz-adv-x="644" 
d="M492 0v290h-340v-290h-82v644h82v-290h340v290h82v-644h-82zM253 -70c0 -51 26 -74 68 -74c44 0 70 23 70 74h58c0 -75 -44 -126 -128 -126c-83 0 -126 51 -126 126h58z" />
    <glyph glyph-name="Hcircumflex" unicode="&#x124;" horiz-adv-x="644" 
d="M470 688h-71l-77 102l-77 -102h-71l115 148h66zM492 0v290h-340v-290h-82v644h82v-290h340v290h82v-644h-82z" />
    <glyph glyph-name="uni1E24" unicode="&#x1e24;" horiz-adv-x="644" 
d="M492 0v290h-340v-290h-82v644h82v-290h340v290h82v-644h-82zM283 -164v77h80v-77h-80z" />
    <glyph glyph-name="I" unicode="I" horiz-adv-x="222" 
d="M70 0v644h82v-644h-82z" />
    <glyph glyph-name="IJ" unicode="&#x132;" horiz-adv-x="628" 
d="M70 0v644h82v-644h-82zM563 177c0 -118 -64 -187 -197 -187c-54 0 -100 9 -135 23v70c32 -14 81 -24 125 -24c94 0 125 38 125 124v461h82v-467z" />
    <glyph glyph-name="Iacute" unicode="&#xcd;" horiz-adv-x="222" 
d="M70 688l71 168h74l-79 -168h-66zM70 0v644h82v-644h-82z" />
    <glyph glyph-name="Ibreve" unicode="&#x12c;" horiz-adv-x="222" 
d="M42 821c0 -51 26 -74 68 -74c44 0 70 23 70 74h58c0 -75 -44 -126 -128 -126c-83 0 -126 51 -126 126h58zM70 0v644h82v-644h-82z" />
    <glyph glyph-name="uni01CF" unicode="&#x1cf;" horiz-adv-x="222" 
d="M145 688h-66l-115 148h71l77 -102l77 102h71zM70 0v644h82v-644h-82z" />
    <glyph glyph-name="Icircumflex" unicode="&#xce;" horiz-adv-x="222" 
d="M259 688h-71l-77 102l-77 -102h-71l115 148h66zM70 0v644h82v-644h-82z" />
    <glyph glyph-name="Idieresis" unicode="&#xcf;" horiz-adv-x="222" 
d="M-16 713v75h78v-75h-78zM160 713v75h78v-75h-78zM70 0v644h82v-644h-82z" />
    <glyph glyph-name="Idotaccent" unicode="&#x130;" horiz-adv-x="222" 
d="M71 712v77h80v-77h-80zM70 0v644h82v-644h-82z" />
    <glyph glyph-name="uni1ECA" unicode="&#x1eca;" horiz-adv-x="222" 
d="M70 0v644h82v-644h-82zM71 -164v77h80v-77h-80z" />
    <glyph glyph-name="Igrave" unicode="&#xcc;" horiz-adv-x="222" 
d="M80 688l-79 168h74l71 -168h-66zM70 0v644h82v-644h-82z" />
    <glyph glyph-name="uni1EC8" unicode="&#x1ec8;" horiz-adv-x="222" 
d="M232 829c0 -54 -22 -84 -89 -93v-48h-66v83c78 4 93 17 93 52c0 33 -25 45 -78 45c-21 0 -49 -5 -66 -12v51c20 8 56 13 85 13c79 0 121 -34 121 -91zM70 0v644h82v-644h-82z" />
    <glyph glyph-name="Imacron" unicode="&#x12a;" horiz-adv-x="222" 
d="M255 779v-59h-288v59h288zM70 0v644h82v-644h-82z" />
    <glyph glyph-name="Iogonek" unicode="&#x12e;" horiz-adv-x="222" 
d="M124 -163c17 0 38 4 50 11v-56c-16 -8 -44 -12 -68 -12c-54 0 -99 25 -99 88c0 52 31 102 75 132h-12v644h82v-644h-6c-47 -35 -72 -77 -72 -120c0 -34 17 -43 50 -43z" />
    <glyph glyph-name="Itilde" unicode="&#x128;" horiz-adv-x="222" 
d="M186 693c-52 0 -101 38 -144 38c-32 0 -61 -9 -83 -35v63c16 18 52 30 83 30c55 0 95 -38 144 -38c34 0 59 11 77 36v-64c-13 -18 -43 -30 -77 -30zM70 0v644h82v-644h-82z" />
    <glyph glyph-name="J" unicode="J" horiz-adv-x="427" 
d="M362 177c0 -118 -64 -187 -197 -187c-54 0 -100 9 -135 23v70c32 -14 81 -24 125 -24c94 0 125 38 125 124v461h82v-467z" />
    <glyph glyph-name="Jcircumflex" unicode="&#x134;" horiz-adv-x="427" 
d="M467 688h-71l-77 102l-77 -102h-71l115 148h66zM362 177c0 -118 -64 -187 -197 -187c-54 0 -100 9 -135 23v70c32 -14 81 -24 125 -24c94 0 125 38 125 124v461h82v-467z" />
    <glyph glyph-name="K" unicode="K" horiz-adv-x="607" 
d="M309 386l248 -386h-88l-212 333l-105 -111v-222h-82v644h82v-319l301 319h96z" />
    <glyph glyph-name="Kcommaaccent" unicode="&#x136;" horiz-adv-x="607" 
d="M309 386l248 -386h-88l-212 333l-105 -111v-222h-82v644h82v-319l301 319h96zM247 -214l28 177h74l-42 -177h-60z" />
    <glyph glyph-name="L" unicode="L" horiz-adv-x="525" 
d="M152 64h343v-64h-425v644h82v-580z" />
    <glyph glyph-name="Lacute" unicode="&#x139;" horiz-adv-x="525" 
d="M70 688l71 168h74l-79 -168h-66zM152 64h343v-64h-425v644h82v-580z" />
    <glyph glyph-name="Lcaron" unicode="&#x13d;" horiz-adv-x="525" 
d="M301 568l28 177h74l-42 -177h-60zM152 64h343v-64h-425v644h82v-580z" />
    <glyph glyph-name="Lcommaaccent" unicode="&#x13b;" horiz-adv-x="525" 
d="M152 64h343v-64h-425v644h82v-580zM221 -214l28 177h74l-42 -177h-60z" />
    <glyph glyph-name="Ldot" unicode="&#x13f;" horiz-adv-x="525" 
d="M152 64h343v-64h-425v644h82v-580zM324 259v77h80v-77h-80z" />
    <glyph glyph-name="uni1E36" unicode="&#x1e36;" horiz-adv-x="525" 
d="M152 64h343v-64h-425v644h82v-580zM235 -164v77h80v-77h-80z" />
    <glyph glyph-name="uni1E38" unicode="&#x1e38;" horiz-adv-x="525" 
d="M258 776v-59h-288v59h288zM152 64h343v-64h-425v644h82v-580zM235 -164v77h80v-77h-80z" />
    <glyph glyph-name="uni1E3A" unicode="&#x1e3a;" horiz-adv-x="525" 
d="M152 64h343v-64h-425v644h82v-580zM411 -73v-59h-288v59h288z" />
    <glyph glyph-name="Lslash" unicode="&#x141;" horiz-adv-x="525" 
d="M152 64h343v-64h-425v278l-100 -44v71l100 44v295h82v-259l134 59v-71l-134 -59v-250z" />
    <glyph glyph-name="M" unicode="M" horiz-adv-x="752" 
d="M349 112l-198 404v-516h-81v644h88l218 -447l218 447h88v-644h-81v516l-197 -404h-55z" />
    <glyph glyph-name="uni1E42" unicode="&#x1e42;" horiz-adv-x="752" 
d="M349 112l-198 404v-516h-81v644h88l218 -447l218 447h88v-644h-81v516l-197 -404h-55zM336 -164v77h80v-77h-80z" />
    <glyph glyph-name="N" unicode="N" horiz-adv-x="663" 
d="M152 517v-517h-82v644h74l367 -518v518h82v-644h-75z" />
    <glyph glyph-name="Nacute" unicode="&#x143;" horiz-adv-x="663" 
d="M296 688l71 168h74l-79 -168h-66zM152 517v-517h-82v644h74l367 -518v518h82v-644h-75z" />
    <glyph glyph-name="Ncaron" unicode="&#x147;" horiz-adv-x="663" 
d="M379 688h-66l-115 148h71l77 -102l77 102h71zM152 517v-517h-82v644h74l367 -518v518h82v-644h-75z" />
    <glyph glyph-name="Ncommaaccent" unicode="&#x145;" horiz-adv-x="663" 
d="M152 517v-517h-82v644h74l367 -518v518h82v-644h-75zM279 -214l28 177h74l-42 -177h-60z" />
    <glyph glyph-name="uni1E44" unicode="&#x1e44;" horiz-adv-x="663" 
d="M305 710v77h80v-77h-80zM152 517v-517h-82v644h74l367 -518v518h82v-644h-75z" />
    <glyph glyph-name="uni1E46" unicode="&#x1e46;" horiz-adv-x="663" 
d="M152 517v-517h-82v644h74l367 -518v518h82v-644h-75zM291 -164v77h80v-77h-80z" />
    <glyph glyph-name="Eng" unicode="&#x14a;" horiz-adv-x="663" 
d="M593 644v-738c0 -86 -51 -140 -145 -140c-33 0 -64 5 -89 14v65c22 -7 44 -10 61 -10c72 0 91 22 91 78v97l-359 507v-517h-82v644h74l367 -518v518h82z" />
    <glyph glyph-name="uni1E48" unicode="&#x1e48;" horiz-adv-x="663" 
d="M152 517v-517h-82v644h74l367 -518v518h82v-644h-75zM481 -71v-59h-288v59h288z" />
    <glyph glyph-name="Ntilde" unicode="&#xd1;" horiz-adv-x="663" 
d="M404 708c-52 0 -101 38 -144 38c-32 0 -61 -9 -83 -35v63c16 18 52 30 83 30c55 0 95 -38 144 -38c34 0 59 11 77 36v-64c-13 -18 -43 -30 -77 -30zM152 517v-517h-82v644h74l367 -518v518h82v-644h-75z" />
    <glyph glyph-name="O" unicode="O" horiz-adv-x="694" 
d="M644 322c0 -231 -95 -332 -297 -332c-201 0 -297 101 -297 332s96 332 297 332c202 0 297 -101 297 -332zM562 322c0 194 -69 262 -215 262s-215 -68 -215 -262s69 -262 215 -262s215 68 215 262z" />
    <glyph glyph-name="Oacute" unicode="&#xd3;" horiz-adv-x="694" 
d="M312 688l71 168h74l-79 -168h-66zM644 322c0 -231 -95 -332 -297 -332c-201 0 -297 101 -297 332s96 332 297 332c202 0 297 -101 297 -332zM562 322c0 194 -69 262 -215 262s-215 -68 -215 -262s69 -262 215 -262s215 68 215 262z" />
    <glyph glyph-name="Obreve" unicode="&#x14e;" horiz-adv-x="694" 
d="M278 814c0 -51 26 -74 68 -74c44 0 70 23 70 74h58c0 -75 -44 -126 -128 -126c-83 0 -126 51 -126 126h58zM644 322c0 -231 -95 -332 -297 -332c-201 0 -297 101 -297 332s96 332 297 332c202 0 297 -101 297 -332zM562 322c0 194 -69 262 -215 262s-215 -68 -215 -262
s69 -262 215 -262s215 68 215 262z" />
    <glyph glyph-name="uni01D1" unicode="&#x1d1;" horiz-adv-x="694" 
d="M380 688h-66l-115 148h71l77 -102l77 102h71zM644 322c0 -231 -95 -332 -297 -332c-201 0 -297 101 -297 332s96 332 297 332c202 0 297 -101 297 -332zM562 322c0 194 -69 262 -215 262s-215 -68 -215 -262s69 -262 215 -262s215 68 215 262z" />
    <glyph glyph-name="Ocircumflex" unicode="&#xd4;" horiz-adv-x="694" 
d="M495 688h-71l-77 102l-77 -102h-71l115 148h66zM644 322c0 -231 -95 -332 -297 -332c-201 0 -297 101 -297 332s96 332 297 332c202 0 297 -101 297 -332zM562 322c0 194 -69 262 -215 262s-215 -68 -215 -262s69 -262 215 -262s215 68 215 262z" />
    <glyph glyph-name="uni1ED0" unicode="&#x1ed0;" horiz-adv-x="694" 
d="M431 797l62 125h65l-68 -125h-59zM495 688h-69l-75 83l-74 -83h-70l111 118h66zM644 322c0 -231 -95 -332 -297 -332c-201 0 -297 101 -297 332s96 332 297 332c202 0 297 -101 297 -332zM562 322c0 194 -69 262 -215 262s-215 -68 -215 -262s69 -262 215 -262
s215 68 215 262z" />
    <glyph glyph-name="uni1ED8" unicode="&#x1ed8;" horiz-adv-x="694" 
d="M495 688h-71l-77 102l-77 -102h-71l115 148h66zM644 322c0 -231 -95 -332 -297 -332c-201 0 -297 101 -297 332s96 332 297 332c202 0 297 -101 297 -332zM562 322c0 194 -69 262 -215 262s-215 -68 -215 -262s69 -262 215 -262s215 68 215 262zM307 -164v77h80v-77h-80z
" />
    <glyph glyph-name="uni1ED2" unicode="&#x1ed2;" horiz-adv-x="694" 
d="M196 797l-68 125h65l62 -125h-59zM302 806h66l111 -118h-70l-74 83l-75 -83h-69zM644 322c0 -231 -95 -332 -297 -332c-201 0 -297 101 -297 332s96 332 297 332c202 0 297 -101 297 -332zM562 322c0 194 -69 262 -215 262s-215 -68 -215 -262s69 -262 215 -262
s215 68 215 262z" />
    <glyph glyph-name="uni1ED4" unicode="&#x1ed4;" horiz-adv-x="694" 
d="M574 885c0 -43 -24 -67 -79 -74v-35h-61v63c67 3 80 16 80 42c0 25 -16 36 -50 36c-23 0 -41 -5 -57 -12v43c18 7 41 12 71 12c60 0 96 -28 96 -75zM313 806h66l111 -118h-69l-75 83l-74 -83h-70zM644 322c0 -231 -95 -332 -297 -332c-201 0 -297 101 -297 332
s96 332 297 332c202 0 297 -101 297 -332zM562 322c0 194 -69 262 -215 262s-215 -68 -215 -262s69 -262 215 -262s215 68 215 262z" />
    <glyph glyph-name="uni1ED6" unicode="&#x1ed6;" horiz-adv-x="694" 
d="M417 849c-48 0 -93 35 -133 35c-29 0 -56 -8 -76 -32v56c15 16 48 27 76 27c51 0 88 -35 133 -35c31 0 54 10 71 33v-57c-12 -16 -40 -27 -71 -27zM347 736c57 0 95 30 95 92h52c0 -102 -67 -140 -147 -140s-147 38 -147 140h52c0 -62 38 -92 95 -92zM644 322
c0 -231 -95 -332 -297 -332c-201 0 -297 101 -297 332s96 332 297 332c202 0 297 -101 297 -332zM562 322c0 194 -69 262 -215 262s-215 -68 -215 -262s69 -262 215 -262s215 68 215 262z" />
    <glyph glyph-name="Odieresis" unicode="&#xd6;" horiz-adv-x="694" 
d="M220 711v75h78v-75h-78zM396 711v75h78v-75h-78zM644 322c0 -231 -95 -332 -297 -332c-201 0 -297 101 -297 332s96 332 297 332c202 0 297 -101 297 -332zM562 322c0 194 -69 262 -215 262s-215 -68 -215 -262s69 -262 215 -262s215 68 215 262z" />
    <glyph glyph-name="uni1ECC" unicode="&#x1ecc;" horiz-adv-x="694" 
d="M644 322c0 -231 -95 -332 -297 -332c-201 0 -297 101 -297 332s96 332 297 332c202 0 297 -101 297 -332zM562 322c0 194 -69 262 -215 262s-215 -68 -215 -262s69 -262 215 -262s215 68 215 262zM307 -164v77h80v-77h-80z" />
    <glyph glyph-name="Ograve" unicode="&#xd2;" horiz-adv-x="694" 
d="M320 688l-79 168h74l71 -168h-66zM644 322c0 -231 -95 -332 -297 -332c-201 0 -297 101 -297 332s96 332 297 332c202 0 297 -101 297 -332zM562 322c0 194 -69 262 -215 262s-215 -68 -215 -262s69 -262 215 -262s215 68 215 262z" />
    <glyph glyph-name="uni1ECE" unicode="&#x1ece;" horiz-adv-x="694" 
d="M471 829c0 -54 -22 -84 -89 -93v-48h-66v83c78 4 93 17 93 52c0 33 -25 45 -78 45c-21 0 -49 -5 -66 -12v51c20 8 56 13 85 13c79 0 121 -34 121 -91zM644 322c0 -231 -95 -332 -297 -332c-201 0 -297 101 -297 332s96 332 297 332c202 0 297 -101 297 -332zM562 322
c0 194 -69 262 -215 262s-215 -68 -215 -262s69 -262 215 -262s215 68 215 262z" />
    <glyph glyph-name="Ohorn" unicode="&#x1a0;" horiz-adv-x="760" 
d="M644 322c0 -231 -95 -332 -297 -332c-201 0 -297 101 -297 332s96 332 297 332c101 0 176 -26 225 -80c76 1 97 26 97 114h71c0 -119 -45 -167 -128 -178c21 -49 32 -111 32 -188zM562 322c0 194 -69 262 -215 262s-215 -68 -215 -262s69 -262 215 -262s215 68 215 262z
" />
    <glyph glyph-name="uni1EDA" unicode="&#x1eda;" horiz-adv-x="760" 
d="M325 688l71 168h74l-79 -168h-66zM644 322c0 -231 -95 -332 -297 -332c-201 0 -297 101 -297 332s96 332 297 332c101 0 176 -26 225 -80c76 1 97 26 97 114h71c0 -119 -45 -167 -128 -178c21 -49 32 -111 32 -188zM562 322c0 194 -69 262 -215 262s-215 -68 -215 -262
s69 -262 215 -262s215 68 215 262z" />
    <glyph glyph-name="uni1EE2" unicode="&#x1ee2;" horiz-adv-x="760" 
d="M644 322c0 -231 -95 -332 -297 -332c-201 0 -297 101 -297 332s96 332 297 332c101 0 176 -26 225 -80c76 1 97 26 97 114h71c0 -119 -45 -167 -128 -178c21 -49 32 -111 32 -188zM562 322c0 194 -69 262 -215 262s-215 -68 -215 -262s69 -262 215 -262s215 68 215 262z
M311 -164v77h80v-77h-80z" />
    <glyph glyph-name="uni1EDC" unicode="&#x1edc;" horiz-adv-x="760" 
d="M331 688l-79 168h74l71 -168h-66zM644 322c0 -231 -95 -332 -297 -332c-201 0 -297 101 -297 332s96 332 297 332c101 0 176 -26 225 -80c76 1 97 26 97 114h71c0 -119 -45 -167 -128 -178c21 -49 32 -111 32 -188zM562 322c0 194 -69 262 -215 262s-215 -68 -215 -262
s69 -262 215 -262s215 68 215 262z" />
    <glyph glyph-name="uni1EDE" unicode="&#x1ede;" horiz-adv-x="760" 
d="M477 829c0 -54 -22 -84 -89 -93v-48h-66v83c78 4 93 17 93 52c0 33 -25 45 -78 45c-21 0 -49 -5 -66 -12v51c20 8 56 13 85 13c79 0 121 -34 121 -91zM644 322c0 -231 -95 -332 -297 -332c-201 0 -297 101 -297 332s96 332 297 332c101 0 176 -26 225 -80
c76 1 97 26 97 114h71c0 -119 -45 -167 -128 -178c21 -49 32 -111 32 -188zM562 322c0 194 -69 262 -215 262s-215 -68 -215 -262s69 -262 215 -262s215 68 215 262z" />
    <glyph glyph-name="uni1EE0" unicode="&#x1ee0;" horiz-adv-x="760" 
d="M438 707c-52 0 -101 38 -144 38c-32 0 -61 -9 -83 -35v63c16 18 52 30 83 30c55 0 95 -38 144 -38c34 0 59 11 77 36v-64c-13 -18 -43 -30 -77 -30zM644 322c0 -231 -95 -332 -297 -332c-201 0 -297 101 -297 332s96 332 297 332c101 0 176 -26 225 -80
c76 1 97 26 97 114h71c0 -119 -45 -167 -128 -178c21 -49 32 -111 32 -188zM562 322c0 194 -69 262 -215 262s-215 -68 -215 -262s69 -262 215 -262s215 68 215 262z" />
    <glyph glyph-name="Ohungarumlaut" unicode="&#x150;" horiz-adv-x="694" 
d="M188 688l71 152h78l-81 -152h-68zM394 688l71 152h78l-81 -152h-68zM644 322c0 -231 -95 -332 -297 -332c-201 0 -297 101 -297 332s96 332 297 332c202 0 297 -101 297 -332zM562 322c0 194 -69 262 -215 262s-215 -68 -215 -262s69 -262 215 -262s215 68 215 262z" />
    <glyph glyph-name="Omacron" unicode="&#x14c;" horiz-adv-x="694" 
d="M491 779v-59h-288v59h288zM644 322c0 -231 -95 -332 -297 -332c-201 0 -297 101 -297 332s96 332 297 332c202 0 297 -101 297 -332zM562 322c0 194 -69 262 -215 262s-215 -68 -215 -262s69 -262 215 -262s215 68 215 262z" />
    <glyph glyph-name="Oslash" unicode="&#xd8;" horiz-adv-x="694" 
d="M169 -53l26 70c-98 44 -145 143 -145 305c0 231 96 332 297 332c28 0 55 -3 79 -7l17 46h72l-24 -64c103 -42 153 -141 153 -307c0 -231 -95 -332 -297 -332c-32 0 -61 3 -88 8l-18 -51h-72zM132 322c0 -126 29 -199 89 -234l180 492c-17 2 -35 4 -54 4
c-146 0 -215 -68 -215 -262zM562 322c0 130 -32 204 -96 238l-182 -495c19 -3 40 -5 63 -5c146 0 215 68 215 262z" />
    <glyph glyph-name="Oslashacute" unicode="&#x1fe;" horiz-adv-x="694" 
d="M301 688l71 168h74l-79 -168h-66zM169 -53l26 70c-98 44 -145 143 -145 305c0 231 96 332 297 332c28 0 55 -3 79 -7l17 46h72l-24 -64c103 -42 153 -141 153 -307c0 -231 -95 -332 -297 -332c-32 0 -61 3 -88 8l-18 -51h-72zM132 322c0 -126 29 -199 89 -234l180 492
c-17 2 -35 4 -54 4c-146 0 -215 -68 -215 -262zM562 322c0 130 -32 204 -96 238l-182 -495c19 -3 40 -5 63 -5c146 0 215 68 215 262z" />
    <glyph glyph-name="Otilde" unicode="&#xd5;" horiz-adv-x="694" 
d="M422 713c-52 0 -101 38 -144 38c-32 0 -61 -9 -83 -35v63c16 18 52 30 83 30c55 0 95 -38 144 -38c34 0 59 11 77 36v-64c-13 -18 -43 -30 -77 -30zM644 322c0 -231 -95 -332 -297 -332c-201 0 -297 101 -297 332s96 332 297 332c202 0 297 -101 297 -332zM562 322
c0 194 -69 262 -215 262s-215 -68 -215 -262s69 -262 215 -262s215 68 215 262z" />
    <glyph glyph-name="OE" unicode="&#x152;" horiz-adv-x="1047" 
d="M997 579h-353v-225h317v-64h-317v-226h353v-64h-435v60c-49 -48 -120 -70 -215 -70c-201 0 -297 101 -297 332s96 332 297 332c95 0 166 -22 215 -70v60h435v-65zM347 60c146 0 215 68 215 262s-69 262 -215 262s-215 -68 -215 -262s69 -262 215 -262z" />
    <glyph glyph-name="P" unicode="P" horiz-adv-x="582" 
d="M552 436c0 -125 -82 -203 -214 -203h-186v-233h-82v644h272c144 0 210 -86 210 -208zM325 297c96 0 145 54 145 139c0 91 -46 143 -140 143h-178v-282h173z" />
    <glyph glyph-name="Thorn" unicode="&#xde;" horiz-adv-x="582" 
d="M552 320c0 -125 -82 -205 -214 -205h-186v-115h-82v644h82v-118h190c144 0 210 -84 210 -206zM325 179c96 0 145 56 145 141c0 91 -46 141 -140 141h-178v-282h173z" />
    <glyph glyph-name="Q" unicode="Q" horiz-adv-x="694" 
d="M644 322c0 -217 -84 -319 -261 -331c1 -70 18 -93 74 -93c21 0 50 4 71 10v-69c-22 -6 -57 -11 -87 -11c-95 0 -136 61 -138 164c-171 14 -253 116 -253 330c0 231 96 332 297 332c202 0 297 -101 297 -332zM562 322c0 194 -69 262 -215 262s-215 -68 -215 -262
s69 -262 215 -262s215 68 215 262z" />
    <glyph glyph-name="R" unicode="R" horiz-adv-x="602" 
d="M552 444c0 -95 -47 -160 -137 -181c27 -16 37 -35 52 -69l84 -194h-84l-82 187c-18 40 -35 56 -97 56h-136v-243h-82v644h283c139 0 199 -78 199 -200zM330 307c87 0 140 41 140 137c0 89 -43 135 -129 135h-189v-272h178z" />
    <glyph glyph-name="Racute" unicode="&#x154;" horiz-adv-x="602" 
d="M245 688l71 168h74l-79 -168h-66zM552 444c0 -95 -47 -160 -137 -181c27 -16 37 -35 52 -69l84 -194h-84l-82 187c-18 40 -35 56 -97 56h-136v-243h-82v644h283c139 0 199 -78 199 -200zM330 307c87 0 140 41 140 137c0 89 -43 135 -129 135h-189v-272h178z" />
    <glyph glyph-name="Rcaron" unicode="&#x158;" horiz-adv-x="602" 
d="M322 688h-66l-115 148h71l77 -102l77 102h71zM552 444c0 -95 -47 -160 -137 -181c27 -16 37 -35 52 -69l84 -194h-84l-82 187c-18 40 -35 56 -97 56h-136v-243h-82v644h283c139 0 199 -78 199 -200zM330 307c87 0 140 41 140 137c0 89 -43 135 -129 135h-189v-272h178z
" />
    <glyph glyph-name="Rcommaaccent" unicode="&#x156;" horiz-adv-x="602" 
d="M552 444c0 -95 -47 -160 -137 -181c27 -16 37 -35 52 -69l84 -194h-84l-82 187c-18 40 -35 56 -97 56h-136v-243h-82v644h283c139 0 199 -78 199 -200zM330 307c87 0 140 41 140 137c0 89 -43 135 -129 135h-189v-272h178zM221 -214l28 177h74l-42 -177h-60z" />
    <glyph glyph-name="uni1E5A" unicode="&#x1e5a;" horiz-adv-x="602" 
d="M552 444c0 -95 -47 -160 -137 -181c27 -16 37 -35 52 -69l84 -194h-84l-82 187c-18 40 -35 56 -97 56h-136v-243h-82v644h283c139 0 199 -78 199 -200zM330 307c87 0 140 41 140 137c0 89 -43 135 -129 135h-189v-272h178zM251 -164v77h80v-77h-80z" />
    <glyph glyph-name="uni1E5C" unicode="&#x1e5c;" horiz-adv-x="602" 
d="M437 776v-59h-288v59h288zM552 444c0 -95 -47 -160 -137 -181c27 -16 37 -35 52 -69l84 -194h-84l-82 187c-18 40 -35 56 -97 56h-136v-243h-82v644h283c139 0 199 -78 199 -200zM330 307c87 0 140 41 140 137c0 89 -43 135 -129 135h-189v-272h178zM251 -164v77h80v-77
h-80z" />
    <glyph glyph-name="uni1E5E" unicode="&#x1e5e;" horiz-adv-x="602" 
d="M552 444c0 -95 -47 -160 -137 -181c27 -16 37 -35 52 -69l84 -194h-84l-82 187c-18 40 -35 56 -97 56h-136v-243h-82v644h283c139 0 199 -78 199 -200zM330 307c87 0 140 41 140 137c0 89 -43 135 -129 135h-189v-272h178zM435 -71v-59h-288v59h288z" />
    <glyph glyph-name="S" unicode="S" horiz-adv-x="556" 
d="M506 168c0 -114 -83 -178 -247 -178c-80 0 -145 10 -194 30v73c56 -21 120 -33 187 -33c114 0 172 26 172 108c0 75 -48 98 -182 130c-142 35 -192 85 -192 179c0 109 78 177 239 177c74 0 143 -13 178 -25v-72c-48 17 -105 27 -165 27c-109 0 -170 -29 -170 -107
c0 -66 39 -87 171 -119c157 -38 203 -98 203 -190z" />
    <glyph glyph-name="Sacute" unicode="&#x15a;" horiz-adv-x="556" 
d="M223 688l71 168h74l-79 -168h-66zM506 168c0 -114 -83 -178 -247 -178c-80 0 -145 10 -194 30v73c56 -21 120 -33 187 -33c114 0 172 26 172 108c0 75 -48 98 -182 130c-142 35 -192 85 -192 179c0 109 78 177 239 177c74 0 143 -13 178 -25v-72c-48 17 -105 27 -165 27
c-109 0 -170 -29 -170 -107c0 -66 39 -87 171 -119c157 -38 203 -98 203 -190z" />
    <glyph glyph-name="Scaron" unicode="&#x160;" horiz-adv-x="556" 
d="M329 688h-66l-115 148h71l77 -102l77 102h71zM506 168c0 -114 -83 -178 -247 -178c-80 0 -145 10 -194 30v73c56 -21 120 -33 187 -33c114 0 172 26 172 108c0 75 -48 98 -182 130c-142 35 -192 85 -192 179c0 109 78 177 239 177c74 0 143 -13 178 -25v-72
c-48 17 -105 27 -165 27c-109 0 -170 -29 -170 -107c0 -66 39 -87 171 -119c157 -38 203 -98 203 -190z" />
    <glyph glyph-name="Scedilla" unicode="&#x15e;" horiz-adv-x="556" 
d="M506 168c0 -107 -74 -170 -219 -177l-13 -39c73 0 111 -33 111 -90c0 -65 -44 -102 -143 -102c-22 0 -55 4 -70 8v50c18 -5 41 -8 63 -8c62 0 90 12 90 53c0 39 -28 46 -85 46h-37l26 81c-66 3 -121 13 -164 30v73c56 -21 120 -33 187 -33c114 0 172 26 172 108
c0 75 -48 98 -182 130c-142 35 -192 85 -192 179c0 109 78 177 239 177c74 0 143 -13 178 -25v-72c-48 17 -105 27 -165 27c-109 0 -170 -29 -170 -107c0 -66 39 -87 171 -119c157 -38 203 -98 203 -190z" />
    <glyph glyph-name="Scircumflex" unicode="&#x15c;" horiz-adv-x="556" 
d="M429 688h-71l-77 102l-77 -102h-71l115 148h66zM506 168c0 -114 -83 -178 -247 -178c-80 0 -145 10 -194 30v73c56 -21 120 -33 187 -33c114 0 172 26 172 108c0 75 -48 98 -182 130c-142 35 -192 85 -192 179c0 109 78 177 239 177c74 0 143 -13 178 -25v-72
c-48 17 -105 27 -165 27c-109 0 -170 -29 -170 -107c0 -66 39 -87 171 -119c157 -38 203 -98 203 -190z" />
    <glyph glyph-name="Scommaaccent" unicode="&#x218;" horiz-adv-x="556" 
d="M506 168c0 -114 -83 -178 -247 -178c-80 0 -145 10 -194 30v73c56 -21 120 -33 187 -33c114 0 172 26 172 108c0 75 -48 98 -182 130c-142 35 -192 85 -192 179c0 109 78 177 239 177c74 0 143 -13 178 -25v-72c-48 17 -105 27 -165 27c-109 0 -170 -29 -170 -107
c0 -66 39 -87 171 -119c157 -38 203 -98 203 -190zM205 -218l27 166h75l-39 -166h-63z" />
    <glyph glyph-name="uni1E60" unicode="&#x1e60;" horiz-adv-x="556" 
d="M240 710v77h80v-77h-80zM506 168c0 -114 -83 -178 -247 -178c-80 0 -145 10 -194 30v73c56 -21 120 -33 187 -33c114 0 172 26 172 108c0 75 -48 98 -182 130c-142 35 -192 85 -192 179c0 109 78 177 239 177c74 0 143 -13 178 -25v-72c-48 17 -105 27 -165 27
c-109 0 -170 -29 -170 -107c0 -66 39 -87 171 -119c157 -38 203 -98 203 -190z" />
    <glyph glyph-name="uni1E62" unicode="&#x1e62;" horiz-adv-x="556" 
d="M506 168c0 -114 -83 -178 -247 -178c-80 0 -145 10 -194 30v73c56 -21 120 -33 187 -33c114 0 172 26 172 108c0 75 -48 98 -182 130c-142 35 -192 85 -192 179c0 109 78 177 239 177c74 0 143 -13 178 -25v-72c-48 17 -105 27 -165 27c-109 0 -170 -29 -170 -107
c0 -66 39 -87 171 -119c157 -38 203 -98 203 -190zM224 -164v77h80v-77h-80z" />
    <glyph glyph-name="uni1E9E" unicode="&#x1e9e;" horiz-adv-x="623" 
d="M365 60c86 0 126 40 126 122c0 74 -34 101 -119 101h-98v77l192 120c0 60 -43 104 -157 104c-112 0 -162 -46 -162 -148v-436h-82v435c0 141 88 219 244 219c166 0 235 -88 235 -199l-183 -112h47c105 0 165 -63 165 -162c0 -118 -71 -191 -195 -191
c-53 0 -104 7 -144 22v70c37 -16 86 -22 131 -22z" />
    <glyph glyph-name="uni018F" unicode="&#x18f;" horiz-adv-x="670" 
d="M545 359c-7 158 -77 229 -273 229c-58 0 -128 -14 -182 -37v66c55 22 129 37 200 37c228 0 330 -113 330 -339c0 -201 -86 -325 -299 -325c-186 0 -271 110 -271 263v106h495zM321 56c155 0 224 82 224 244h-422v-60c0 -121 72 -184 198 -184z" />
    <glyph glyph-name="T" unicode="T" horiz-adv-x="570" 
d="M326 579v-579h-82v579h-214v65h510v-65h-214z" />
    <glyph glyph-name="Tbar" unicode="&#x166;" horiz-adv-x="570" 
d="M540 579h-214v-197h125v-62h-125v-320h-82v320h-155v62h155v197h-214v65h510v-65z" />
    <glyph glyph-name="Tcaron" unicode="&#x164;" horiz-adv-x="570" 
d="M318 688h-66l-115 148h71l77 -102l77 102h71zM326 579v-579h-82v579h-214v65h510v-65h-214z" />
    <glyph glyph-name="uni0162" unicode="&#x162;" horiz-adv-x="570" 
d="M326 0h-13l-16 -48c73 0 111 -33 111 -90c0 -65 -44 -102 -143 -102c-22 0 -55 4 -70 8v50c18 -5 41 -8 63 -8c62 0 90 12 90 53c0 39 -28 46 -85 46h-37l29 91h-11v579h-214v65h510v-65h-214v-579z" />
    <glyph glyph-name="uni021A" unicode="&#x21a;" horiz-adv-x="570" 
d="M326 579v-579h-82v579h-214v65h510v-65h-214zM222 -219l28 177h74l-42 -177h-60z" />
    <glyph glyph-name="uni1E6C" unicode="&#x1e6c;" horiz-adv-x="570" 
d="M326 579v-579h-82v579h-214v65h510v-65h-214zM245 -159v77h80v-77h-80z" />
    <glyph glyph-name="uni1E6E" unicode="&#x1e6e;" horiz-adv-x="570" 
d="M326 579v-579h-82v579h-214v65h510v-65h-214zM429 -66v-59h-288v59h288z" />
    <glyph glyph-name="U" unicode="U" horiz-adv-x="671" 
d="M336 60c119 0 188 57 188 175v409h82v-408c0 -160 -95 -246 -270 -246c-176 0 -271 86 -271 246v408h82v-409c0 -118 69 -175 189 -175z" />
    <glyph glyph-name="Uacute" unicode="&#xda;" horiz-adv-x="671" 
d="M295 688l71 168h74l-79 -168h-66zM336 60c119 0 188 57 188 175v409h82v-408c0 -160 -95 -246 -270 -246c-176 0 -271 86 -271 246v408h82v-409c0 -118 69 -175 189 -175z" />
    <glyph glyph-name="Ubreve" unicode="&#x16c;" horiz-adv-x="671" 
d="M247 814c0 -51 26 -74 68 -74c44 0 70 23 70 74h58c0 -75 -44 -126 -128 -126c-83 0 -126 51 -126 126h58zM336 60c119 0 188 57 188 175v409h82v-408c0 -160 -95 -246 -270 -246c-176 0 -271 86 -271 246v408h82v-409c0 -118 69 -175 189 -175z" />
    <glyph glyph-name="uni01D3" unicode="&#x1d3;" horiz-adv-x="671" 
d="M368 688h-66l-115 148h71l77 -102l77 102h71zM336 60c119 0 188 57 188 175v409h82v-408c0 -160 -95 -246 -270 -246c-176 0 -271 86 -271 246v408h82v-409c0 -118 69 -175 189 -175z" />
    <glyph glyph-name="Ucircumflex" unicode="&#xdb;" horiz-adv-x="671" 
d="M483 688h-71l-77 102l-77 -102h-71l115 148h66zM336 60c119 0 188 57 188 175v409h82v-408c0 -160 -95 -246 -270 -246c-176 0 -271 86 -271 246v408h82v-409c0 -118 69 -175 189 -175z" />
    <glyph glyph-name="Udieresis" unicode="&#xdc;" horiz-adv-x="671" 
d="M196 711v75h78v-75h-78zM372 711v75h78v-75h-78zM336 60c119 0 188 57 188 175v409h82v-408c0 -160 -95 -246 -270 -246c-176 0 -271 86 -271 246v408h82v-409c0 -118 69 -175 189 -175z" />
    <glyph glyph-name="uni01D7" unicode="&#x1d7;" horiz-adv-x="671" 
d="M304 771l62 125h65l-68 -125h-59zM199 688v75h78v-75h-78zM395 688v75h78v-75h-78zM336 60c119 0 188 57 188 175v409h82v-408c0 -160 -95 -246 -270 -246c-176 0 -271 86 -271 246v408h82v-409c0 -118 69 -175 189 -175z" />
    <glyph glyph-name="uni01D9" unicode="&#x1d9;" horiz-adv-x="671" 
d="M191 889h70l74 -83l75 83h69l-111 -118h-66zM194 688v75h78v-75h-78zM390 688v75h78v-75h-78zM336 60c119 0 188 57 188 175v409h82v-408c0 -160 -95 -246 -270 -246c-176 0 -271 86 -271 246v408h82v-409c0 -118 69 -175 189 -175z" />
    <glyph glyph-name="uni01DB" unicode="&#x1db;" horiz-adv-x="671" 
d="M308 771l-68 125h65l62 -125h-59zM198 688v75h78v-75h-78zM394 688v75h78v-75h-78zM336 60c119 0 188 57 188 175v409h82v-408c0 -160 -95 -246 -270 -246c-176 0 -271 86 -271 246v408h82v-409c0 -118 69 -175 189 -175z" />
    <glyph glyph-name="uni01D5" unicode="&#x1d5;" horiz-adv-x="671" 
d="M480 885v-59h-288v59h288zM208 705v75h78v-75h-78zM384 705v75h78v-75h-78zM336 60c119 0 188 57 188 175v409h82v-408c0 -160 -95 -246 -270 -246c-176 0 -271 86 -271 246v408h82v-409c0 -118 69 -175 189 -175z" />
    <glyph glyph-name="uni1EE4" unicode="&#x1ee4;" horiz-adv-x="671" 
d="M336 60c119 0 188 57 188 175v409h82v-408c0 -160 -95 -246 -270 -246c-176 0 -271 86 -271 246v408h82v-409c0 -118 69 -175 189 -175zM295 -164v77h80v-77h-80z" />
    <glyph glyph-name="Ugrave" unicode="&#xd9;" horiz-adv-x="671" 
d="M319 688l-79 168h74l71 -168h-66zM336 60c119 0 188 57 188 175v409h82v-408c0 -160 -95 -246 -270 -246c-176 0 -271 86 -271 246v408h82v-409c0 -118 69 -175 189 -175z" />
    <glyph glyph-name="uni1EE6" unicode="&#x1ee6;" horiz-adv-x="671" 
d="M454 829c0 -54 -22 -84 -89 -93v-48h-66v83c78 4 93 17 93 52c0 33 -25 45 -78 45c-21 0 -49 -5 -66 -12v51c20 8 56 13 85 13c79 0 121 -34 121 -91zM336 60c119 0 188 57 188 175v409h82v-408c0 -160 -95 -246 -270 -246c-176 0 -271 86 -271 246v408h82v-409
c0 -118 69 -175 189 -175z" />
    <glyph glyph-name="Uhorn" unicode="&#x1af;" horiz-adv-x="805" 
d="M336 60c119 0 188 57 188 175v409h82v-75c77 1 98 29 98 119h71c0 -136 -56 -182 -169 -183v-269c0 -160 -95 -246 -270 -246c-176 0 -271 86 -271 246v408h82v-409c0 -118 69 -175 189 -175z" />
    <glyph glyph-name="uni1EE8" unicode="&#x1ee8;" horiz-adv-x="805" 
d="M310 688l71 168h74l-79 -168h-66zM336 60c119 0 188 57 188 175v409h82v-75c77 1 98 29 98 119h71c0 -136 -56 -182 -169 -183v-269c0 -160 -95 -246 -270 -246c-176 0 -271 86 -271 246v408h82v-409c0 -118 69 -175 189 -175z" />
    <glyph glyph-name="uni1EF0" unicode="&#x1ef0;" horiz-adv-x="805" 
d="M336 60c119 0 188 57 188 175v409h82v-75c77 1 98 29 98 119h71c0 -136 -56 -182 -169 -183v-269c0 -160 -95 -246 -270 -246c-176 0 -271 86 -271 246v408h82v-409c0 -118 69 -175 189 -175zM293 -164v77h80v-77h-80z" />
    <glyph glyph-name="uni1EEA" unicode="&#x1eea;" horiz-adv-x="805" 
d="M312 688l-79 168h74l71 -168h-66zM336 60c119 0 188 57 188 175v409h82v-75c77 1 98 29 98 119h71c0 -136 -56 -182 -169 -183v-269c0 -160 -95 -246 -270 -246c-176 0 -271 86 -271 246v408h82v-409c0 -118 69 -175 189 -175z" />
    <glyph glyph-name="uni1EEC" unicode="&#x1eec;" horiz-adv-x="805" 
d="M463 829c0 -54 -22 -84 -89 -93v-48h-66v83c78 4 93 17 93 52c0 33 -25 45 -78 45c-21 0 -49 -5 -66 -12v51c20 8 56 13 85 13c79 0 121 -34 121 -91zM336 60c119 0 188 57 188 175v409h82v-75c77 1 98 29 98 119h71c0 -136 -56 -182 -169 -183v-269
c0 -160 -95 -246 -270 -246c-176 0 -271 86 -271 246v408h82v-409c0 -118 69 -175 189 -175z" />
    <glyph glyph-name="uni1EEE" unicode="&#x1eee;" horiz-adv-x="805" 
d="M409 707c-52 0 -101 38 -144 38c-32 0 -61 -9 -83 -35v63c16 18 52 30 83 30c55 0 95 -38 144 -38c34 0 59 11 77 36v-64c-13 -18 -43 -30 -77 -30zM336 60c119 0 188 57 188 175v409h82v-75c77 1 98 29 98 119h71c0 -136 -56 -182 -169 -183v-269
c0 -160 -95 -246 -270 -246c-176 0 -271 86 -271 246v408h82v-409c0 -118 69 -175 189 -175z" />
    <glyph glyph-name="Uhungarumlaut" unicode="&#x170;" horiz-adv-x="671" 
d="M160 688l71 152h78l-81 -152h-68zM366 688l71 152h78l-81 -152h-68zM336 60c119 0 188 57 188 175v409h82v-408c0 -160 -95 -246 -270 -246c-176 0 -271 86 -271 246v408h82v-409c0 -118 69 -175 189 -175z" />
    <glyph glyph-name="Umacron" unicode="&#x16a;" horiz-adv-x="671" 
d="M468 779v-59h-288v59h288zM336 60c119 0 188 57 188 175v409h82v-408c0 -160 -95 -246 -270 -246c-176 0 -271 86 -271 246v408h82v-409c0 -118 69 -175 189 -175z" />
    <glyph glyph-name="Uogonek" unicode="&#x172;" horiz-adv-x="671" 
d="M524 644h82v-408c0 -148 -81 -233 -232 -245c-40 -33 -61 -71 -61 -111c0 -34 17 -43 50 -43c17 0 38 4 50 11v-56c-16 -8 -44 -12 -68 -12c-54 0 -99 25 -99 88c0 47 25 92 63 123c-159 8 -244 94 -244 245v408h82v-409c0 -118 69 -175 189 -175c119 0 188 57 188 175
v409z" />
    <glyph glyph-name="Uring" unicode="&#x16e;" horiz-adv-x="671" 
d="M214 795c0 60 45 108 109 108c66 0 111 -48 111 -108s-45 -107 -111 -107c-64 0 -109 47 -109 107zM262 795c0 -34 26 -61 61 -61c37 0 62 27 62 61s-25 61 -62 61c-35 0 -61 -27 -61 -61zM336 60c119 0 188 57 188 175v409h82v-408c0 -160 -95 -246 -270 -246
c-176 0 -271 86 -271 246v408h82v-409c0 -118 69 -175 189 -175z" />
    <glyph glyph-name="Utilde" unicode="&#x168;" horiz-adv-x="671" 
d="M399 708c-52 0 -101 38 -144 38c-32 0 -61 -9 -83 -35v63c16 18 52 30 83 30c55 0 95 -38 144 -38c34 0 59 11 77 36v-64c-13 -18 -43 -30 -77 -30zM336 60c119 0 188 57 188 175v409h82v-408c0 -160 -95 -246 -270 -246c-176 0 -271 86 -271 246v408h82v-409
c0 -118 69 -175 189 -175z" />
    <glyph glyph-name="V" unicode="V" horiz-adv-x="685" 
d="M550 644h85l-244 -644h-96l-245 644h85l207 -561z" />
    <glyph glyph-name="W" unicode="W" horiz-adv-x="861" 
d="M435 490l-147 -490h-88l-150 644h81l121 -530l139 459v71h67l150 -530l123 530h80l-149 -644h-87z" />
    <glyph glyph-name="Wacute" unicode="&#x1e82;" horiz-adv-x="861" 
d="M399 688l71 168h74l-79 -168h-66zM435 490l-147 -490h-88l-150 644h81l121 -530l139 459v71h67l150 -530l123 530h80l-149 -644h-87z" />
    <glyph glyph-name="Wcircumflex" unicode="&#x174;" horiz-adv-x="861" 
d="M583 688h-71l-77 102l-77 -102h-71l115 148h66zM435 490l-147 -490h-88l-150 644h81l121 -530l139 459v71h67l150 -530l123 530h80l-149 -644h-87z" />
    <glyph glyph-name="Wdieresis" unicode="&#x1e84;" horiz-adv-x="861" 
d="M308 708v75h78v-75h-78zM484 708v75h78v-75h-78zM435 490l-147 -490h-88l-150 644h81l121 -530l139 459v71h67l150 -530l123 530h80l-149 -644h-87z" />
    <glyph glyph-name="Wgrave" unicode="&#x1e80;" horiz-adv-x="861" 
d="M394 688l-79 168h74l71 -168h-66zM435 490l-147 -490h-88l-150 644h81l121 -530l139 459v71h67l150 -530l123 530h80l-149 -644h-87z" />
    <glyph glyph-name="X" unicode="X" horiz-adv-x="652" 
d="M507 0l-181 257l-181 -257h-95l227 320l-224 324h94l179 -263l179 263h94l-224 -324l227 -320h-95z" />
    <glyph glyph-name="Y" unicode="Y" horiz-adv-x="642" 
d="M280 0v240l-230 404h85l186 -334l186 334h85l-230 -404v-240h-82z" />
    <glyph glyph-name="Yacute" unicode="&#xdd;" horiz-adv-x="642" 
d="M276 688l71 168h74l-79 -168h-66zM280 0v240l-230 404h85l186 -334l186 334h85l-230 -404v-240h-82z" />
    <glyph glyph-name="Ycircumflex" unicode="&#x176;" horiz-adv-x="642" 
d="M469 688h-71l-77 102l-77 -102h-71l115 148h66zM280 0v240l-230 404h85l186 -334l186 334h85l-230 -404v-240h-82z" />
    <glyph glyph-name="Ydieresis" unicode="&#x178;" horiz-adv-x="642" 
d="M194 711v75h78v-75h-78zM370 711v75h78v-75h-78zM280 0v240l-230 404h85l186 -334l186 334h85l-230 -404v-240h-82z" />
    <glyph glyph-name="uni1E8E" unicode="&#x1e8e;" horiz-adv-x="642" 
d="M281 710v77h80v-77h-80zM280 0v240l-230 404h85l186 -334l186 334h85l-230 -404v-240h-82z" />
    <glyph glyph-name="uni1EF4" unicode="&#x1ef4;" horiz-adv-x="642" 
d="M280 0v240l-230 404h85l186 -334l186 334h85l-230 -404v-240h-82zM281 -149v77h80v-77h-80z" />
    <glyph glyph-name="Ygrave" unicode="&#x1ef2;" horiz-adv-x="642" 
d="M301 688l-79 168h74l71 -168h-66zM280 0v240l-230 404h85l186 -334l186 334h85l-230 -404v-240h-82z" />
    <glyph glyph-name="uni1EF6" unicode="&#x1ef6;" horiz-adv-x="642" 
d="M434 829c0 -54 -22 -84 -89 -93v-48h-66v83c78 4 93 17 93 52c0 33 -25 45 -78 45c-21 0 -49 -5 -66 -12v51c20 8 56 13 85 13c79 0 121 -34 121 -91zM280 0v240l-230 404h85l186 -334l186 334h85l-230 -404v-240h-82z" />
    <glyph glyph-name="uni1EF8" unicode="&#x1ef8;" horiz-adv-x="642" 
d="M396 708c-52 0 -101 38 -144 38c-32 0 -61 -9 -83 -35v63c16 18 52 30 83 30c55 0 95 -38 144 -38c34 0 59 11 77 36v-64c-13 -18 -43 -30 -77 -30zM280 0v240l-230 404h85l186 -334l186 334h85l-230 -404v-240h-82z" />
    <glyph glyph-name="Z" unicode="Z" horiz-adv-x="572" 
d="M50 0v46l368 533h-351v65h455v-51l-365 -529h370v-64h-477z" />
    <glyph glyph-name="Zacute" unicode="&#x179;" horiz-adv-x="572" 
d="M260 688l71 168h74l-79 -168h-66zM50 0v46l368 533h-351v65h455v-51l-365 -529h370v-64h-477z" />
    <glyph glyph-name="Zcaron" unicode="&#x17d;" horiz-adv-x="572" 
d="M336 688h-66l-115 148h71l77 -102l77 102h71zM50 0v46l368 533h-351v65h455v-51l-365 -529h370v-64h-477z" />
    <glyph glyph-name="Zdotaccent" unicode="&#x17b;" horiz-adv-x="572" 
d="M255 710v77h80v-77h-80zM50 0v46l368 533h-351v65h455v-51l-365 -529h370v-64h-477z" />
    <glyph glyph-name="uni1E92" unicode="&#x1e92;" horiz-adv-x="572" 
d="M50 0v46l368 533h-351v65h455v-51l-365 -529h370v-64h-477zM257 -164v77h80v-77h-80z" />
    <glyph glyph-name="a" unicode="a" horiz-adv-x="541" 
d="M407 0l-6 54c-41 -43 -97 -64 -184 -64c-91 0 -167 47 -167 143c0 87 54 148 183 148h165v29c0 77 -24 105 -135 105c-57 0 -112 -10 -158 -26v68c42 16 102 27 169 27c134 0 202 -51 202 -174v-310h-69zM398 218h-163c-75 0 -104 -28 -104 -85c0 -58 41 -76 107 -76
c69 0 123 26 160 69v92z" />
    <glyph glyph-name="aacute" unicode="&#xe1;" horiz-adv-x="541" 
d="M244 522l71 168h74l-79 -168h-66zM407 0l-6 54c-41 -43 -97 -64 -184 -64c-91 0 -167 47 -167 143c0 87 54 148 183 148h165v29c0 77 -24 105 -135 105c-57 0 -112 -10 -158 -26v68c42 16 102 27 169 27c134 0 202 -51 202 -174v-310h-69zM398 218h-163
c-75 0 -104 -28 -104 -85c0 -58 41 -76 107 -76c69 0 123 26 160 69v92z" />
    <glyph glyph-name="abreve" unicode="&#x103;" horiz-adv-x="541" 
d="M215 648c0 -51 26 -74 68 -74c44 0 70 23 70 74h58c0 -75 -44 -126 -128 -126c-83 0 -126 51 -126 126h58zM407 0l-6 54c-41 -43 -97 -64 -184 -64c-91 0 -167 47 -167 143c0 87 54 148 183 148h165v29c0 77 -24 105 -135 105c-57 0 -112 -10 -158 -26v68
c42 16 102 27 169 27c134 0 202 -51 202 -174v-310h-69zM398 218h-163c-75 0 -104 -28 -104 -85c0 -58 41 -76 107 -76c69 0 123 26 160 69v92z" />
    <glyph glyph-name="uni1EAF" unicode="&#x1eaf;" horiz-adv-x="541" 
d="M252 626l62 125h65l-68 -125h-59zM291 570c57 0 95 30 95 92h52c0 -102 -67 -140 -147 -140s-147 38 -147 140h52c0 -62 38 -92 95 -92zM407 0l-6 54c-41 -43 -97 -64 -184 -64c-91 0 -167 47 -167 143c0 87 54 148 183 148h165v29c0 77 -24 105 -135 105
c-57 0 -112 -10 -158 -26v68c42 16 102 27 169 27c134 0 202 -51 202 -174v-310h-69zM398 218h-163c-75 0 -104 -28 -104 -85c0 -58 41 -76 107 -76c69 0 123 26 160 69v92z" />
    <glyph glyph-name="uni1EB7" unicode="&#x1eb7;" horiz-adv-x="541" 
d="M211 648c0 -51 26 -74 68 -74c44 0 70 23 70 74h58c0 -75 -44 -126 -128 -126c-83 0 -126 51 -126 126h58zM407 0l-6 54c-41 -43 -97 -64 -184 -64c-91 0 -167 47 -167 143c0 87 54 148 183 148h165v29c0 77 -24 105 -135 105c-57 0 -112 -10 -158 -26v68
c42 16 102 27 169 27c134 0 202 -51 202 -174v-310h-69zM398 218h-163c-75 0 -104 -28 -104 -85c0 -58 41 -76 107 -76c69 0 123 26 160 69v92zM240 -164v77h80v-77h-80z" />
    <glyph glyph-name="uni1EB1" unicode="&#x1eb1;" horiz-adv-x="541" 
d="M266 626l-68 125h65l62 -125h-59zM286 570c57 0 95 30 95 92h52c0 -102 -67 -140 -147 -140s-147 38 -147 140h52c0 -62 38 -92 95 -92zM407 0l-6 54c-41 -43 -97 -64 -184 -64c-91 0 -167 47 -167 143c0 87 54 148 183 148h165v29c0 77 -24 105 -135 105
c-57 0 -112 -10 -158 -26v68c42 16 102 27 169 27c134 0 202 -51 202 -174v-310h-69zM398 218h-163c-75 0 -104 -28 -104 -85c0 -58 41 -76 107 -76c69 0 123 26 160 69v92z" />
    <glyph glyph-name="uni1EB3" unicode="&#x1eb3;" horiz-adv-x="541" 
d="M385 735c0 -43 -22 -65 -79 -74v-34h-60v58c67 3 82 18 82 45s-17 39 -53 39c-22 0 -40 -5 -57 -13v41c19 7 46 12 74 12c59 0 93 -28 93 -74zM284 570c57 0 95 30 95 92h52c0 -102 -67 -140 -147 -140s-147 38 -147 140h52c0 -62 38 -92 95 -92zM407 0l-6 54
c-41 -43 -97 -64 -184 -64c-91 0 -167 47 -167 143c0 87 54 148 183 148h165v29c0 77 -24 105 -135 105c-57 0 -112 -10 -158 -26v68c42 16 102 27 169 27c134 0 202 -51 202 -174v-310h-69zM398 218h-163c-75 0 -104 -28 -104 -85c0 -58 41 -76 107 -76c69 0 123 26 160 69
v92z" />
    <glyph glyph-name="uni1EB5" unicode="&#x1eb5;" horiz-adv-x="541" 
d="M358 683c-48 0 -93 35 -133 35c-29 0 -56 -8 -76 -32v56c15 16 48 27 76 27c51 0 88 -35 133 -35c31 0 54 10 71 33v-57c-12 -16 -40 -27 -71 -27zM288 570c57 0 95 30 95 92h52c0 -102 -67 -140 -147 -140s-147 38 -147 140h52c0 -62 38 -92 95 -92zM407 0l-6 54
c-41 -43 -97 -64 -184 -64c-91 0 -167 47 -167 143c0 87 54 148 183 148h165v29c0 77 -24 105 -135 105c-57 0 -112 -10 -158 -26v68c42 16 102 27 169 27c134 0 202 -51 202 -174v-310h-69zM398 218h-163c-75 0 -104 -28 -104 -85c0 -58 41 -76 107 -76c69 0 123 26 160 69
v92z" />
    <glyph glyph-name="uni01CE" unicode="&#x1ce;" horiz-adv-x="541" 
d="M313 522h-66l-115 148h71l77 -102l77 102h71zM407 0l-6 54c-41 -43 -97 -64 -184 -64c-91 0 -167 47 -167 143c0 87 54 148 183 148h165v29c0 77 -24 105 -135 105c-57 0 -112 -10 -158 -26v68c42 16 102 27 169 27c134 0 202 -51 202 -174v-310h-69zM398 218h-163
c-75 0 -104 -28 -104 -85c0 -58 41 -76 107 -76c69 0 123 26 160 69v92z" />
    <glyph glyph-name="acircumflex" unicode="&#xe2;" horiz-adv-x="541" 
d="M430 522h-71l-77 102l-77 -102h-71l115 148h66zM407 0l-6 54c-41 -43 -97 -64 -184 -64c-91 0 -167 47 -167 143c0 87 54 148 183 148h165v29c0 77 -24 105 -135 105c-57 0 -112 -10 -158 -26v68c42 16 102 27 169 27c134 0 202 -51 202 -174v-310h-69zM398 218h-163
c-75 0 -104 -28 -104 -85c0 -58 41 -76 107 -76c69 0 123 26 160 69v92z" />
    <glyph glyph-name="uni1EA5" unicode="&#x1ea5;" horiz-adv-x="541" 
d="M359 631l62 125h65l-68 -125h-59zM423 522h-69l-75 83l-74 -83h-70l111 118h66zM407 0l-6 54c-41 -43 -97 -64 -184 -64c-91 0 -167 47 -167 143c0 87 54 148 183 148h165v29c0 77 -24 105 -135 105c-57 0 -112 -10 -158 -26v68c42 16 102 27 169 27
c134 0 202 -51 202 -174v-310h-69zM398 218h-163c-75 0 -104 -28 -104 -85c0 -58 41 -76 107 -76c69 0 123 26 160 69v92z" />
    <glyph glyph-name="uni1EAD" unicode="&#x1ead;" horiz-adv-x="541" 
d="M423 522h-71l-77 102l-77 -102h-71l115 148h66zM407 0l-6 54c-41 -43 -97 -64 -184 -64c-91 0 -167 47 -167 143c0 87 54 148 183 148h165v29c0 77 -24 105 -135 105c-57 0 -112 -10 -158 -26v68c42 16 102 27 169 27c134 0 202 -51 202 -174v-310h-69zM398 218h-163
c-75 0 -104 -28 -104 -85c0 -58 41 -76 107 -76c69 0 123 26 160 69v92zM235 -164v77h80v-77h-80z" />
    <glyph glyph-name="uni1EA7" unicode="&#x1ea7;" horiz-adv-x="541" 
d="M126 631l-68 125h65l62 -125h-59zM232 640h66l111 -118h-70l-74 83l-75 -83h-69zM407 0l-6 54c-41 -43 -97 -64 -184 -64c-91 0 -167 47 -167 143c0 87 54 148 183 148h165v29c0 77 -24 105 -135 105c-57 0 -112 -10 -158 -26v68c42 16 102 27 169 27
c134 0 202 -51 202 -174v-310h-69zM398 218h-163c-75 0 -104 -28 -104 -85c0 -58 41 -76 107 -76c69 0 123 26 160 69v92z" />
    <glyph glyph-name="uni1EA9" unicode="&#x1ea9;" horiz-adv-x="541" 
d="M500 718c0 -43 -24 -67 -79 -74v-35h-61v63c67 3 80 16 80 42c0 25 -16 36 -50 36c-23 0 -41 -5 -57 -12v43c18 7 41 12 71 12c60 0 96 -28 96 -75zM239 639h66l111 -118h-69l-75 83l-74 -83h-70zM407 0l-6 54c-41 -43 -97 -64 -184 -64c-91 0 -167 47 -167 143
c0 87 54 148 183 148h165v29c0 77 -24 105 -135 105c-57 0 -112 -10 -158 -26v68c42 16 102 27 169 27c134 0 202 -51 202 -174v-310h-69zM398 218h-163c-75 0 -104 -28 -104 -85c0 -58 41 -76 107 -76c69 0 123 26 160 69v92z" />
    <glyph glyph-name="uni1EAB" unicode="&#x1eab;" horiz-adv-x="541" 
d="M351 642c-48 0 -93 35 -133 35c-29 0 -56 -8 -76 -32v56c15 16 48 27 76 27c51 0 88 -35 133 -35c31 0 54 10 71 33v-57c-12 -16 -40 -27 -71 -27zM247 640h66l111 -118h-69l-75 83l-74 -83h-70zM407 0l-6 54c-41 -43 -97 -64 -184 -64c-91 0 -167 47 -167 143
c0 87 54 148 183 148h165v29c0 77 -24 105 -135 105c-57 0 -112 -10 -158 -26v68c42 16 102 27 169 27c134 0 202 -51 202 -174v-310h-69zM398 218h-163c-75 0 -104 -28 -104 -85c0 -58 41 -76 107 -76c69 0 123 26 160 69v92z" />
    <glyph glyph-name="adieresis" unicode="&#xe4;" horiz-adv-x="541" 
d="M160 545v75h78v-75h-78zM336 545v75h78v-75h-78zM407 0l-6 54c-41 -43 -97 -64 -184 -64c-91 0 -167 47 -167 143c0 87 54 148 183 148h165v29c0 77 -24 105 -135 105c-57 0 -112 -10 -158 -26v68c42 16 102 27 169 27c134 0 202 -51 202 -174v-310h-69zM398 218h-163
c-75 0 -104 -28 -104 -85c0 -58 41 -76 107 -76c69 0 123 26 160 69v92z" />
    <glyph glyph-name="uni1EA1" unicode="&#x1ea1;" horiz-adv-x="541" 
d="M407 0l-6 54c-41 -43 -97 -64 -184 -64c-91 0 -167 47 -167 143c0 87 54 148 183 148h165v29c0 77 -24 105 -135 105c-57 0 -112 -10 -158 -26v68c42 16 102 27 169 27c134 0 202 -51 202 -174v-310h-69zM398 218h-163c-75 0 -104 -28 -104 -85c0 -58 41 -76 107 -76
c69 0 123 26 160 69v92zM239 -164v77h80v-77h-80z" />
    <glyph glyph-name="agrave" unicode="&#xe0;" horiz-adv-x="541" 
d="M261 522l-79 168h74l71 -168h-66zM407 0l-6 54c-41 -43 -97 -64 -184 -64c-91 0 -167 47 -167 143c0 87 54 148 183 148h165v29c0 77 -24 105 -135 105c-57 0 -112 -10 -158 -26v68c42 16 102 27 169 27c134 0 202 -51 202 -174v-310h-69zM398 218h-163
c-75 0 -104 -28 -104 -85c0 -58 41 -76 107 -76c69 0 123 26 160 69v92z" />
    <glyph glyph-name="uni1EA3" unicode="&#x1ea3;" horiz-adv-x="541" 
d="M395 663c0 -54 -22 -84 -89 -93v-48h-66v83c78 4 93 17 93 52c0 33 -25 45 -78 45c-21 0 -49 -5 -66 -12v51c20 8 56 13 85 13c79 0 121 -34 121 -91zM407 0l-6 54c-41 -43 -97 -64 -184 -64c-91 0 -167 47 -167 143c0 87 54 148 183 148h165v29c0 77 -24 105 -135 105
c-57 0 -112 -10 -158 -26v68c42 16 102 27 169 27c134 0 202 -51 202 -174v-310h-69zM398 218h-163c-75 0 -104 -28 -104 -85c0 -58 41 -76 107 -76c69 0 123 26 160 69v92z" />
    <glyph glyph-name="uni0251" unicode="&#x251;" horiz-adv-x="575" 
d="M50 231c0 171 82 253 216 253c61 0 112 -14 157 -45v35h82v-474h-70l-6 50c-44 -41 -94 -60 -165 -60c-133 0 -214 69 -214 241zM288 418c-106 0 -156 -58 -156 -187c0 -124 42 -175 153 -175c55 0 102 18 138 57v258c-33 29 -78 47 -135 47z" />
    <glyph glyph-name="amacron" unicode="&#x101;" horiz-adv-x="541" 
d="M421 605v-59h-288v59h288zM407 0l-6 54c-41 -43 -97 -64 -184 -64c-91 0 -167 47 -167 143c0 87 54 148 183 148h165v29c0 77 -24 105 -135 105c-57 0 -112 -10 -158 -26v68c42 16 102 27 169 27c134 0 202 -51 202 -174v-310h-69zM398 218h-163c-75 0 -104 -28 -104 -85
c0 -58 41 -76 107 -76c69 0 123 26 160 69v92z" />
    <glyph glyph-name="aogonek" unicode="&#x105;" horiz-adv-x="541" 
d="M400 -120c0 -34 17 -43 50 -43c17 0 38 4 50 11v-56c-16 -8 -44 -12 -68 -12c-54 0 -99 25 -99 88c0 52 31 102 74 132l-6 54c-41 -43 -97 -64 -184 -64c-91 0 -167 47 -167 143c0 87 54 148 183 148h165v29c0 77 -24 105 -135 105c-57 0 -112 -10 -158 -26v68
c42 16 102 27 169 27c134 0 202 -51 202 -174v-310c-54 -34 -76 -77 -76 -120zM398 218h-163c-75 0 -104 -28 -104 -85c0 -58 41 -76 107 -76c69 0 123 26 160 69v92z" />
    <glyph glyph-name="aring" unicode="&#xe5;" horiz-adv-x="541" 
d="M174 629c0 60 45 108 109 108c66 0 111 -48 111 -108s-45 -107 -111 -107c-64 0 -109 47 -109 107zM222 629c0 -34 26 -61 61 -61c37 0 62 27 62 61s-25 61 -62 61c-35 0 -61 -27 -61 -61zM407 0l-6 54c-41 -43 -97 -64 -184 -64c-91 0 -167 47 -167 143
c0 87 54 148 183 148h165v29c0 77 -24 105 -135 105c-57 0 -112 -10 -158 -26v68c42 16 102 27 169 27c134 0 202 -51 202 -174v-310h-69zM398 218h-163c-75 0 -104 -28 -104 -85c0 -58 41 -76 107 -76c69 0 123 26 160 69v92z" />
    <glyph glyph-name="aringacute" unicode="&#x1fb;" horiz-adv-x="541" 
d="M239 783l71 134h74l-79 -134h-66zM166 626c0 60 45 108 109 108c66 0 111 -48 111 -108s-45 -107 -111 -107c-64 0 -109 47 -109 107zM214 626c0 -34 26 -61 61 -61c37 0 62 27 62 61s-25 61 -62 61c-35 0 -61 -27 -61 -61zM407 0l-6 54c-41 -43 -97 -64 -184 -64
c-91 0 -167 47 -167 143c0 87 54 148 183 148h165v29c0 77 -24 105 -135 105c-57 0 -112 -10 -158 -26v68c42 16 102 27 169 27c134 0 202 -51 202 -174v-310h-69zM398 218h-163c-75 0 -104 -28 -104 -85c0 -58 41 -76 107 -76c69 0 123 26 160 69v92z" />
    <glyph glyph-name="atilde" unicode="&#xe3;" horiz-adv-x="541" 
d="M355 542c-52 0 -101 38 -144 38c-32 0 -61 -9 -83 -35v63c16 18 52 30 83 30c55 0 95 -38 144 -38c34 0 59 11 77 36v-64c-13 -18 -43 -30 -77 -30zM407 0l-6 54c-41 -43 -97 -64 -184 -64c-91 0 -167 47 -167 143c0 87 54 148 183 148h165v29c0 77 -24 105 -135 105
c-57 0 -112 -10 -158 -26v68c42 16 102 27 169 27c134 0 202 -51 202 -174v-310h-69zM398 218h-163c-75 0 -104 -28 -104 -85c0 -58 41 -76 107 -76c69 0 123 26 160 69v92z" />
    <glyph glyph-name="ae" unicode="&#xe6;" horiz-adv-x="881" 
d="M443 80c-38 -44 -98 -90 -226 -90c-91 0 -167 47 -167 143c0 87 54 148 183 148h165v29c0 77 -24 105 -135 105c-57 0 -112 -10 -158 -26v68c42 16 102 27 169 27c86 0 144 -25 175 -73c37 44 95 73 176 73c140 0 206 -84 206 -196v-89h-351c8 -108 57 -143 187 -143
c46 0 95 9 134 25v-64c-41 -18 -94 -27 -150 -27c-102 0 -167 28 -208 90zM627 418c-113 0 -147 -53 -147 -160h278v39c0 77 -38 121 -131 121zM398 218h-163c-75 0 -104 -28 -104 -85c0 -58 41 -76 107 -76c77 0 123 26 160 69v92z" />
    <glyph glyph-name="aeacute" unicode="&#x1fd;" horiz-adv-x="881" 
d="M402 522l71 168h74l-79 -168h-66zM443 80c-38 -44 -98 -90 -226 -90c-91 0 -167 47 -167 143c0 87 54 148 183 148h165v29c0 77 -24 105 -135 105c-57 0 -112 -10 -158 -26v68c42 16 102 27 169 27c86 0 144 -25 175 -73c37 44 95 73 176 73c140 0 206 -84 206 -196v-89
h-351c8 -108 57 -143 187 -143c46 0 95 9 134 25v-64c-41 -18 -94 -27 -150 -27c-102 0 -167 28 -208 90zM627 418c-113 0 -147 -53 -147 -160h278v39c0 77 -38 121 -131 121zM398 218h-163c-75 0 -104 -28 -104 -85c0 -58 41 -76 107 -76c77 0 123 26 160 69v92z" />
    <glyph glyph-name="b" unicode="b" horiz-adv-x="575" 
d="M525 241c0 -172 -81 -251 -214 -251c-71 0 -121 19 -165 60l-6 -50h-70v674h82v-235c45 31 97 45 158 45c134 0 215 -72 215 -243zM288 418c-57 0 -103 -18 -136 -47v-258c36 -39 83 -57 138 -57c111 0 153 61 153 185c0 129 -49 177 -155 177z" />
    <glyph glyph-name="c" unicode="c" horiz-adv-x="490" 
d="M440 16c-41 -17 -88 -26 -146 -26c-165 0 -244 89 -244 247c0 166 98 247 251 247c63 0 99 -9 138 -27v-65c-35 17 -75 26 -123 26c-118 0 -184 -51 -184 -181c0 -126 51 -181 181 -181c44 0 89 9 127 26v-66z" />
    <glyph glyph-name="cacute" unicode="&#x107;" horiz-adv-x="490" 
d="M230 522l71 168h74l-79 -168h-66zM440 16c-41 -17 -88 -26 -146 -26c-165 0 -244 89 -244 247c0 166 98 247 251 247c63 0 99 -9 138 -27v-65c-35 17 -75 26 -123 26c-118 0 -184 -51 -184 -181c0 -126 51 -181 181 -181c44 0 89 9 127 26v-66z" />
    <glyph glyph-name="ccaron" unicode="&#x10d;" horiz-adv-x="490" 
d="M303 522h-66l-115 148h71l77 -102l77 102h71zM440 16c-41 -17 -88 -26 -146 -26c-165 0 -244 89 -244 247c0 166 98 247 251 247c63 0 99 -9 138 -27v-65c-35 17 -75 26 -123 26c-118 0 -184 -51 -184 -181c0 -126 51 -181 181 -181c44 0 89 9 127 26v-66z" />
    <glyph glyph-name="ccedilla" unicode="&#xe7;" horiz-adv-x="490" 
d="M440 16c-37 -15 -78 -24 -128 -26l-13 -38c73 0 111 -33 111 -90c0 -65 -44 -102 -143 -102c-22 0 -55 4 -70 8v50c18 -5 41 -8 63 -8c62 0 90 12 90 53c0 39 -28 46 -85 46h-37l26 83c-138 13 -204 100 -204 245c0 166 98 247 251 247c63 0 99 -9 138 -27v-65
c-35 17 -75 26 -123 26c-118 0 -184 -51 -184 -181c0 -126 51 -181 181 -181c44 0 89 9 127 26v-66z" />
    <glyph glyph-name="ccircumflex" unicode="&#x109;" horiz-adv-x="490" 
d="M418 522h-71l-77 102l-77 -102h-71l115 148h66zM440 16c-41 -17 -88 -26 -146 -26c-165 0 -244 89 -244 247c0 166 98 247 251 247c63 0 99 -9 138 -27v-65c-35 17 -75 26 -123 26c-118 0 -184 -51 -184 -181c0 -126 51 -181 181 -181c44 0 89 9 127 26v-66z" />
    <glyph glyph-name="cdotaccent" unicode="&#x10b;" horiz-adv-x="490" 
d="M242 544v77h80v-77h-80zM440 16c-41 -17 -88 -26 -146 -26c-165 0 -244 89 -244 247c0 166 98 247 251 247c63 0 99 -9 138 -27v-65c-35 17 -75 26 -123 26c-118 0 -184 -51 -184 -181c0 -126 51 -181 181 -181c44 0 89 9 127 26v-66z" />
    <glyph glyph-name="d" unicode="d" horiz-adv-x="575" 
d="M50 230c0 171 85 254 219 254c61 0 109 -14 154 -45v235h82v-674h-70l-6 50c-44 -41 -94 -60 -165 -60c-133 0 -214 68 -214 240zM287 418c-106 0 -155 -59 -155 -188c0 -124 42 -174 153 -174c55 0 102 18 138 57v258c-33 29 -79 47 -136 47z" />
    <glyph glyph-name="eth" unicode="&#xf0;" horiz-adv-x="573" 
d="M50 196c0 134 79 208 221 208c52 0 118 -18 170 -56v46c0 54 -7 98 -24 131l-134 -58v52l103 45c-25 19 -59 29 -106 29c-57 0 -103 -9 -142 -23v62c40 13 92 22 152 22c73 0 128 -21 165 -60l93 41v-53l-64 -28c24 -42 35 -98 35 -164v-155c0 -171 -81 -245 -235 -245
c-158 0 -234 80 -234 206zM124 196c0 -91 53 -144 160 -144c105 0 157 49 157 157v80c-44 32 -101 55 -156 55c-118 0 -161 -57 -161 -148z" />
    <glyph glyph-name="dcaron" unicode="&#x10f;" horiz-adv-x="699" 
d="M534 529l73 173h72l-81 -173h-64zM50 230c0 171 85 254 219 254c61 0 109 -14 154 -45v235h82v-674h-70l-6 50c-44 -41 -94 -60 -165 -60c-133 0 -214 68 -214 240zM287 418c-106 0 -155 -59 -155 -188c0 -124 42 -174 153 -174c55 0 102 18 138 57v258
c-33 29 -79 47 -136 47z" />
    <glyph glyph-name="dcroat" unicode="&#x111;" horiz-adv-x="573" 
d="M553 609v-65h-48v-544h-70l-6 50c-44 -41 -94 -60 -165 -60c-133 0 -214 68 -214 240c0 171 85 254 219 254c61 0 109 -14 154 -45v105h-185v65h185v65h82v-65h48zM423 113v258c-33 29 -79 47 -136 47c-106 0 -155 -59 -155 -188c0 -124 42 -174 153 -174
c55 0 102 18 138 57z" />
    <glyph glyph-name="uni1E0D" unicode="&#x1e0d;" horiz-adv-x="575" 
d="M50 230c0 171 85 254 219 254c61 0 109 -14 154 -45v235h82v-674h-70l-6 50c-44 -41 -94 -60 -165 -60c-133 0 -214 68 -214 240zM287 418c-106 0 -155 -59 -155 -188c0 -124 42 -174 153 -174c55 0 102 18 138 57v258c-33 29 -79 47 -136 47zM260 -164v77h80v-77h-80z
" />
    <glyph glyph-name="uni1E0F" unicode="&#x1e0f;" horiz-adv-x="575" 
d="M50 230c0 171 85 254 219 254c61 0 109 -14 154 -45v235h82v-674h-70l-6 50c-44 -41 -94 -60 -165 -60c-133 0 -214 68 -214 240zM287 418c-106 0 -155 -59 -155 -188c0 -124 42 -174 153 -174c55 0 102 18 138 57v258c-33 29 -79 47 -136 47zM440 -85v-59h-288v59h288z
" />
    <glyph glyph-name="e" unicode="e" horiz-adv-x="533" 
d="M132 199c8 -108 57 -143 187 -143c46 0 95 9 134 25v-64c-41 -18 -94 -27 -150 -27c-169 0 -253 79 -253 249c0 152 70 245 227 245c140 0 206 -84 206 -196v-89h-351zM279 418c-113 0 -147 -53 -147 -160h278v39c0 77 -38 121 -131 121z" />
    <glyph glyph-name="eacute" unicode="&#xe9;" horiz-adv-x="533" 
d="M227 522l71 168h74l-79 -168h-66zM132 199c8 -108 57 -143 187 -143c46 0 95 9 134 25v-64c-41 -18 -94 -27 -150 -27c-169 0 -253 79 -253 249c0 152 70 245 227 245c140 0 206 -84 206 -196v-89h-351zM279 418c-113 0 -147 -53 -147 -160h278v39c0 77 -38 121 -131 121
z" />
    <glyph glyph-name="ebreve" unicode="&#x115;" horiz-adv-x="533" 
d="M201 648c0 -51 26 -74 68 -74c44 0 70 23 70 74h58c0 -75 -44 -126 -128 -126c-83 0 -126 51 -126 126h58zM132 199c8 -108 57 -143 187 -143c46 0 95 9 134 25v-64c-41 -18 -94 -27 -150 -27c-169 0 -253 79 -253 249c0 152 70 245 227 245c140 0 206 -84 206 -196v-89
h-351zM279 418c-113 0 -147 -53 -147 -160h278v39c0 77 -38 121 -131 121z" />
    <glyph glyph-name="ecaron" unicode="&#x11b;" horiz-adv-x="533" 
d="M308 522h-66l-115 148h71l77 -102l77 102h71zM132 199c8 -108 57 -143 187 -143c46 0 95 9 134 25v-64c-41 -18 -94 -27 -150 -27c-169 0 -253 79 -253 249c0 152 70 245 227 245c140 0 206 -84 206 -196v-89h-351zM279 418c-113 0 -147 -53 -147 -160h278v39
c0 77 -38 121 -131 121z" />
    <glyph glyph-name="ecircumflex" unicode="&#xea;" horiz-adv-x="533" 
d="M414 522h-71l-77 102l-77 -102h-71l115 148h66zM132 199c8 -108 57 -143 187 -143c46 0 95 9 134 25v-64c-41 -18 -94 -27 -150 -27c-169 0 -253 79 -253 249c0 152 70 245 227 245c140 0 206 -84 206 -196v-89h-351zM279 418c-113 0 -147 -53 -147 -160h278v39
c0 77 -38 121 -131 121z" />
    <glyph glyph-name="uni1EBF" unicode="&#x1ebf;" horiz-adv-x="533" 
d="M349 630l62 125h65l-68 -125h-59zM413 521h-69l-75 83l-74 -83h-70l111 118h66zM132 199c8 -108 57 -143 187 -143c46 0 95 9 134 25v-64c-41 -18 -94 -27 -150 -27c-169 0 -253 79 -253 249c0 152 70 245 227 245c140 0 206 -84 206 -196v-89h-351zM279 418
c-113 0 -147 -53 -147 -160h278v39c0 77 -38 121 -131 121z" />
    <glyph glyph-name="uni1EC7" unicode="&#x1ec7;" horiz-adv-x="533" 
d="M418 522h-71l-77 102l-77 -102h-71l115 148h66zM132 199c8 -108 57 -143 187 -143c46 0 95 9 134 25v-64c-41 -18 -94 -27 -150 -27c-169 0 -253 79 -253 249c0 152 70 245 227 245c140 0 206 -84 206 -196v-89h-351zM279 418c-113 0 -147 -53 -147 -160h278v39
c0 77 -38 121 -131 121zM230 -164v77h80v-77h-80z" />
    <glyph glyph-name="uni1EC1" unicode="&#x1ec1;" horiz-adv-x="533" 
d="M144 645l-68 125h65l62 -125h-59zM250 654h66l111 -118h-70l-74 83l-75 -83h-69zM132 199c8 -108 57 -143 187 -143c46 0 95 9 134 25v-64c-41 -18 -94 -27 -150 -27c-169 0 -253 79 -253 249c0 152 70 245 227 245c140 0 206 -84 206 -196v-89h-351zM279 418
c-113 0 -147 -53 -147 -160h278v39c0 77 -38 121 -131 121z" />
    <glyph glyph-name="uni1EC3" unicode="&#x1ec3;" horiz-adv-x="533" 
d="M494 718c0 -43 -24 -67 -79 -74v-35h-61v63c67 3 80 16 80 42c0 25 -16 36 -50 36c-23 0 -41 -5 -57 -12v43c18 7 41 12 71 12c60 0 96 -28 96 -75zM233 639h66l111 -118h-69l-75 83l-74 -83h-70zM132 199c8 -108 57 -143 187 -143c46 0 95 9 134 25v-64
c-41 -18 -94 -27 -150 -27c-169 0 -253 79 -253 249c0 152 70 245 227 245c140 0 206 -84 206 -196v-89h-351zM279 418c-113 0 -147 -53 -147 -160h278v39c0 77 -38 121 -131 121z" />
    <glyph glyph-name="uni1EC5" unicode="&#x1ec5;" horiz-adv-x="533" 
d="M342 642c-48 0 -93 35 -133 35c-29 0 -56 -8 -76 -32v56c15 16 48 27 76 27c51 0 88 -35 133 -35c31 0 54 10 71 33v-57c-12 -16 -40 -27 -71 -27zM238 640h66l111 -118h-69l-75 83l-74 -83h-70zM132 199c8 -108 57 -143 187 -143c46 0 95 9 134 25v-64
c-41 -18 -94 -27 -150 -27c-169 0 -253 79 -253 249c0 152 70 245 227 245c140 0 206 -84 206 -196v-89h-351zM279 418c-113 0 -147 -53 -147 -160h278v39c0 77 -38 121 -131 121z" />
    <glyph glyph-name="edieresis" unicode="&#xeb;" horiz-adv-x="533" 
d="M137 545v75h78v-75h-78zM313 545v75h78v-75h-78zM132 199c8 -108 57 -143 187 -143c46 0 95 9 134 25v-64c-41 -18 -94 -27 -150 -27c-169 0 -253 79 -253 249c0 152 70 245 227 245c140 0 206 -84 206 -196v-89h-351zM279 418c-113 0 -147 -53 -147 -160h278v39
c0 77 -38 121 -131 121z" />
    <glyph glyph-name="edotaccent" unicode="&#x117;" horiz-adv-x="533" 
d="M228 544v77h80v-77h-80zM132 199c8 -108 57 -143 187 -143c46 0 95 9 134 25v-64c-41 -18 -94 -27 -150 -27c-169 0 -253 79 -253 249c0 152 70 245 227 245c140 0 206 -84 206 -196v-89h-351zM279 418c-113 0 -147 -53 -147 -160h278v39c0 77 -38 121 -131 121z" />
    <glyph glyph-name="uni1EB9" unicode="&#x1eb9;" horiz-adv-x="533" 
d="M132 199c8 -108 57 -143 187 -143c46 0 95 9 134 25v-64c-41 -18 -94 -27 -150 -27c-169 0 -253 79 -253 249c0 152 70 245 227 245c140 0 206 -84 206 -196v-89h-351zM279 418c-113 0 -147 -53 -147 -160h278v39c0 77 -38 121 -131 121zM227 -164v77h80v-77h-80z" />
    <glyph glyph-name="egrave" unicode="&#xe8;" horiz-adv-x="533" 
d="M234 522l-79 168h74l71 -168h-66zM132 199c8 -108 57 -143 187 -143c46 0 95 9 134 25v-64c-41 -18 -94 -27 -150 -27c-169 0 -253 79 -253 249c0 152 70 245 227 245c140 0 206 -84 206 -196v-89h-351zM279 418c-113 0 -147 -53 -147 -160h278v39c0 77 -38 121 -131 121
z" />
    <glyph glyph-name="uni1EBB" unicode="&#x1ebb;" horiz-adv-x="533" 
d="M391 663c0 -54 -22 -84 -89 -93v-48h-66v83c78 4 93 17 93 52c0 33 -25 45 -78 45c-21 0 -49 -5 -66 -12v51c20 8 56 13 85 13c79 0 121 -34 121 -91zM132 199c8 -108 57 -143 187 -143c46 0 95 9 134 25v-64c-41 -18 -94 -27 -150 -27c-169 0 -253 79 -253 249
c0 152 70 245 227 245c140 0 206 -84 206 -196v-89h-351zM279 418c-113 0 -147 -53 -147 -160h278v39c0 77 -38 121 -131 121z" />
    <glyph glyph-name="emacron" unicode="&#x113;" horiz-adv-x="533" 
d="M424 613v-59h-288v59h288zM132 199c8 -108 57 -143 187 -143c46 0 95 9 134 25v-64c-41 -18 -94 -27 -150 -27c-169 0 -253 79 -253 249c0 152 70 245 227 245c140 0 206 -84 206 -196v-89h-351zM279 418c-113 0 -147 -53 -147 -160h278v39c0 77 -38 121 -131 121z" />
    <glyph glyph-name="eogonek" unicode="&#x119;" horiz-adv-x="533" 
d="M483 288v-89h-351c8 -108 57 -143 187 -143c46 0 95 9 134 25v-64c-17 -8 -36 -13 -57 -18c-46 -35 -71 -76 -71 -119c0 -34 17 -43 50 -43c17 0 38 4 50 11v-56c-16 -8 -44 -12 -68 -12c-54 0 -99 25 -99 88c0 47 25 92 62 122h-17c-169 0 -253 79 -253 249
c0 152 70 245 227 245c140 0 206 -84 206 -196zM410 258v39c0 77 -38 121 -131 121c-113 0 -147 -53 -147 -160h278z" />
    <glyph glyph-name="uni1EBD" unicode="&#x1ebd;" horiz-adv-x="533" 
d="M343 542c-52 0 -101 38 -144 38c-32 0 -61 -9 -83 -35v63c16 18 52 30 83 30c55 0 95 -38 144 -38c34 0 59 11 77 36v-64c-13 -18 -43 -30 -77 -30zM132 199c8 -108 57 -143 187 -143c46 0 95 9 134 25v-64c-41 -18 -94 -27 -150 -27c-169 0 -253 79 -253 249
c0 152 70 245 227 245c140 0 206 -84 206 -196v-89h-351zM279 418c-113 0 -147 -53 -147 -160h278v39c0 77 -38 121 -131 121z" />
    <glyph glyph-name="f" unicode="f" horiz-adv-x="346" 
d="M249 690c35 0 63 -6 87 -15v-62c-20 7 -43 11 -66 11c-68 0 -87 -22 -87 -81v-69h128l-4 -65h-124v-409h-82v409h-71v65h71v69c0 90 51 147 148 147z" />
    <glyph glyph-name="g" unicode="g" horiz-adv-x="547" 
d="M395 -55c0 34 -21 48 -84 48h-126c-87 0 -131 31 -131 88c0 39 24 78 74 93c-54 26 -78 75 -78 140c0 119 68 170 209 170c29 0 64 -6 82 -10h171l-3 -56h-86c30 -26 43 -62 43 -104c0 -105 -60 -166 -187 -166c-22 0 -36 2 -58 5c-41 -2 -85 -25 -85 -60
c0 -23 15 -33 63 -33h131c94 0 147 -39 147 -112c0 -93 -80 -124 -223 -124c-71 0 -142 8 -190 25v68c53 -18 124 -27 186 -27c100 0 145 6 145 55zM259 210c94 0 125 27 125 104s-34 110 -125 110c-89 0 -127 -30 -127 -110c0 -74 34 -104 127 -104z" />
    <glyph glyph-name="gbreve" unicode="&#x11f;" horiz-adv-x="547" 
d="M197 648c0 -51 26 -74 68 -74c44 0 70 23 70 74h58c0 -75 -44 -126 -128 -126c-83 0 -126 51 -126 126h58zM395 -55c0 34 -21 48 -84 48h-126c-87 0 -131 31 -131 88c0 39 24 78 74 93c-54 26 -78 75 -78 140c0 119 68 170 209 170c29 0 64 -6 82 -10h171l-3 -56h-86
c30 -26 43 -62 43 -104c0 -105 -60 -166 -187 -166c-22 0 -36 2 -58 5c-41 -2 -85 -25 -85 -60c0 -23 15 -33 63 -33h131c94 0 147 -39 147 -112c0 -93 -80 -124 -223 -124c-71 0 -142 8 -190 25v68c53 -18 124 -27 186 -27c100 0 145 6 145 55zM259 210
c94 0 125 27 125 104s-34 110 -125 110c-89 0 -127 -30 -127 -110c0 -74 34 -104 127 -104z" />
    <glyph glyph-name="gcaron" unicode="&#x1e7;" horiz-adv-x="547" 
d="M314 522h-66l-115 148h71l77 -102l77 102h71zM395 -55c0 34 -21 48 -84 48h-126c-87 0 -131 31 -131 88c0 39 24 78 74 93c-54 26 -78 75 -78 140c0 119 68 170 209 170c29 0 64 -6 82 -10h171l-3 -56h-86c30 -26 43 -62 43 -104c0 -105 -60 -166 -187 -166
c-22 0 -36 2 -58 5c-41 -2 -85 -25 -85 -60c0 -23 15 -33 63 -33h131c94 0 147 -39 147 -112c0 -93 -80 -124 -223 -124c-71 0 -142 8 -190 25v68c53 -18 124 -27 186 -27c100 0 145 6 145 55zM259 210c94 0 125 27 125 104s-34 110 -125 110c-89 0 -127 -30 -127 -110
c0 -74 34 -104 127 -104z" />
    <glyph glyph-name="gcircumflex" unicode="&#x11d;" horiz-adv-x="547" 
d="M412 522h-71l-77 102l-77 -102h-71l115 148h66zM395 -55c0 34 -21 48 -84 48h-126c-87 0 -131 31 -131 88c0 39 24 78 74 93c-54 26 -78 75 -78 140c0 119 68 170 209 170c29 0 64 -6 82 -10h171l-3 -56h-86c30 -26 43 -62 43 -104c0 -105 -60 -166 -187 -166
c-22 0 -36 2 -58 5c-41 -2 -85 -25 -85 -60c0 -23 15 -33 63 -33h131c94 0 147 -39 147 -112c0 -93 -80 -124 -223 -124c-71 0 -142 8 -190 25v68c53 -18 124 -27 186 -27c100 0 145 6 145 55zM259 210c94 0 125 27 125 104s-34 110 -125 110c-89 0 -127 -30 -127 -110
c0 -74 34 -104 127 -104z" />
    <glyph glyph-name="gcommaaccent" unicode="&#x123;" horiz-adv-x="547" 
d="M319 699l-28 -177h-74l42 177h60zM395 -55c0 34 -21 48 -84 48h-126c-87 0 -131 31 -131 88c0 39 24 78 74 93c-54 26 -78 75 -78 140c0 119 68 170 209 170c29 0 64 -6 82 -10h171l-3 -56h-86c30 -26 43 -62 43 -104c0 -105 -60 -166 -187 -166c-22 0 -36 2 -58 5
c-41 -2 -85 -25 -85 -60c0 -23 15 -33 63 -33h131c94 0 147 -39 147 -112c0 -93 -80 -124 -223 -124c-71 0 -142 8 -190 25v68c53 -18 124 -27 186 -27c100 0 145 6 145 55zM259 210c94 0 125 27 125 104s-34 110 -125 110c-89 0 -127 -30 -127 -110c0 -74 34 -104 127 -104
z" />
    <glyph glyph-name="gdotaccent" unicode="&#x121;" horiz-adv-x="547" 
d="M220 539v77h80v-77h-80zM395 -55c0 34 -21 48 -84 48h-126c-87 0 -131 31 -131 88c0 39 24 78 74 93c-54 26 -78 75 -78 140c0 119 68 170 209 170c29 0 64 -6 82 -10h171l-3 -56h-86c30 -26 43 -62 43 -104c0 -105 -60 -166 -187 -166c-22 0 -36 2 -58 5
c-41 -2 -85 -25 -85 -60c0 -23 15 -33 63 -33h131c94 0 147 -39 147 -112c0 -93 -80 -124 -223 -124c-71 0 -142 8 -190 25v68c53 -18 124 -27 186 -27c100 0 145 6 145 55zM259 210c94 0 125 27 125 104s-34 110 -125 110c-89 0 -127 -30 -127 -110c0 -74 34 -104 127 -104
z" />
    <glyph glyph-name="uni1E21" unicode="&#x1e21;" horiz-adv-x="547" 
d="M420 610v-59h-288v59h288zM395 -55c0 34 -21 48 -84 48h-126c-87 0 -131 31 -131 88c0 39 24 78 74 93c-54 26 -78 75 -78 140c0 119 68 170 209 170c29 0 64 -6 82 -10h171l-3 -56h-86c30 -26 43 -62 43 -104c0 -105 -60 -166 -187 -166c-22 0 -36 2 -58 5
c-41 -2 -85 -25 -85 -60c0 -23 15 -33 63 -33h131c94 0 147 -39 147 -112c0 -93 -80 -124 -223 -124c-71 0 -142 8 -190 25v68c53 -18 124 -27 186 -27c100 0 145 6 145 55zM259 210c94 0 125 27 125 104s-34 110 -125 110c-89 0 -127 -30 -127 -110c0 -74 34 -104 127 -104
z" />
    <glyph glyph-name="h" unicode="h" horiz-adv-x="570" 
d="M505 0h-82v307c0 83 -34 111 -118 111c-54 0 -116 -26 -153 -63v-355h-82v674h82v-251c44 36 102 61 181 61c115 0 172 -54 172 -174v-310z" />
    <glyph glyph-name="hbar" unicode="&#x127;" horiz-adv-x="587" 
d="M350 484c115 0 172 -54 172 -174v-310h-82v307c0 83 -34 111 -118 111c-54 0 -116 -26 -153 -63v-355h-82v544h-57v65h57v65h82v-65h166v-65h-166v-121c44 36 102 61 181 61z" />
    <glyph glyph-name="uni1E2B" unicode="&#x1e2b;" horiz-adv-x="570" 
d="M505 0h-82v307c0 83 -34 111 -118 111c-54 0 -116 -26 -153 -63v-355h-82v674h82v-251c44 36 102 61 181 61c115 0 172 -54 172 -174v-310zM224 -70c0 -51 26 -74 68 -74c44 0 70 23 70 74h58c0 -75 -44 -126 -128 -126c-83 0 -126 51 -126 126h58z" />
    <glyph glyph-name="hcircumflex" unicode="&#x125;" horiz-adv-x="570" 
d="M372 701h-71l-77 102l-77 -102h-71l115 148h66zM505 0h-82v307c0 83 -34 111 -118 111c-54 0 -116 -26 -153 -63v-355h-82v674h82v-251c44 36 102 61 181 61c115 0 172 -54 172 -174v-310z" />
    <glyph glyph-name="uni1E25" unicode="&#x1e25;" horiz-adv-x="570" 
d="M505 0h-82v307c0 83 -34 111 -118 111c-54 0 -116 -26 -153 -63v-355h-82v674h82v-251c44 36 102 61 181 61c115 0 172 -54 172 -174v-310zM250 -164v77h80v-77h-80z" />
    <glyph glyph-name="i" unicode="i" horiz-adv-x="296" 
d="M226 585h-91v75h91v-75zM225 474v-474h-82v409h-73l8 65h147z" />
    <glyph glyph-name="dotlessi" unicode="&#x131;" horiz-adv-x="295" 
d="M225 474v-474h-82v409h-73l8 65h147z" />
    <glyph glyph-name="iacute" unicode="&#xed;" horiz-adv-x="295" 
d="M140 522l71 168h74l-79 -168h-66zM225 474v-474h-82v409h-73l8 65h147z" />
    <glyph glyph-name="ibreve" unicode="&#x12d;" horiz-adv-x="295" 
d="M90 647c0 -51 26 -74 68 -74c44 0 70 23 70 74h58c0 -75 -44 -126 -128 -126c-83 0 -126 51 -126 126h58zM225 474v-474h-82v409h-73l8 65h147z" />
    <glyph glyph-name="uni01D0" unicode="&#x1d0;" horiz-adv-x="295" 
d="M196 522h-66l-115 148h71l77 -102l77 102h71zM225 474v-474h-82v409h-73l8 65h147z" />
    <glyph glyph-name="icircumflex" unicode="&#xee;" horiz-adv-x="295" 
d="M314 522h-71l-77 102l-77 -102h-71l115 148h66zM225 474v-474h-82v409h-73l8 65h147z" />
    <glyph glyph-name="idieresis" unicode="&#xef;" horiz-adv-x="295" 
d="M27 545v75h78v-75h-78zM203 545v75h78v-75h-78zM225 474v-474h-82v409h-73l8 65h147z" />
    <glyph glyph-name="uni1ECB" unicode="&#x1ecb;" horiz-adv-x="296" 
d="M226 585h-91v75h91v-75zM225 474v-474h-82v409h-73l8 65h147zM144 -164v77h80v-77h-80z" />
    <glyph glyph-name="igrave" unicode="&#xec;" horiz-adv-x="295" 
d="M155 522l-79 168h74l71 -168h-66zM225 474v-474h-82v409h-73l8 65h147z" />
    <glyph glyph-name="uni1EC9" unicode="&#x1ec9;" horiz-adv-x="295" 
d="M272 663c0 -54 -22 -84 -89 -93v-48h-66v83c78 4 93 17 93 52c0 33 -25 45 -78 45c-21 0 -49 -5 -66 -12v51c20 8 56 13 85 13c79 0 121 -34 121 -91zM225 474v-474h-82v409h-73l8 65h147z" />
    <glyph glyph-name="ij" unicode="&#x133;" horiz-adv-x="506" 
d="M226 585h-91v75h91v-75zM436 585h-91v75h91v-75zM225 474v-474h-82v409h-73l8 65h147zM436 -94c0 -86 -51 -140 -145 -140c-33 0 -64 5 -89 14v65c22 -7 44 -10 61 -10c72 0 91 22 91 78v496h-73l8 65h147v-568z" />
    <glyph glyph-name="imacron" unicode="&#x12b;" horiz-adv-x="295" 
d="M292 620v-59h-288v59h288zM225 474v-474h-82v409h-73l8 65h147z" />
    <glyph glyph-name="iogonek" unicode="&#x12f;" horiz-adv-x="296" 
d="M226 660v-75h-91v75h91zM187 -163c17 0 38 4 50 11v-56c-16 -8 -44 -12 -68 -12c-54 0 -99 25 -99 88c0 52 31 102 75 132h-2v409h-73l8 65h147v-474h-16c-47 -35 -72 -77 -72 -120c0 -34 17 -43 50 -43z" />
    <glyph glyph-name="itilde" unicode="&#x129;" horiz-adv-x="295" 
d="M224 527c-52 0 -101 38 -144 38c-32 0 -61 -9 -83 -35v63c16 18 52 30 83 30c55 0 95 -38 144 -38c34 0 59 11 77 36v-64c-13 -18 -43 -30 -77 -30zM225 474v-474h-82v409h-73l8 65h147z" />
    <glyph glyph-name="j" unicode="j" horiz-adv-x="294" 
d="M224 585h-91v75h91v-75zM224 -94c0 -86 -51 -140 -145 -140c-33 0 -64 5 -89 14v65c22 -7 44 -10 61 -10c72 0 91 22 91 78v496h-73l8 65h147v-568z" />
    <glyph glyph-name="uni0237" unicode="&#x237;" horiz-adv-x="294" 
d="M224 -94c0 -86 -51 -140 -145 -140c-33 0 -64 5 -89 14v65c22 -7 44 -10 61 -10c72 0 91 22 91 78v496h-73l8 65h147v-568z" />
    <glyph glyph-name="jcircumflex" unicode="&#x135;" horiz-adv-x="294" 
d="M320 522h-71l-77 102l-77 -102h-71l115 148h66zM224 -94c0 -86 -51 -140 -145 -140c-33 0 -64 5 -89 14v65c22 -7 44 -10 61 -10c72 0 91 22 91 78v496h-73l8 65h147v-568z" />
    <glyph glyph-name="k" unicode="k" horiz-adv-x="530" 
d="M275 286l205 -286h-86l-171 242l-71 -67v-175h-82v674h82v-409l222 209h95z" />
    <glyph glyph-name="kcommaaccent" unicode="&#x137;" horiz-adv-x="530" 
d="M275 286l205 -286h-86l-171 242l-71 -67v-175h-82v674h82v-409l222 209h95zM204 -214l28 177h74l-42 -177h-60z" />
    <glyph glyph-name="kgreenlandic" unicode="&#x138;" horiz-adv-x="530" 
d="M275 272l205 -272h-86l-170 227l-72 -74v-153h-82v474h82v-228l222 228h95z" />
    <glyph glyph-name="l" unicode="l" horiz-adv-x="263" 
d="M70 674h82v-563c0 -40 13 -52 41 -52c15 0 30 2 45 6v-65c-21 -8 -42 -10 -65 -10c-64 0 -103 30 -103 112v572z" />
    <glyph glyph-name="lacute" unicode="&#x13a;" horiz-adv-x="263" 
d="M70 728l71 168h74l-79 -168h-66zM70 674h82v-563c0 -40 13 -52 41 -52c15 0 30 2 45 6v-65c-21 -8 -42 -10 -65 -10c-64 0 -103 30 -103 112v572z" />
    <glyph glyph-name="lcaron" unicode="&#x13e;" horiz-adv-x="325" 
d="M210 639l28 177h74l-42 -177h-60zM70 674h82v-563c0 -40 13 -52 41 -52c15 0 30 2 45 6v-65c-21 -8 -42 -10 -65 -10c-64 0 -103 30 -103 112v572z" />
    <glyph glyph-name="lcommaaccent" unicode="&#x13c;" horiz-adv-x="263" 
d="M70 674h82v-563c0 -40 13 -52 41 -52c15 0 30 2 45 6v-65c-21 -8 -42 -10 -65 -10c-64 0 -103 30 -103 112v572zM106 -214l28 177h74l-42 -177h-60z" />
    <glyph glyph-name="ldot" unicode="&#x140;" horiz-adv-x="312" 
d="M70 674h82v-563c0 -40 13 -52 41 -52c15 0 30 2 45 6v-65c-21 -8 -42 -10 -65 -10c-64 0 -103 30 -103 112v572zM229 266v77h80v-77h-80z" />
    <glyph glyph-name="uni1E37" unicode="&#x1e37;" horiz-adv-x="263" 
d="M70 674h82v-563c0 -40 13 -52 41 -52c15 0 30 2 45 6v-65c-21 -8 -42 -10 -65 -10c-64 0 -103 30 -103 112v572zM112 -164v77h80v-77h-80z" />
    <glyph glyph-name="uni1E39" unicode="&#x1e39;" horiz-adv-x="263" 
d="M257 780v-59h-288v59h288zM70 674h82v-563c0 -40 13 -52 41 -52c15 0 30 2 45 6v-65c-21 -8 -42 -10 -65 -10c-64 0 -103 30 -103 112v572zM112 -164v77h80v-77h-80z" />
    <glyph glyph-name="uni1E3B" unicode="&#x1e3b;" horiz-adv-x="263" 
d="M70 674h82v-563c0 -40 13 -52 41 -52c15 0 30 2 45 6v-65c-21 -8 -42 -10 -65 -10c-64 0 -103 30 -103 112v572zM279 -73v-59h-288v59h288z" />
    <glyph glyph-name="lslash" unicode="&#x142;" horiz-adv-x="263" 
d="M278 373l-126 -55v-207c0 -40 13 -52 41 -52c15 0 30 2 45 6v-65c-21 -8 -42 -10 -65 -10c-64 0 -103 30 -103 112v180l-108 -48v71l108 48v321h82v-285l126 55v-71z" />
    <glyph glyph-name="m" unicode="m" horiz-adv-x="855" 
d="M790 0h-81v307c0 84 -34 111 -112 111c-52 0 -102 -17 -135 -53c4 -17 6 -38 6 -58v-307h-77v305c0 80 -21 113 -99 113c-53 0 -104 -26 -141 -61v-357h-81v474h74l5 -54c50 40 107 64 172 64c71 0 107 -24 126 -65c45 37 101 65 183 65c108 0 160 -54 160 -169v-315z
" />
    <glyph glyph-name="uni1E43" unicode="&#x1e43;" horiz-adv-x="855" 
d="M790 0h-81v307c0 84 -34 111 -112 111c-52 0 -102 -17 -135 -53c4 -17 6 -38 6 -58v-307h-77v305c0 80 -21 113 -99 113c-53 0 -104 -26 -141 -61v-357h-81v474h74l5 -54c50 40 107 64 172 64c71 0 107 -24 126 -65c45 37 101 65 183 65c108 0 160 -54 160 -169v-315z
M388 -164v77h80v-77h-80z" />
    <glyph glyph-name="n" unicode="n" horiz-adv-x="570" 
d="M505 0h-82v307c0 83 -27 111 -121 111c-59 0 -113 -23 -150 -60v-358h-82v474h74l5 -54c45 37 105 64 184 64c120 0 172 -54 172 -174v-310z" />
    <glyph glyph-name="nacute" unicode="&#x144;" horiz-adv-x="570" 
d="M237 522l71 168h74l-79 -168h-66zM505 0h-82v307c0 83 -27 111 -121 111c-59 0 -113 -23 -150 -60v-358h-82v474h74l5 -54c45 37 105 64 184 64c120 0 172 -54 172 -174v-310z" />
    <glyph glyph-name="napostrophe" unicode="&#x149;" horiz-adv-x="657" 
d="M33 472l28 177h74l-42 -177h-60zM592 0h-82v307c0 83 -27 111 -121 111c-59 0 -113 -23 -150 -60v-358h-82v474h74l5 -54c45 37 105 64 184 64c120 0 172 -54 172 -174v-310z" />
    <glyph glyph-name="ncaron" unicode="&#x148;" horiz-adv-x="570" 
d="M307 522h-66l-115 148h71l77 -102l77 102h71zM505 0h-82v307c0 83 -27 111 -121 111c-59 0 -113 -23 -150 -60v-358h-82v474h74l5 -54c45 37 105 64 184 64c120 0 172 -54 172 -174v-310z" />
    <glyph glyph-name="ncommaaccent" unicode="&#x146;" horiz-adv-x="570" 
d="M505 0h-82v307c0 83 -27 111 -121 111c-59 0 -113 -23 -150 -60v-358h-82v474h74l5 -54c45 37 105 64 184 64c120 0 172 -54 172 -174v-310zM233 -214l28 177h74l-42 -177h-60z" />
    <glyph glyph-name="uni1E45" unicode="&#x1e45;" horiz-adv-x="570" 
d="M242 544v77h80v-77h-80zM505 0h-82v307c0 83 -27 111 -121 111c-59 0 -113 -23 -150 -60v-358h-82v474h74l5 -54c45 37 105 64 184 64c120 0 172 -54 172 -174v-310z" />
    <glyph glyph-name="uni1E47" unicode="&#x1e47;" horiz-adv-x="570" 
d="M505 0h-82v307c0 83 -27 111 -121 111c-59 0 -113 -23 -150 -60v-358h-82v474h74l5 -54c45 37 105 64 184 64c120 0 172 -54 172 -174v-310zM247 -164v77h80v-77h-80z" />
    <glyph glyph-name="eng" unicode="&#x14b;" horiz-adv-x="570" 
d="M505 -94c0 -86 -51 -140 -145 -140c-33 0 -64 5 -89 14v65c22 -7 44 -10 61 -10c72 0 91 22 91 78v394c0 83 -27 111 -121 111c-59 0 -113 -23 -150 -60v-358h-82v474h74l5 -54c45 37 105 64 184 64c120 0 172 -54 172 -174v-404z" />
    <glyph glyph-name="uni1E49" unicode="&#x1e49;" horiz-adv-x="570" 
d="M505 0h-82v307c0 83 -27 111 -121 111c-59 0 -113 -23 -150 -60v-358h-82v474h74l5 -54c45 37 105 64 184 64c120 0 172 -54 172 -174v-310zM428 -71v-59h-288v59h288z" />
    <glyph glyph-name="ntilde" unicode="&#xf1;" horiz-adv-x="570" 
d="M360 542c-52 0 -101 38 -144 38c-32 0 -61 -9 -83 -35v63c16 18 52 30 83 30c55 0 95 -38 144 -38c34 0 59 11 77 36v-64c-13 -18 -43 -30 -77 -30zM505 0h-82v307c0 83 -27 111 -121 111c-59 0 -113 -23 -150 -60v-358h-82v474h74l5 -54c45 37 105 64 184 64
c120 0 172 -54 172 -174v-310z" />
    <glyph glyph-name="o" unicode="o" horiz-adv-x="574" 
d="M287 484c164 0 237 -88 237 -247c0 -160 -71 -247 -237 -247s-237 87 -237 247c0 159 73 247 237 247zM287 60c113 0 155 54 155 177c0 122 -43 177 -155 177s-155 -55 -155 -177c0 -123 42 -177 155 -177z" />
    <glyph glyph-name="oacute" unicode="&#xf3;" horiz-adv-x="574" 
d="M253 522l71 168h74l-79 -168h-66zM287 484c164 0 237 -88 237 -247c0 -160 -71 -247 -237 -247s-237 87 -237 247c0 159 73 247 237 247zM287 60c113 0 155 54 155 177c0 122 -43 177 -155 177s-155 -55 -155 -177c0 -123 42 -177 155 -177z" />
    <glyph glyph-name="obreve" unicode="&#x14f;" horiz-adv-x="574" 
d="M218 648c0 -51 26 -74 68 -74c44 0 70 23 70 74h58c0 -75 -44 -126 -128 -126c-83 0 -126 51 -126 126h58zM287 484c164 0 237 -88 237 -247c0 -160 -71 -247 -237 -247s-237 87 -237 247c0 159 73 247 237 247zM287 60c113 0 155 54 155 177c0 122 -43 177 -155 177
s-155 -55 -155 -177c0 -123 42 -177 155 -177z" />
    <glyph glyph-name="uni01D2" unicode="&#x1d2;" horiz-adv-x="574" 
d="M320 522h-66l-115 148h71l77 -102l77 102h71zM287 484c164 0 237 -88 237 -247c0 -160 -71 -247 -237 -247s-237 87 -237 247c0 159 73 247 237 247zM287 60c113 0 155 54 155 177c0 122 -43 177 -155 177s-155 -55 -155 -177c0 -123 42 -177 155 -177z" />
    <glyph glyph-name="ocircumflex" unicode="&#xf4;" horiz-adv-x="574" 
d="M435 522h-71l-77 102l-77 -102h-71l115 148h66zM287 484c164 0 237 -88 237 -247c0 -160 -71 -247 -237 -247s-237 87 -237 247c0 159 73 247 237 247zM287 60c113 0 155 54 155 177c0 122 -43 177 -155 177s-155 -55 -155 -177c0 -123 42 -177 155 -177z" />
    <glyph glyph-name="uni1ED1" unicode="&#x1ed1;" horiz-adv-x="574" 
d="M365 631l62 125h65l-68 -125h-59zM429 522h-69l-75 83l-74 -83h-70l111 118h66zM287 484c164 0 237 -88 237 -247c0 -160 -71 -247 -237 -247s-237 87 -237 247c0 159 73 247 237 247zM287 60c113 0 155 54 155 177c0 122 -43 177 -155 177s-155 -55 -155 -177
c0 -123 42 -177 155 -177z" />
    <glyph glyph-name="uni1ED9" unicode="&#x1ed9;" horiz-adv-x="574" 
d="M435 522h-71l-77 102l-77 -102h-71l115 148h66zM287 484c164 0 237 -88 237 -247c0 -160 -71 -247 -237 -247s-237 87 -237 247c0 159 73 247 237 247zM287 60c113 0 155 54 155 177c0 122 -43 177 -155 177s-155 -55 -155 -177c0 -123 42 -177 155 -177zM247 -164v77h80
v-77h-80z" />
    <glyph glyph-name="uni1ED3" unicode="&#x1ed3;" horiz-adv-x="574" 
d="M139 631l-68 125h65l62 -125h-59zM245 640h66l111 -118h-70l-74 83l-75 -83h-69zM287 484c164 0 237 -88 237 -247c0 -160 -71 -247 -237 -247s-237 87 -237 247c0 159 73 247 237 247zM287 60c113 0 155 54 155 177c0 122 -43 177 -155 177s-155 -55 -155 -177
c0 -123 42 -177 155 -177z" />
    <glyph glyph-name="uni1ED5" unicode="&#x1ed5;" horiz-adv-x="574" 
d="M525 719c0 -43 -24 -67 -79 -74v-35h-61v63c67 3 80 16 80 42c0 25 -16 36 -50 36c-23 0 -41 -5 -57 -12v43c18 7 41 12 71 12c60 0 96 -28 96 -75zM264 640h66l111 -118h-69l-75 83l-74 -83h-70zM287 484c164 0 237 -88 237 -247c0 -160 -71 -247 -237 -247
s-237 87 -237 247c0 159 73 247 237 247zM287 60c113 0 155 54 155 177c0 122 -43 177 -155 177s-155 -55 -155 -177c0 -123 42 -177 155 -177z" />
    <glyph glyph-name="uni1ED7" unicode="&#x1ed7;" horiz-adv-x="574" 
d="M357 683c-48 0 -93 35 -133 35c-29 0 -56 -8 -76 -32v56c15 16 48 27 76 27c51 0 88 -35 133 -35c31 0 54 10 71 33v-57c-12 -16 -40 -27 -71 -27zM287 570c57 0 95 30 95 92h52c0 -102 -67 -140 -147 -140s-147 38 -147 140h52c0 -62 38 -92 95 -92zM287 484
c164 0 237 -88 237 -247c0 -160 -71 -247 -237 -247s-237 87 -237 247c0 159 73 247 237 247zM287 60c113 0 155 54 155 177c0 122 -43 177 -155 177s-155 -55 -155 -177c0 -123 42 -177 155 -177z" />
    <glyph glyph-name="odieresis" unicode="&#xf6;" horiz-adv-x="574" 
d="M160 545v75h78v-75h-78zM336 545v75h78v-75h-78zM287 484c164 0 237 -88 237 -247c0 -160 -71 -247 -237 -247s-237 87 -237 247c0 159 73 247 237 247zM287 60c113 0 155 54 155 177c0 122 -43 177 -155 177s-155 -55 -155 -177c0 -123 42 -177 155 -177z" />
    <glyph glyph-name="uni1ECD" unicode="&#x1ecd;" horiz-adv-x="574" 
d="M287 484c164 0 237 -88 237 -247c0 -160 -71 -247 -237 -247s-237 87 -237 247c0 159 73 247 237 247zM287 60c113 0 155 54 155 177c0 122 -43 177 -155 177s-155 -55 -155 -177c0 -123 42 -177 155 -177zM247 -164v77h80v-77h-80z" />
    <glyph glyph-name="ograve" unicode="&#xf2;" horiz-adv-x="574" 
d="M260 522l-79 168h74l71 -168h-66zM287 484c164 0 237 -88 237 -247c0 -160 -71 -247 -237 -247s-237 87 -237 247c0 159 73 247 237 247zM287 60c113 0 155 54 155 177c0 122 -43 177 -155 177s-155 -55 -155 -177c0 -123 42 -177 155 -177z" />
    <glyph glyph-name="uni1ECF" unicode="&#x1ecf;" horiz-adv-x="574" 
d="M410 663c0 -54 -22 -84 -89 -93v-48h-66v83c78 4 93 17 93 52c0 33 -25 45 -78 45c-21 0 -49 -5 -66 -12v51c20 8 56 13 85 13c79 0 121 -34 121 -91zM287 484c164 0 237 -88 237 -247c0 -160 -71 -247 -237 -247s-237 87 -237 247c0 159 73 247 237 247zM287 60
c113 0 155 54 155 177c0 122 -43 177 -155 177s-155 -55 -155 -177c0 -123 42 -177 155 -177z" />
    <glyph glyph-name="ohorn" unicode="&#x1a1;" horiz-adv-x="658" 
d="M287 484c85 0 145 -24 184 -69c77 1 96 32 96 121h71c0 -121 -46 -170 -133 -181c13 -33 19 -73 19 -118c0 -160 -71 -247 -237 -247s-237 87 -237 247c0 159 73 247 237 247zM287 60c113 0 155 54 155 177c0 122 -43 177 -155 177s-155 -55 -155 -177
c0 -123 42 -177 155 -177z" />
    <glyph glyph-name="uni1EDB" unicode="&#x1edb;" horiz-adv-x="658" 
d="M262 522l71 168h74l-79 -168h-66zM287 484c85 0 145 -24 184 -69c77 1 96 32 96 121h71c0 -121 -46 -170 -133 -181c13 -33 19 -73 19 -118c0 -160 -71 -247 -237 -247s-237 87 -237 247c0 159 73 247 237 247zM287 60c113 0 155 54 155 177c0 122 -43 177 -155 177
s-155 -55 -155 -177c0 -123 42 -177 155 -177z" />
    <glyph glyph-name="uni1EE3" unicode="&#x1ee3;" horiz-adv-x="658" 
d="M287 484c85 0 145 -24 184 -69c77 1 96 32 96 121h71c0 -121 -46 -170 -133 -181c13 -33 19 -73 19 -118c0 -160 -71 -247 -237 -247s-237 87 -237 247c0 159 73 247 237 247zM287 60c113 0 155 54 155 177c0 122 -43 177 -155 177s-155 -55 -155 -177
c0 -123 42 -177 155 -177zM248 -164v77h80v-77h-80z" />
    <glyph glyph-name="uni1EDD" unicode="&#x1edd;" horiz-adv-x="658" 
d="M265 522l-79 168h74l71 -168h-66zM287 484c85 0 145 -24 184 -69c77 1 96 32 96 121h71c0 -121 -46 -170 -133 -181c13 -33 19 -73 19 -118c0 -160 -71 -247 -237 -247s-237 87 -237 247c0 159 73 247 237 247zM287 60c113 0 155 54 155 177c0 122 -43 177 -155 177
s-155 -55 -155 -177c0 -123 42 -177 155 -177z" />
    <glyph glyph-name="uni1EDF" unicode="&#x1edf;" horiz-adv-x="658" 
d="M407 663c0 -54 -22 -84 -89 -93v-48h-66v83c78 4 93 17 93 52c0 33 -25 45 -78 45c-21 0 -49 -5 -66 -12v51c20 8 56 13 85 13c79 0 121 -34 121 -91zM287 484c85 0 145 -24 184 -69c77 1 96 32 96 121h71c0 -121 -46 -170 -133 -181c13 -33 19 -73 19 -118
c0 -160 -71 -247 -237 -247s-237 87 -237 247c0 159 73 247 237 247zM287 60c113 0 155 54 155 177c0 122 -43 177 -155 177s-155 -55 -155 -177c0 -123 42 -177 155 -177z" />
    <glyph glyph-name="uni1EE1" unicode="&#x1ee1;" horiz-adv-x="658" 
d="M368 541c-52 0 -101 38 -144 38c-32 0 -61 -9 -83 -35v63c16 18 52 30 83 30c55 0 95 -38 144 -38c34 0 59 11 77 36v-64c-13 -18 -43 -30 -77 -30zM287 484c85 0 145 -24 184 -69c77 1 96 32 96 121h71c0 -121 -46 -170 -133 -181c13 -33 19 -73 19 -118
c0 -160 -71 -247 -237 -247s-237 87 -237 247c0 159 73 247 237 247zM287 60c113 0 155 54 155 177c0 122 -43 177 -155 177s-155 -55 -155 -177c0 -123 42 -177 155 -177z" />
    <glyph glyph-name="ohungarumlaut" unicode="&#x151;" horiz-adv-x="574" 
d="M152 522l71 152h78l-81 -152h-68zM358 522l71 152h78l-81 -152h-68zM287 484c164 0 237 -88 237 -247c0 -160 -71 -247 -237 -247s-237 87 -237 247c0 159 73 247 237 247zM287 60c113 0 155 54 155 177c0 122 -43 177 -155 177s-155 -55 -155 -177
c0 -123 42 -177 155 -177z" />
    <glyph glyph-name="omacron" unicode="&#x14d;" horiz-adv-x="574" 
d="M431 613v-59h-288v59h288zM287 484c164 0 237 -88 237 -247c0 -160 -71 -247 -237 -247s-237 87 -237 247c0 159 73 247 237 247zM287 60c113 0 155 54 155 177c0 122 -43 177 -155 177s-155 -55 -155 -177c0 -123 42 -177 155 -177z" />
    <glyph glyph-name="oslash" unicode="&#xf8;" horiz-adv-x="574" 
d="M287 484c19 0 37 -1 54 -4l18 48h72l-24 -66c80 -35 117 -112 117 -225c0 -160 -71 -247 -237 -247c-19 0 -36 1 -52 3l-17 -47h-72l23 64c-82 34 -119 111 -119 227c0 159 73 247 237 247zM132 237c0 -81 18 -132 63 -158l122 333c-10 1 -20 2 -30 2
c-112 0 -155 -55 -155 -177zM287 60c113 0 155 54 155 177c0 78 -18 129 -61 155l-121 -331c9 -1 17 -1 27 -1z" />
    <glyph glyph-name="oslashacute" unicode="&#x1ff;" horiz-adv-x="574" 
d="M240 522l71 168h74l-79 -168h-66zM287 484c19 0 37 -1 54 -4l18 48h72l-24 -66c80 -35 117 -112 117 -225c0 -160 -71 -247 -237 -247c-19 0 -36 1 -52 3l-17 -47h-72l23 64c-82 34 -119 111 -119 227c0 159 73 247 237 247zM132 237c0 -81 18 -132 63 -158l122 333
c-10 1 -20 2 -30 2c-112 0 -155 -55 -155 -177zM287 60c113 0 155 54 155 177c0 78 -18 129 -61 155l-121 -331c9 -1 17 -1 27 -1z" />
    <glyph glyph-name="otilde" unicode="&#xf5;" horiz-adv-x="574" 
d="M362 547c-52 0 -101 38 -144 38c-32 0 -61 -9 -83 -35v63c16 18 52 30 83 30c55 0 95 -38 144 -38c34 0 59 11 77 36v-64c-13 -18 -43 -30 -77 -30zM287 484c164 0 237 -88 237 -247c0 -160 -71 -247 -237 -247s-237 87 -237 247c0 159 73 247 237 247zM287 60
c113 0 155 54 155 177c0 122 -43 177 -155 177s-155 -55 -155 -177c0 -123 42 -177 155 -177z" />
    <glyph glyph-name="oe" unicode="&#x153;" horiz-adv-x="925" 
d="M875 288v-89h-351c8 -108 57 -143 187 -143c46 0 95 9 134 25v-64c-41 -18 -94 -27 -150 -27c-100 0 -170 27 -210 85c-38 -56 -102 -85 -198 -85c-166 0 -237 87 -237 247c0 159 73 247 237 247c94 0 158 -29 196 -84c36 54 97 84 186 84c140 0 206 -84 206 -196z
M802 258v39c0 77 -38 121 -131 121c-113 0 -147 -53 -147 -160h278zM287 60c113 0 155 54 155 177c0 122 -43 177 -155 177s-155 -55 -155 -177c0 -123 42 -177 155 -177z" />
    <glyph glyph-name="p" unicode="p" horiz-adv-x="575" 
d="M525 244c0 -171 -81 -254 -215 -254c-61 0 -113 14 -158 45v-251h-82v690h70l6 -50c44 41 94 60 165 60c133 0 214 -68 214 -240zM288 56c106 0 155 59 155 188c0 124 -42 174 -153 174c-55 0 -102 -18 -138 -57v-258c33 -29 79 -47 136 -47z" />
    <glyph glyph-name="thorn" unicode="&#xfe;" horiz-adv-x="575" 
d="M153 700v-261c45 31 97 45 158 45c133 0 214 -76 214 -248c0 -171 -81 -246 -215 -246c-61 0 -113 14 -158 45v-251h-82v916h83zM288 56c106 0 155 51 155 180c0 124 -42 182 -153 182c-55 0 -102 -18 -138 -57v-258c33 -29 79 -47 136 -47z" />
    <glyph glyph-name="q" unicode="q" horiz-adv-x="611" 
d="M50 224c0 172 81 260 214 260c71 0 121 -19 165 -60l6 50h70v-588c0 -45 11 -59 53 -59c12 0 32 3 43 6v-65c-19 -7 -37 -10 -63 -10c-75 0 -115 39 -115 124v153c-45 -31 -97 -45 -158 -45c-134 0 -215 63 -215 234zM132 224c0 -129 49 -168 155 -168
c57 0 103 18 136 47v258c-36 39 -83 57 -138 57c-111 0 -153 -70 -153 -194z" />
    <glyph glyph-name="r" unicode="r" horiz-adv-x="356" 
d="M144 474l6 -60c47 31 114 58 176 70v-64c-57 -12 -134 -40 -174 -67v-353h-82v474h74z" />
    <glyph glyph-name="racute" unicode="&#x155;" horiz-adv-x="356" 
d="M78 522l71 168h74l-79 -168h-66zM144 474l6 -60c47 31 114 58 176 70v-64c-57 -12 -134 -40 -174 -67v-353h-82v474h74z" />
    <glyph glyph-name="rcaron" unicode="&#x159;" horiz-adv-x="356" 
d="M149 522h-66l-115 148h71l77 -102l77 102h71zM144 474l6 -60c47 31 114 58 176 70v-64c-57 -12 -134 -40 -174 -67v-353h-82v474h74z" />
    <glyph glyph-name="rcommaaccent" unicode="&#x157;" horiz-adv-x="356" 
d="M144 474l6 -60c47 31 114 58 176 70v-64c-57 -12 -134 -40 -174 -67v-353h-82v474h74zM43 -214l28 177h74l-42 -177h-60z" />
    <glyph glyph-name="uni1E5B" unicode="&#x1e5b;" horiz-adv-x="356" 
d="M144 474l6 -60c47 31 114 58 176 70v-64c-57 -12 -134 -40 -174 -67v-353h-82v474h74zM71 -164v77h80v-77h-80z" />
    <glyph glyph-name="uni1E5D" unicode="&#x1e5d;" horiz-adv-x="356" 
d="M289 610v-59h-288v59h288zM144 474l6 -60c47 31 114 58 176 70v-64c-57 -12 -134 -40 -174 -67v-353h-82v474h74zM71 -164v77h80v-77h-80z" />
    <glyph glyph-name="uni1E5F" unicode="&#x1e5f;" horiz-adv-x="356" 
d="M144 474l6 -60c47 31 114 58 176 70v-64c-57 -12 -134 -40 -174 -67v-353h-82v474h74zM268 -71v-59h-288v59h288z" />
    <glyph glyph-name="s" unicode="s" horiz-adv-x="457" 
d="M325 124c0 53 -43 61 -134 92c-83 28 -141 51 -141 138c0 84 55 130 186 130c51 0 99 -8 134 -19v-72c-39 13 -85 21 -121 21c-83 0 -117 -14 -117 -59c0 -47 35 -56 120 -83c109 -34 155 -63 155 -147c0 -94 -68 -135 -188 -135c-61 0 -120 9 -157 22v72
c45 -16 97 -24 146 -24c84 0 117 14 117 64z" />
    <glyph glyph-name="sacute" unicode="&#x15b;" horiz-adv-x="457" 
d="M182 522l71 168h74l-79 -168h-66zM325 124c0 53 -43 61 -134 92c-83 28 -141 51 -141 138c0 84 55 130 186 130c51 0 99 -8 134 -19v-72c-39 13 -85 21 -121 21c-83 0 -117 -14 -117 -59c0 -47 35 -56 120 -83c109 -34 155 -63 155 -147c0 -94 -68 -135 -188 -135
c-61 0 -120 9 -157 22v72c45 -16 97 -24 146 -24c84 0 117 14 117 64z" />
    <glyph glyph-name="scaron" unicode="&#x161;" horiz-adv-x="457" 
d="M270 522h-66l-115 148h71l77 -102l77 102h71zM325 124c0 53 -43 61 -134 92c-83 28 -141 51 -141 138c0 84 55 130 186 130c51 0 99 -8 134 -19v-72c-39 13 -85 21 -121 21c-83 0 -117 -14 -117 -59c0 -47 35 -56 120 -83c109 -34 155 -63 155 -147
c0 -94 -68 -135 -188 -135c-61 0 -120 9 -157 22v72c45 -16 97 -24 146 -24c84 0 117 14 117 64z" />
    <glyph glyph-name="scedilla" unicode="&#x15f;" horiz-adv-x="457" 
d="M407 125c0 -86 -57 -128 -158 -134l-13 -39c73 0 111 -33 111 -90c0 -65 -44 -102 -143 -102c-22 0 -55 4 -70 8v50c18 -5 41 -8 63 -8c62 0 90 12 90 53c0 39 -28 46 -85 46h-37l26 82c-51 2 -98 10 -129 21v72c45 -16 97 -24 146 -24c84 0 117 14 117 64
c0 53 -43 61 -134 92c-83 28 -141 51 -141 138c0 84 55 130 186 130c51 0 99 -8 134 -19v-72c-39 13 -85 21 -121 21c-83 0 -117 -14 -117 -59c0 -47 35 -56 120 -83c109 -34 155 -63 155 -147z" />
    <glyph glyph-name="scircumflex" unicode="&#x15d;" horiz-adv-x="457" 
d="M383 522h-71l-77 102l-77 -102h-71l115 148h66zM325 124c0 53 -43 61 -134 92c-83 28 -141 51 -141 138c0 84 55 130 186 130c51 0 99 -8 134 -19v-72c-39 13 -85 21 -121 21c-83 0 -117 -14 -117 -59c0 -47 35 -56 120 -83c109 -34 155 -63 155 -147
c0 -94 -68 -135 -188 -135c-61 0 -120 9 -157 22v72c45 -16 97 -24 146 -24c84 0 117 14 117 64z" />
    <glyph glyph-name="scommaaccent" unicode="&#x219;" horiz-adv-x="457" 
d="M325 124c0 53 -43 61 -134 92c-83 28 -141 51 -141 138c0 84 55 130 186 130c51 0 99 -8 134 -19v-72c-39 13 -85 21 -121 21c-83 0 -117 -14 -117 -59c0 -47 35 -56 120 -83c109 -34 155 -63 155 -147c0 -94 -68 -135 -188 -135c-61 0 -120 9 -157 22v72
c45 -16 97 -24 146 -24c84 0 117 14 117 64zM161 -218l27 166h75l-39 -166h-63z" />
    <glyph glyph-name="uni1E61" unicode="&#x1e61;" horiz-adv-x="457" 
d="M200 544v77h80v-77h-80zM325 124c0 53 -43 61 -134 92c-83 28 -141 51 -141 138c0 84 55 130 186 130c51 0 99 -8 134 -19v-72c-39 13 -85 21 -121 21c-83 0 -117 -14 -117 -59c0 -47 35 -56 120 -83c109 -34 155 -63 155 -147c0 -94 -68 -135 -188 -135
c-61 0 -120 9 -157 22v72c45 -16 97 -24 146 -24c84 0 117 14 117 64z" />
    <glyph glyph-name="uni1E63" unicode="&#x1e63;" horiz-adv-x="457" 
d="M325 124c0 53 -43 61 -134 92c-83 28 -141 51 -141 138c0 84 55 130 186 130c51 0 99 -8 134 -19v-72c-39 13 -85 21 -121 21c-83 0 -117 -14 -117 -59c0 -47 35 -56 120 -83c109 -34 155 -63 155 -147c0 -94 -68 -135 -188 -135c-61 0 -120 9 -157 22v72
c45 -16 97 -24 146 -24c84 0 117 14 117 64zM193 -164v77h80v-77h-80z" />
    <glyph glyph-name="germandbls" unicode="&#xdf;" horiz-adv-x="627" 
d="M363 60c83 0 132 47 132 132c0 81 -37 129 -139 129h-82v62h84c84 0 116 53 116 122c0 75 -37 125 -164 125c-107 0 -163 -54 -163 -165v-465h-82v468c0 139 94 232 245 232c164 0 241 -88 241 -195c0 -74 -34 -129 -84 -152c67 -20 110 -78 110 -165
c0 -125 -71 -198 -201 -198c-57 0 -104 7 -144 22v70c37 -16 81 -22 131 -22z" />
    <glyph glyph-name="uni0259" unicode="&#x259;" horiz-adv-x="533" 
d="M401 275c-8 108 -57 143 -187 143c-46 0 -95 -9 -134 -25v64c41 18 94 27 150 27c169 0 253 -79 253 -249c0 -152 -70 -245 -227 -245c-140 0 -206 84 -206 196v89h351zM254 56c113 0 147 53 147 160h-278v-39c0 -77 38 -121 131 -121z" />
    <glyph glyph-name="t" unicode="t" horiz-adv-x="358" 
d="M30 474h72v117l82 25v-142h131l-5 -65h-126v-273c0 -58 23 -80 87 -80c18 0 35 3 57 10v-62c-24 -9 -52 -14 -85 -14c-93 0 -141 53 -141 142v277h-72v65z" />
    <glyph glyph-name="tbar" unicode="&#x167;" horiz-adv-x="370" 
d="M283 56c18 0 35 3 57 10v-62c-24 -9 -52 -14 -85 -14c-93 0 -141 53 -141 142v88h-84v58h84v131h-72v65h72v117l82 25v-142h131l-5 -65h-126v-131h118v-58h-118v-84c0 -58 23 -80 87 -80z" />
    <glyph glyph-name="tcaron" unicode="&#x165;" horiz-adv-x="358" 
d="M295 560l28 177h74l-42 -177h-60zM30 474h72v117l82 25v-142h131l-5 -65h-126v-273c0 -58 23 -80 87 -80c18 0 35 3 57 10v-62c-24 -9 -52 -14 -85 -14c-93 0 -141 53 -141 142v277h-72v65z" />
    <glyph glyph-name="uni0163" unicode="&#x163;" horiz-adv-x="358" 
d="M235 -48c73 0 111 -33 111 -90c0 -65 -44 -102 -143 -102c-22 0 -55 4 -70 8v50c18 -5 41 -8 63 -8c62 0 90 12 90 53c0 39 -28 46 -85 46h-37l28 87c-60 17 -90 65 -90 136v277h-72v65h72v117l82 25v-142h131l-5 -65h-126v-273c0 -58 23 -80 87 -80c18 0 35 3 57 10v-62
c-23 -9 -49 -14 -80 -14z" />
    <glyph glyph-name="uni021B" unicode="&#x21b;" horiz-adv-x="358" 
d="M30 474h72v117l82 25v-142h131l-5 -65h-126v-273c0 -58 23 -80 87 -80c18 0 35 3 57 10v-62c-24 -9 -52 -14 -85 -14c-93 0 -141 53 -141 142v277h-72v65zM170 -219l28 177h74l-42 -177h-60z" />
    <glyph glyph-name="uni1E97" unicode="&#x1e97;" horiz-adv-x="358" 
d="M30 644v75h78v-75h-78zM206 644v75h78v-75h-78zM30 474h72v117l82 25v-142h131l-5 -65h-126v-273c0 -58 23 -80 87 -80c18 0 35 3 57 10v-62c-24 -9 -52 -14 -85 -14c-93 0 -141 53 -141 142v277h-72v65z" />
    <glyph glyph-name="uni1E6D" unicode="&#x1e6d;" horiz-adv-x="358" 
d="M30 474h72v117l82 25v-142h131l-5 -65h-126v-273c0 -58 23 -80 87 -80c18 0 35 3 57 10v-62c-24 -9 -52 -14 -85 -14c-93 0 -141 53 -141 142v277h-72v65zM183 -159v77h80v-77h-80z" />
    <glyph glyph-name="uni1E6F" unicode="&#x1e6f;" horiz-adv-x="358" 
d="M30 474h72v117l82 25v-142h131l-5 -65h-126v-273c0 -58 23 -80 87 -80c18 0 35 3 57 10v-62c-24 -9 -52 -14 -85 -14c-93 0 -141 53 -141 142v277h-72v65zM341 -66v-59h-288v59h288z" />
    <glyph glyph-name="u" unicode="u" horiz-adv-x="570" 
d="M65 474h82v-303c0 -79 38 -115 121 -115c59 0 113 23 150 60v358h82v-474h-74l-5 54c-45 -37 -110 -64 -184 -64c-113 0 -172 64 -172 184v300z" />
    <glyph glyph-name="uacute" unicode="&#xfa;" horiz-adv-x="570" 
d="M235 522l71 168h74l-79 -168h-66zM65 474h82v-303c0 -79 38 -115 121 -115c59 0 113 23 150 60v358h82v-474h-74l-5 54c-45 -37 -110 -64 -184 -64c-113 0 -172 64 -172 184v300z" />
    <glyph glyph-name="ubreve" unicode="&#x16d;" horiz-adv-x="570" 
d="M211 648c0 -51 26 -74 68 -74c44 0 70 23 70 74h58c0 -75 -44 -126 -128 -126c-83 0 -126 51 -126 126h58zM65 474h82v-303c0 -79 38 -115 121 -115c59 0 113 23 150 60v358h82v-474h-74l-5 54c-45 -37 -110 -64 -184 -64c-113 0 -172 64 -172 184v300z" />
    <glyph glyph-name="uni01D4" unicode="&#x1d4;" horiz-adv-x="570" 
d="M315 522h-66l-115 148h71l77 -102l77 102h71zM65 474h82v-303c0 -79 38 -115 121 -115c59 0 113 23 150 60v358h82v-474h-74l-5 54c-45 -37 -110 -64 -184 -64c-113 0 -172 64 -172 184v300z" />
    <glyph glyph-name="ucircumflex" unicode="&#xfb;" horiz-adv-x="570" 
d="M429 522h-71l-77 102l-77 -102h-71l115 148h66zM65 474h82v-303c0 -79 38 -115 121 -115c59 0 113 23 150 60v358h82v-474h-74l-5 54c-45 -37 -110 -64 -184 -64c-113 0 -172 64 -172 184v300z" />
    <glyph glyph-name="udieresis" unicode="&#xfc;" horiz-adv-x="570" 
d="M152 542v75h78v-75h-78zM328 542v75h78v-75h-78zM65 474h82v-303c0 -79 38 -115 121 -115c59 0 113 23 150 60v358h82v-474h-74l-5 54c-45 -37 -110 -64 -184 -64c-113 0 -172 64 -172 184v300z" />
    <glyph glyph-name="uni01D8" unicode="&#x1d8;" horiz-adv-x="570" 
d="M251 605l62 125h65l-68 -125h-59zM146 522v75h78v-75h-78zM342 522v75h78v-75h-78zM65 474h82v-303c0 -79 38 -115 121 -115c59 0 113 23 150 60v358h82v-474h-74l-5 54c-45 -37 -110 -64 -184 -64c-113 0 -172 64 -172 184v300z" />
    <glyph glyph-name="uni01DA" unicode="&#x1da;" horiz-adv-x="570" 
d="M140 723h70l74 -83l75 83h69l-111 -118h-66zM143 522v75h78v-75h-78zM339 522v75h78v-75h-78zM65 474h82v-303c0 -79 38 -115 121 -115c59 0 113 23 150 60v358h82v-474h-74l-5 54c-45 -37 -110 -64 -184 -64c-113 0 -172 64 -172 184v300z" />
    <glyph glyph-name="uni01DC" unicode="&#x1dc;" horiz-adv-x="570" 
d="M256 605l-68 125h65l62 -125h-59zM146 522v75h78v-75h-78zM342 522v75h78v-75h-78zM65 474h82v-303c0 -79 38 -115 121 -115c59 0 113 23 150 60v358h82v-474h-74l-5 54c-45 -37 -110 -64 -184 -64c-113 0 -172 64 -172 184v300z" />
    <glyph glyph-name="uni01D6" unicode="&#x1d6;" horiz-adv-x="570" 
d="M431 738v-59h-288v59h288zM159 540v75h78v-75h-78zM335 540v75h78v-75h-78zM65 474h82v-303c0 -79 38 -115 121 -115c59 0 113 23 150 60v358h82v-474h-74l-5 54c-45 -37 -110 -64 -184 -64c-113 0 -172 64 -172 184v300z" />
    <glyph glyph-name="uni1EE5" unicode="&#x1ee5;" horiz-adv-x="570" 
d="M65 474h82v-303c0 -79 38 -115 121 -115c59 0 113 23 150 60v358h82v-474h-74l-5 54c-45 -37 -110 -64 -184 -64c-113 0 -172 64 -172 184v300zM235 -164v77h80v-77h-80z" />
    <glyph glyph-name="ugrave" unicode="&#xf9;" horiz-adv-x="570" 
d="M258 522l-79 168h74l71 -168h-66zM65 474h82v-303c0 -79 38 -115 121 -115c59 0 113 23 150 60v358h82v-474h-74l-5 54c-45 -37 -110 -64 -184 -64c-113 0 -172 64 -172 184v300z" />
    <glyph glyph-name="uni1EE7" unicode="&#x1ee7;" horiz-adv-x="570" 
d="M402 663c0 -54 -22 -84 -89 -93v-48h-66v83c78 4 93 17 93 52c0 33 -25 45 -78 45c-21 0 -49 -5 -66 -12v51c20 8 56 13 85 13c79 0 121 -34 121 -91zM65 474h82v-303c0 -79 38 -115 121 -115c59 0 113 23 150 60v358h82v-474h-74l-5 54c-45 -37 -110 -64 -184 -64
c-113 0 -172 64 -172 184v300z" />
    <glyph glyph-name="uhorn" unicode="&#x1b0;" horiz-adv-x="683" 
d="M65 474h82v-303c0 -79 38 -115 121 -115c59 0 113 23 150 60v358h82v-59c65 5 82 38 82 121h71c0 -121 -55 -180 -153 -181v-355h-74l-5 54c-45 -37 -110 -64 -184 -64c-113 0 -172 64 -172 184v300z" />
    <glyph glyph-name="uni1EE9" unicode="&#x1ee9;" horiz-adv-x="683" 
d="M256 522l71 168h74l-79 -168h-66zM65 474h82v-303c0 -79 38 -115 121 -115c59 0 113 23 150 60v358h82v-59c65 5 82 38 82 121h71c0 -121 -55 -180 -153 -181v-355h-74l-5 54c-45 -37 -110 -64 -184 -64c-113 0 -172 64 -172 184v300z" />
    <glyph glyph-name="uni1EF1" unicode="&#x1ef1;" horiz-adv-x="683" 
d="M65 474h82v-303c0 -79 38 -115 121 -115c59 0 113 23 150 60v358h82v-59c65 5 82 38 82 121h71c0 -121 -55 -180 -153 -181v-355h-74l-5 54c-45 -37 -110 -64 -184 -64c-113 0 -172 64 -172 184v300zM241 -164v77h80v-77h-80z" />
    <glyph glyph-name="uni1EEB" unicode="&#x1eeb;" horiz-adv-x="683" 
d="M263 522l-79 168h74l71 -168h-66zM65 474h82v-303c0 -79 38 -115 121 -115c59 0 113 23 150 60v358h82v-59c65 5 82 38 82 121h71c0 -121 -55 -180 -153 -181v-355h-74l-5 54c-45 -37 -110 -64 -184 -64c-113 0 -172 64 -172 184v300z" />
    <glyph glyph-name="uni1EED" unicode="&#x1eed;" horiz-adv-x="683" 
d="M409 663c0 -54 -22 -84 -89 -93v-48h-66v83c78 4 93 17 93 52c0 33 -25 45 -78 45c-21 0 -49 -5 -66 -12v51c20 8 56 13 85 13c79 0 121 -34 121 -91zM65 474h82v-303c0 -79 38 -115 121 -115c59 0 113 23 150 60v358h82v-59c65 5 82 38 82 121h71
c0 -121 -55 -180 -153 -181v-355h-74l-5 54c-45 -37 -110 -64 -184 -64c-113 0 -172 64 -172 184v300z" />
    <glyph glyph-name="uni1EEF" unicode="&#x1eef;" horiz-adv-x="683" 
d="M367 541c-52 0 -101 38 -144 38c-32 0 -61 -9 -83 -35v63c16 18 52 30 83 30c55 0 95 -38 144 -38c34 0 59 11 77 36v-64c-13 -18 -43 -30 -77 -30zM65 474h82v-303c0 -79 38 -115 121 -115c59 0 113 23 150 60v358h82v-59c65 5 82 38 82 121h71
c0 -121 -55 -180 -153 -181v-355h-74l-5 54c-45 -37 -110 -64 -184 -64c-113 0 -172 64 -172 184v300z" />
    <glyph glyph-name="uhungarumlaut" unicode="&#x171;" horiz-adv-x="570" 
d="M113 522l71 152h78l-81 -152h-68zM319 522l71 152h78l-81 -152h-68zM65 474h82v-303c0 -79 38 -115 121 -115c59 0 113 23 150 60v358h82v-474h-74l-5 54c-45 -37 -110 -64 -184 -64c-113 0 -172 64 -172 184v300z" />
    <glyph glyph-name="umacron" unicode="&#x16b;" horiz-adv-x="570" 
d="M421 613v-59h-288v59h288zM65 474h82v-303c0 -79 38 -115 121 -115c59 0 113 23 150 60v358h82v-474h-74l-5 54c-45 -37 -110 -64 -184 -64c-113 0 -172 64 -172 184v300z" />
    <glyph glyph-name="uogonek" unicode="&#x173;" horiz-adv-x="570" 
d="M468 -163c17 0 38 4 50 11v-56c-16 -8 -44 -12 -68 -12c-54 0 -99 25 -99 88c0 52 31 102 75 132l-5 54c-45 -37 -110 -64 -184 -64c-113 0 -172 64 -172 184v300h82v-303c0 -79 38 -115 121 -115c59 0 113 23 150 60v358h82v-474h-10c-47 -35 -72 -77 -72 -120
c0 -34 17 -43 50 -43z" />
    <glyph glyph-name="uring" unicode="&#x16f;" horiz-adv-x="570" 
d="M163 629c0 60 45 108 109 108c66 0 111 -48 111 -108s-45 -107 -111 -107c-64 0 -109 47 -109 107zM211 629c0 -34 26 -61 61 -61c37 0 62 27 62 61s-25 61 -62 61c-35 0 -61 -27 -61 -61zM65 474h82v-303c0 -79 38 -115 121 -115c59 0 113 23 150 60v358h82v-474h-74
l-5 54c-45 -37 -110 -64 -184 -64c-113 0 -172 64 -172 184v300z" />
    <glyph glyph-name="utilde" unicode="&#x169;" horiz-adv-x="570" 
d="M354 542c-52 0 -101 38 -144 38c-32 0 -61 -9 -83 -35v63c16 18 52 30 83 30c55 0 95 -38 144 -38c34 0 59 11 77 36v-64c-13 -18 -43 -30 -77 -30zM65 474h82v-303c0 -79 38 -115 121 -115c59 0 113 23 150 60v358h82v-474h-74l-5 54c-45 -37 -110 -64 -184 -64
c-113 0 -172 64 -172 184v300z" />
    <glyph glyph-name="v" unicode="v" horiz-adv-x="564" 
d="M236 0l-186 474h85l147 -398l147 398h85l-186 -474h-92z" />
    <glyph glyph-name="w" unicode="w" horiz-adv-x="736" 
d="M480 0l-111 344l-113 -344h-82l-124 474h82l93 -381l106 326v55h63l117 -381l93 381h82l-124 -474h-82z" />
    <glyph glyph-name="wacute" unicode="&#x1e83;" horiz-adv-x="736" 
d="M329 522l71 168h74l-79 -168h-66zM480 0l-111 344l-113 -344h-82l-124 474h82l93 -381l106 326v55h63l117 -381l93 381h82l-124 -474h-82z" />
    <glyph glyph-name="wcircumflex" unicode="&#x175;" horiz-adv-x="736" 
d="M517 522h-71l-77 102l-77 -102h-71l115 148h66zM480 0l-111 344l-113 -344h-82l-124 474h82l93 -381l106 326v55h63l117 -381l93 381h82l-124 -474h-82z" />
    <glyph glyph-name="wdieresis" unicode="&#x1e85;" horiz-adv-x="736" 
d="M242 542v75h78v-75h-78zM418 542v75h78v-75h-78zM480 0l-111 344l-113 -344h-82l-124 474h82l93 -381l106 326v55h63l117 -381l93 381h82l-124 -474h-82z" />
    <glyph glyph-name="wgrave" unicode="&#x1e81;" horiz-adv-x="736" 
d="M327 522l-79 168h74l71 -168h-66zM480 0l-111 344l-113 -344h-82l-124 474h82l93 -381l106 326v55h63l117 -381l93 381h82l-124 -474h-82z" />
    <glyph glyph-name="x" unicode="x" horiz-adv-x="549" 
d="M410 0l-136 185l-135 -185h-89l180 241l-174 233h89l129 -177l130 177h88l-172 -233l179 -241h-89z" />
    <glyph glyph-name="y" unicode="y" horiz-adv-x="584" 
d="M50 474h85l165 -382l170 382h84l-199 -453c-50 -115 -95 -197 -196 -197c-32 0 -58 4 -82 13v66c22 -8 41 -10 61 -10c67 0 85 34 121 112z" />
    <glyph glyph-name="yacute" unicode="&#xfd;" horiz-adv-x="584" 
d="M258 522l71 168h74l-79 -168h-66zM50 474h85l165 -382l170 382h84l-199 -453c-50 -115 -95 -197 -196 -197c-32 0 -58 4 -82 13v66c22 -8 41 -10 61 -10c67 0 85 34 121 112z" />
    <glyph glyph-name="ycircumflex" unicode="&#x177;" horiz-adv-x="584" 
d="M450 522h-71l-77 102l-77 -102h-71l115 148h66zM50 474h85l165 -382l170 382h84l-199 -453c-50 -115 -95 -197 -196 -197c-32 0 -58 4 -82 13v66c22 -8 41 -10 61 -10c67 0 85 34 121 112z" />
    <glyph glyph-name="ydieresis" unicode="&#xff;" horiz-adv-x="584" 
d="M178 552v75h78v-75h-78zM354 552v75h78v-75h-78zM50 474h85l165 -382l170 382h84l-199 -453c-50 -115 -95 -197 -196 -197c-32 0 -58 4 -82 13v66c22 -8 41 -10 61 -10c67 0 85 34 121 112z" />
    <glyph glyph-name="uni1E8F" unicode="&#x1e8f;" horiz-adv-x="584" 
d="M260 544v77h80v-77h-80zM50 474h85l165 -382l170 382h84l-199 -453c-50 -115 -95 -197 -196 -197c-32 0 -58 4 -82 13v66c22 -8 41 -10 61 -10c67 0 85 34 121 112z" />
    <glyph glyph-name="uni1EF5" unicode="&#x1ef5;" horiz-adv-x="584" 
d="M50 474h85l165 -382l170 382h84l-199 -453c-50 -115 -95 -197 -196 -197c-32 0 -58 4 -82 13v66c22 -8 41 -10 61 -10c67 0 85 34 121 112zM389 -149v77h80v-77h-80z" />
    <glyph glyph-name="ygrave" unicode="&#x1ef3;" horiz-adv-x="584" 
d="M274 522l-79 168h74l71 -168h-66zM50 474h85l165 -382l170 382h84l-199 -453c-50 -115 -95 -197 -196 -197c-32 0 -58 4 -82 13v66c22 -8 41 -10 61 -10c67 0 85 34 121 112z" />
    <glyph glyph-name="uni1EF7" unicode="&#x1ef7;" horiz-adv-x="584" 
d="M424 663c0 -54 -22 -84 -89 -93v-48h-66v83c78 4 93 17 93 52c0 33 -25 45 -78 45c-21 0 -49 -5 -66 -12v51c20 8 56 13 85 13c79 0 121 -34 121 -91zM50 474h85l165 -382l170 382h84l-199 -453c-50 -115 -95 -197 -196 -197c-32 0 -58 4 -82 13v66c22 -8 41 -10 61 -10
c67 0 85 34 121 112z" />
    <glyph glyph-name="uni1EF9" unicode="&#x1ef9;" horiz-adv-x="584" 
d="M375 542c-52 0 -101 38 -144 38c-32 0 -61 -9 -83 -35v63c16 18 52 30 83 30c55 0 95 -38 144 -38c34 0 59 11 77 36v-64c-13 -18 -43 -30 -77 -30zM50 474h85l165 -382l170 382h84l-199 -453c-50 -115 -95 -197 -196 -197c-32 0 -58 4 -82 13v66c22 -8 41 -10 61 -10
c67 0 85 34 121 112z" />
    <glyph glyph-name="z" unicode="z" horiz-adv-x="485" 
d="M50 0v45l279 364h-266v65h365v-51l-275 -359h282v-64h-385z" />
    <glyph glyph-name="zacute" unicode="&#x17a;" horiz-adv-x="485" 
d="M206 522l71 168h74l-79 -168h-66zM50 0v45l279 364h-266v65h365v-51l-275 -359h282v-64h-385z" />
    <glyph glyph-name="zcaron" unicode="&#x17e;" horiz-adv-x="485" 
d="M265 522h-66l-115 148h71l77 -102l77 102h71zM50 0v45l279 364h-266v65h365v-51l-275 -359h282v-64h-385z" />
    <glyph glyph-name="zdotaccent" unicode="&#x17c;" horiz-adv-x="485" 
d="M202 544v77h80v-77h-80zM50 0v45l279 364h-266v65h365v-51l-275 -359h282v-64h-385z" />
    <glyph glyph-name="uni1E93" unicode="&#x1e93;" horiz-adv-x="485" 
d="M50 0v45l279 364h-266v65h365v-51l-275 -359h282v-64h-385zM200 -164v77h80v-77h-80z" />
    <glyph glyph-name="ordfeminine" unicode="&#xaa;" horiz-adv-x="347" 
d="M248 386l-4 29c-25 -24 -54 -35 -99 -35c-52 0 -95 23 -95 78c0 56 34 86 105 86h87v12c0 39 -13 53 -75 53c-28 0 -57 -5 -83 -14v44c24 9 59 15 95 15c73 0 118 -29 118 -97v-171h-49zM242 504h-79c-44 0 -60 -11 -60 -44c0 -29 21 -39 57 -39s61 11 82 38v45z" />
    <glyph glyph-name="ordmasculine" unicode="&#xba;" horiz-adv-x="365" 
d="M182 654c89 0 133 -48 133 -137c0 -90 -43 -137 -133 -137s-132 47 -132 137c0 89 44 137 132 137zM182 424c57 0 77 32 77 93c0 60 -20 92 -77 92c-56 0 -77 -32 -77 -92c0 -61 20 -93 77 -93z" />
    <glyph glyph-name="uni207F" unicode="&#x207f;" horiz-adv-x="362" 
d="M312 386h-55v161c0 47 -14 62 -63 62c-32 0 -63 -15 -83 -35v-188h-56v262h52l2 -29c28 21 59 34 105 34c60 0 98 -30 98 -94v-173z" />
    <glyph glyph-name="uni0394" unicode="&#x394;" horiz-adv-x="654" 
d="M50 47l235 597h82l237 -598v-46h-554v47zM326 561l-196 -497h391z" />
    <glyph glyph-name="uni03A9" unicode="&#x3a9;" horiz-adv-x="769" 
d="M385 625c-151 0 -253 -107 -253 -262c0 -127 62 -229 189 -298v-65h-264v64h159c-98 61 -166 160 -166 299c0 190 125 332 335 332c209 0 334 -142 334 -332c0 -139 -66 -239 -165 -299h158v-64h-263v65c127 69 188 171 188 298c0 155 -101 262 -252 262z" />
    <glyph glyph-name="uni03BC" unicode="&#x3bc;" horiz-adv-x="575" 
d="M70 474h82v-303c0 -79 38 -115 121 -115c59 0 113 23 150 60v358h82v-474h-74l-5 54c-45 -37 -110 -64 -184 -64c-36 0 -68 9 -90 22v-155h-82v617z" />
    <glyph glyph-name="pi" unicode="&#x3c0;" horiz-adv-x="668" 
d="M556 474v-64h-68v-274c0 -58 22 -77 83 -77c17 0 35 3 57 10v-65c-25 -9 -52 -14 -86 -14c-88 0 -136 58 -136 147v273h-216v-410h-82v410h-68v64h516z" />
    <glyph glyph-name="uni0E01" unicode="&#xe01;" horiz-adv-x="608" 
d="M239 312c-51 -13 -75 -39 -75 -95v-217h-82v219c0 55 23 100 81 117l-113 26v96c50 47 136 92 251 92c157 0 237 -64 237 -206v-344h-82v347c0 100 -42 133 -155 133c-75 0 -144 -22 -179 -57v-21l117 -28v-62z" />
    <glyph glyph-name="uni0E16" unicode="&#xe16;" horiz-adv-x="608" 
d="M164 116c0 -34 15 -49 47 -49h57v-67h-94c-58 0 -92 39 -92 96v123c0 55 23 100 81 117l-113 26v96c50 47 136 92 251 92c157 0 237 -64 237 -206v-344h-82v347c0 100 -42 133 -155 133c-75 0 -144 -22 -179 -57v-21l117 -28v-62c-51 -13 -75 -39 -75 -95v-101z" />
    <glyph glyph-name="uni0E20" unicode="&#xe20;" horiz-adv-x="642" 
d="M279 374v-62c-50 -15 -64 -37 -64 -95v-107c0 -74 -36 -110 -103 -110h-62v67h40c30 0 43 14 43 48v104c0 55 14 98 70 117l-119 26v96c50 47 136 92 251 92c157 0 237 -64 237 -206v-344h-82v347c0 100 -42 133 -155 133c-75 0 -144 -22 -179 -57v-21z" />
    <glyph glyph-name="uni0E24" unicode="&#xe24;" horiz-adv-x="608" 
d="M164 116c0 -34 15 -49 47 -49h57v-67h-94c-58 0 -92 39 -92 96v123c0 55 23 100 81 117l-113 26v96c50 47 136 92 251 92c157 0 237 -64 237 -206v-504h-82v507c0 100 -42 133 -155 133c-75 0 -144 -22 -179 -57v-21l117 -28v-62c-51 -13 -75 -39 -75 -95v-101z" />
    <glyph glyph-name="uni0E24.short" horiz-adv-x="608" 
d="M164 116c0 -34 15 -49 47 -49h57v-67h-94c-58 0 -92 39 -92 96v123c0 55 23 100 81 117l-113 26v96c50 47 136 92 251 92c157 0 237 -64 237 -206v-454h-82v457c0 100 -42 133 -155 133c-75 0 -144 -22 -179 -57v-21l117 -28v-62c-51 -13 -75 -39 -75 -95v-101z" />
    <glyph glyph-name="uni0E26" unicode="&#xe26;" horiz-adv-x="642" 
d="M279 374v-62c-50 -15 -64 -37 -64 -95v-107c0 -74 -36 -110 -103 -110h-62v67h40c30 0 43 14 43 48v104c0 55 14 98 70 117l-119 26v96c50 47 136 92 251 92c157 0 237 -64 237 -206v-504h-82v507c0 100 -42 133 -155 133c-75 0 -144 -22 -179 -57v-21z" />
    <glyph glyph-name="uni0E26.short" horiz-adv-x="642" 
d="M279 374v-62c-50 -15 -64 -37 -64 -95v-107c0 -74 -36 -110 -103 -110h-62v67h40c30 0 43 14 43 48v104c0 55 14 98 70 117l-119 26v96c50 47 136 92 251 92c157 0 237 -64 237 -206v-454h-82v457c0 100 -42 133 -155 133c-75 0 -144 -22 -179 -57v-21z" />
    <glyph glyph-name="uni0E0E" unicode="&#xe0e;" horiz-adv-x="642" 
d="M491 -194c-45 24 -90 36 -154 36c-59 0 -113 -13 -164 -38v70c51 25 105 38 169 38c61 0 113 -13 148 -33v468c0 100 -42 133 -155 133c-75 0 -144 -22 -179 -57v-21l123 -28v-62c-50 -15 -64 -37 -64 -95v-107c0 -74 -36 -110 -103 -110h-62v67h40c30 0 43 14 43 48v104
c0 55 14 98 70 117l-119 26v96c50 47 136 92 251 92c157 0 237 -64 237 -206v-538h-81z" />
    <glyph glyph-name="doChadathai.short" horiz-adv-x="642" 
d="M491 -124c-45 24 -90 36 -154 36c-59 0 -113 -13 -164 -38v70c51 25 105 38 169 38c61 0 113 -13 148 -33v398c0 100 -42 133 -155 133c-75 0 -144 -22 -179 -57v-21l123 -28v-62c-50 -15 -64 -37 -64 -95v-107c0 -74 -36 -110 -103 -110h-62v67h40c30 0 43 14 43 48v104
c0 55 14 98 70 117l-119 26v96c50 47 136 92 251 92c157 0 237 -64 237 -206v-468h-81z" />
    <glyph glyph-name="uni0E0F" unicode="&#xe0f;" horiz-adv-x="642" 
d="M572 -64c0 -85 -51 -131 -135 -131c-47 0 -87 19 -106 45c-14 -26 -43 -44 -91 -44h-90l5 72h69c39 0 60 11 77 43h56c14 -29 35 -46 72 -46c46 0 61 22 61 71v401c0 100 -42 133 -155 133c-75 0 -144 -22 -179 -57v-21l123 -28v-62c-50 -15 -64 -37 -64 -95v-107
c0 -74 -36 -110 -103 -110h-62v67h40c30 0 43 14 43 48v104c0 55 14 98 70 117l-119 26v96c50 47 136 92 251 92c157 0 237 -64 237 -206v-408z" />
    <glyph glyph-name="toPatakthai.short" horiz-adv-x="642" 
d="M572 7c0 -85 -51 -131 -135 -131c-47 0 -87 19 -106 45c-14 -26 -43 -44 -91 -44h-90l5 72h69c39 0 60 11 77 43h56c14 -29 35 -46 72 -46c46 0 61 22 61 71v330c0 100 -42 133 -155 133c-75 0 -144 -22 -179 -57v-21l123 -28v-62c-50 -15 -64 -37 -64 -95v-107
c0 -74 -36 -110 -103 -110h-62v67h40c30 0 43 14 43 48v104c0 55 14 98 70 117l-119 26v96c50 47 136 92 251 92c157 0 237 -64 237 -206v-337z" />
    <glyph glyph-name="uni0E0D" unicode="&#xe0d;" horiz-adv-x="967" 
d="M525 298c0 -98 45 -138 145 -138s145 40 145 138v242h82v-236c0 -56 -12 -96 -35 -129c23 -22 35 -50 35 -89c0 -89 -76 -136 -226 -136c-70 0 -144 13 -196 42v71c54 -30 137 -43 196 -43c104 0 150 27 150 66c0 14 -3 27 -12 39c-36 -22 -80 -35 -139 -35
c-152 0 -226 72 -226 214v43c0 100 -39 133 -149 133c-72 0 -138 -22 -173 -57v-21l117 -28v-62c-51 -13 -75 -39 -75 -95v-101c0 -34 15 -49 47 -49h57v-67h-94c-58 0 -92 39 -92 96v123c0 55 23 100 81 117l-113 26v96c50 47 133 92 245 92c154 0 230 -64 230 -206v-46z
" />
    <glyph glyph-name="yoYingthai.less" horiz-adv-x="967" 
d="M525 198c0 -98 45 -138 145 -138s145 40 145 138v342h82v-336c0 -142 -75 -214 -227 -214s-226 72 -226 214v143c0 100 -39 133 -149 133c-72 0 -138 -22 -173 -57v-21l117 -28v-62c-51 -13 -75 -39 -75 -95v-101c0 -34 15 -49 47 -49h57v-67h-94c-58 0 -92 39 -92 96
v123c0 55 23 100 81 117l-113 26v96c50 47 133 92 245 92c154 0 230 -64 230 -206v-146z" />
    <glyph glyph-name="uni0E02" unicode="&#xe02;" horiz-adv-x="571" 
d="M61 258c0 79 94 144 94 192c0 22 -9 26 -33 26h-72l7 64h111c46 0 69 -24 69 -68c0 -90 -94 -139 -94 -217v-79c0 -83 53 -116 137 -116c85 0 139 33 139 118v362h82v-354c0 -126 -83 -196 -221 -196c-142 0 -219 69 -219 195v73z" />
    <glyph glyph-name="uni0E03" unicode="&#xe03;" horiz-adv-x="563" 
d="M62 239c0 80 116 163 116 214c0 18 -9 25 -24 25s-30 -8 -41 -19v-39h-63v120h63v-28c16 15 38 28 72 28c44 0 72 -25 72 -71c0 -85 -113 -151 -113 -232v-61c0 -83 48 -116 133 -116s134 33 134 118v362h82v-354c0 -126 -78 -196 -216 -196c-142 0 -215 66 -215 191v58z
" />
    <glyph glyph-name="uni0E0A" unicode="&#xe0a;" horiz-adv-x="571" 
d="M501 186c0 -126 -83 -196 -221 -196c-142 0 -219 69 -219 195v73c0 79 94 144 94 192c0 22 -9 26 -33 26h-72l7 64h111c46 0 69 -24 69 -68c0 -90 -94 -139 -94 -217v-79c0 -83 53 -116 137 -116c85 0 139 33 139 118v69c0 74 -20 97 -84 97h-28l4 65h22
c68 0 86 31 86 97v44h82v-43c0 -65 -13 -109 -74 -130c65 -24 74 -68 74 -132v-59z" />
    <glyph glyph-name="uni0E0B" unicode="&#xe0b;" horiz-adv-x="572" 
d="M62 239c0 80 116 163 116 214c0 18 -9 25 -24 25s-30 -8 -41 -19v-39h-63v120h63v-28c16 15 38 28 72 28c44 0 72 -25 72 -71c0 -85 -113 -151 -113 -232v-61c0 -83 53 -116 137 -116c85 0 139 33 139 118v69c0 74 -20 97 -84 97h-28l4 65h22c68 0 86 31 86 97v44h82v-43
c0 -65 -13 -109 -74 -130c65 -24 74 -68 74 -132v-59c0 -126 -83 -196 -221 -196c-142 0 -219 69 -219 195v54z" />
    <glyph glyph-name="uni0E04" unicode="&#xe04;" horiz-adv-x="606" 
d="M304 480c-100 0 -152 -35 -152 -121v-125c31 27 72 41 116 41h66l4 -67h-72c-45 0 -82 -12 -114 -39v-169h-82v350c0 128 73 200 234 200s232 -72 232 -200v-350h-82v359c0 86 -53 121 -150 121z" />
    <glyph glyph-name="uni0E05" unicode="&#xe05;" horiz-adv-x="606" 
d="M152 234c31 27 72 41 116 41h66l4 -67h-72c-45 0 -82 -12 -114 -39v-169h-82v404c0 101 48 146 126 146c42 0 81 -16 108 -53c26 37 72 53 114 53c91 0 118 -45 118 -147v-403h-82v414c0 39 -8 66 -49 66c-32 0 -57 -17 -77 -47h-50c-15 29 -33 47 -62 47
c-46 0 -64 -27 -64 -67v-179z" />
    <glyph glyph-name="uni0E28" unicode="&#xe28;" horiz-adv-x="626" 
d="M304 480c-100 0 -152 -35 -152 -121v-125c31 27 72 41 116 41h66l4 -67h-72c-45 0 -82 -12 -114 -39v-169h-82v350c0 128 73 200 234 200c35 0 65 -4 92 -10h190l-4 -67h-83c26 -32 37 -73 37 -123v-350h-82v359c0 86 -53 121 -150 121z" />
    <glyph glyph-name="uni0E14" unicode="&#xe14;" horiz-adv-x="637" 
d="M320 550c176 0 247 -103 247 -215v-335h-82v334c0 84 -43 146 -167 146c-134 0 -186 -78 -186 -215c0 -152 51 -205 148 -205c25 0 51 2 69 8v-68c-23 -7 -47 -10 -83 -10c-124 0 -216 83 -216 275c0 176 86 285 270 285z" />
    <glyph glyph-name="uni0E15" unicode="&#xe15;" horiz-adv-x="637" 
d="M485 405c0 56 -13 75 -60 75c-30 0 -57 -13 -71 -47h-55c-19 34 -35 47 -71 47c-76 0 -96 -85 -96 -215c0 -152 51 -205 148 -205c25 0 51 2 69 8v-68c-23 -7 -47 -10 -83 -10c-124 0 -216 83 -216 275c0 183 60 285 168 285c53 0 83 -20 109 -53c29 33 76 53 121 53
c78 0 119 -47 119 -134v-416h-82v405z" />
    <glyph glyph-name="uni0E17" unicode="&#xe17;" horiz-adv-x="597" 
d="M527 0h-82v356c0 88 -41 124 -127 124c-69 0 -125 -32 -166 -75v-405h-82v540h74l5 -65c50 45 111 75 198 75c114 0 180 -69 180 -193v-357z" />
    <glyph glyph-name="uni0E11" unicode="&#xe11;" horiz-adv-x="595" 
d="M155 478c-16 0 -31 -8 -42 -19v-39h-63v120h63v-28c16 15 38 28 72 28c26 0 46 -10 57 -30c33 24 76 40 124 40c115 0 159 -61 159 -186v-364h-82v365c0 83 -19 115 -99 115c-31 0 -69 -14 -92 -35c0 -73 -81 -134 -81 -220v-225h-82v230c0 80 90 166 90 222
c0 18 -8 26 -24 26z" />
    <glyph glyph-name="uni0E19" unicode="&#xe19;" horiz-adv-x="597" 
d="M70 540h82v-355c0 -89 38 -125 125 -125c68 0 127 31 168 74v406h82v-540h-74l-5 65c-50 -45 -112 -75 -198 -75c-116 0 -180 68 -180 194v356z" />
    <glyph glyph-name="uni0E21" unicode="&#xe21;" horiz-adv-x="597" 
d="M527 184c0 -126 -67 -194 -182 -194c-88 0 -146 30 -196 75l-5 -65h-74v540h82v-406c41 -43 97 -74 166 -74c86 0 127 35 127 125v355h82v-356z" />
    <glyph glyph-name="uni0E0C" unicode="&#xe0c;" horiz-adv-x="958" 
d="M525 134c41 -43 94 -74 160 -74c83 0 121 35 121 125v355h82v-356c0 -126 -64 -194 -176 -194c-85 0 -140 30 -190 75l-5 -65h-73v347c0 100 -39 133 -149 133c-72 0 -138 -22 -173 -57v-21l117 -28v-62c-51 -13 -75 -39 -75 -95v-101c0 -34 15 -49 47 -49h57v-67h-94
c-58 0 -92 39 -92 96v123c0 55 23 100 81 117l-113 26v96c50 47 133 92 245 92c154 0 230 -64 230 -206v-210z" />
    <glyph glyph-name="uni0E13" unicode="&#xe13;" horiz-adv-x="958" 
d="M525 185c0 -90 38 -125 121 -125c66 0 119 31 160 74v406h82v-540h-74l-5 65c-50 -45 -105 -75 -190 -75c-112 0 -175 68 -175 194v163c0 100 -39 133 -149 133c-72 0 -138 -22 -173 -57v-21l117 -28v-62c-51 -13 -75 -39 -75 -95v-101c0 -34 15 -49 47 -49h57v-67h-94
c-58 0 -92 39 -92 96v123c0 55 23 100 81 117l-113 26v96c50 47 133 92 245 92c154 0 230 -64 230 -206v-159z" />
    <glyph glyph-name="uni0E12" unicode="&#xe12;" horiz-adv-x="989" 
d="M556 134c41 -43 94 -74 160 -74c83 0 121 35 121 125v355h82v-356c0 -126 -64 -194 -176 -194c-85 0 -140 30 -190 75l-5 -65h-73v405c0 56 -11 75 -58 75c-30 0 -55 -13 -69 -47h-55c-19 34 -33 47 -69 47c-72 0 -92 -85 -92 -215c0 -152 51 -205 148 -205
c25 0 51 2 69 8v-68c-23 -7 -47 -10 -83 -10c-124 0 -216 83 -216 275c0 183 60 285 164 285c53 0 81 -20 107 -53c29 33 74 53 119 53c78 0 116 -47 116 -134v-282z" />
    <glyph glyph-name="uni0E06" unicode="&#xe06;" horiz-adv-x="589" 
d="M62 226c0 80 116 176 116 227c0 18 -9 25 -24 25s-30 -8 -41 -19v-39h-63v120h63v-28c16 15 38 28 72 28c44 0 72 -25 72 -71c0 -85 -113 -164 -113 -245v-90c41 -43 97 -74 166 -74c86 0 127 35 127 125v355h82v-356c0 -126 -67 -194 -182 -194c-88 0 -146 30 -196 75
l-5 -65h-74v226z" />
    <glyph glyph-name="uni0E18" unicode="&#xe18;" horiz-adv-x="531" 
d="M263 60c88 0 136 21 136 95c0 88 -54 97 -166 122c-90 20 -183 41 -183 139c0 94 83 134 223 134c67 0 142 -12 181 -26v-72c-44 16 -112 28 -170 28c-85 0 -156 -6 -156 -62c0 -60 73 -62 174 -88c103 -27 179 -53 179 -175c0 -113 -84 -165 -212 -165
c-84 0 -160 18 -209 38v205h76v-152c35 -13 82 -21 127 -21z" />
    <glyph glyph-name="uni0E23" unicode="&#xe23;" horiz-adv-x="505" 
d="M373 138c0 69 -58 77 -153 109c-89 30 -170 63 -170 157s70 146 209 146c59 0 120 -11 159 -24v-72c-44 17 -98 26 -147 26c-91 0 -139 -14 -139 -74c0 -59 57 -74 155 -105c98 -32 168 -67 168 -162c0 -108 -86 -149 -214 -149c-67 0 -135 9 -177 26v73
c51 -20 111 -29 163 -29c97 0 146 12 146 78z" />
    <glyph glyph-name="uni0E08" unicode="&#xe08;" horiz-adv-x="569" 
d="M230 480c-54 0 -116 -8 -170 -26v68c51 17 119 28 192 28c185 0 267 -98 267 -274c0 -188 -114 -286 -245 -286c-23 0 -58 4 -76 11l-84 224h-64l4 67h113l87 -232c94 -8 183 49 183 216c0 150 -54 204 -207 204z" />
    <glyph glyph-name="uni0E27" unicode="&#xe27;" horiz-adv-x="504" 
d="M50 87c39 -16 86 -27 132 -27c147 0 190 60 190 210c0 149 -53 210 -193 210c-47 0 -89 -10 -129 -28v70c41 18 85 28 146 28c174 0 258 -96 258 -280c0 -179 -71 -280 -253 -280c-58 0 -109 10 -151 28v69z" />
    <glyph glyph-name="uni0E07" unicode="&#xe07;" horiz-adv-x="551" 
d="M242 473v67h44c153 0 215 -81 215 -251c0 -213 -103 -299 -236 -299c-26 0 -64 2 -88 11l-152 370h80l128 -311c127 -9 186 64 186 228c0 140 -33 185 -142 185h-35z" />
    <glyph glyph-name="uni0E10" unicode="&#xe10;" horiz-adv-x="612" 
d="M456 473c46 -49 63 -113 63 -197c0 -188 -114 -286 -245 -286c-23 0 -58 4 -76 11l-84 224h-64l4 67h113l87 -232c94 -8 183 49 183 216c0 150 -54 204 -207 204c-54 0 -116 -8 -170 -26v68c51 17 119 28 192 28c34 0 65 -4 92 -10h218l-4 -67h-102zM418 -64
c0 -39 -15 -61 -61 -61c-37 0 -58 17 -72 46h-56c-17 -32 -38 -43 -77 -43h-69l-5 -72h90c48 0 77 18 91 44c19 -26 59 -45 106 -45c84 0 135 46 135 121v34h-82v-24z" />
    <glyph glyph-name="thoThanthai.less" horiz-adv-x="612" 
d="M456 473c46 -49 63 -113 63 -197c0 -188 -114 -286 -245 -286c-23 0 -58 4 -76 11l-84 224h-64l4 67h113l87 -232c94 -8 183 49 183 216c0 150 -54 204 -207 204c-54 0 -116 -8 -170 -26v68c51 17 119 28 192 28c34 0 65 -4 92 -10h218l-4 -67h-102z" />
    <glyph glyph-name="uni0E09" unicode="&#xe09;" horiz-adv-x="575" 
d="M505 0h-74l-5 65c-48 -44 -107 -75 -197 -75c-113 0 -172 63 -172 188v122h82v-122c0 -86 23 -118 119 -118c66 0 123 29 165 74v208c0 105 -44 138 -180 138c-56 0 -138 -12 -193 -30v68c55 19 138 32 214 32c165 0 241 -67 241 -209v-341z" />
    <glyph glyph-name="uni0E25" unicode="&#xe25;" horiz-adv-x="586" 
d="M282 480c-60 0 -118 -8 -173 -26v68c50 17 120 28 188 28c152 0 219 -61 219 -198v-352h-82v248h-172c-91 0 -132 -28 -132 -97c0 -68 37 -91 122 -91c24 0 50 3 68 8v-68c-23 -6 -54 -10 -90 -10c-102 0 -180 46 -180 161c0 101 67 165 207 165h177v42
c0 91 -35 122 -152 122z" />
    <glyph glyph-name="uni0E2A" unicode="&#xe2a;" horiz-adv-x="591" 
d="M485 473c23 -31 31 -71 31 -121v-352h-82v248h-172c-91 0 -132 -28 -132 -97c0 -68 37 -91 122 -91c24 0 50 3 68 8v-68c-23 -6 -54 -10 -90 -10c-102 0 -180 46 -180 161c0 101 67 165 207 165h177v42c0 91 -35 122 -152 122c-60 0 -118 -8 -173 -26v68
c50 17 120 28 188 28c35 0 65 -4 92 -10h172l-4 -67h-72z" />
    <glyph glyph-name="uni0E1A" unicode="&#xe1a;" horiz-adv-x="614" 
d="M307 60c100 0 155 40 155 138v342h82v-336c0 -142 -85 -214 -237 -214s-237 72 -237 214v336h82v-342c0 -98 55 -138 155 -138z" />
    <glyph glyph-name="uni0E1B" unicode="&#xe1b;" horiz-adv-x="614" 
d="M307 60c100 0 155 40 155 138v502h82v-496c0 -142 -85 -214 -237 -214s-237 72 -237 214v336h82v-342c0 -98 55 -138 155 -138z" />
    <glyph glyph-name="uni0E29" unicode="&#xe29;" horiz-adv-x="631" 
d="M307 60c100 0 155 40 155 138v80h-143v67h143v195h82v-195h62l-7 -67h-55v-74c0 -142 -85 -214 -237 -214s-237 72 -237 214v336h82v-342c0 -98 55 -138 155 -138z" />
    <glyph glyph-name="uni0E22" unicode="&#xe22;" horiz-adv-x="591" 
d="M228 480c-59 0 -93 -25 -93 -81c0 -59 42 -85 105 -85h57l5 -62h-65c-71 0 -105 -35 -105 -98c0 -64 49 -94 153 -94c103 0 154 37 154 124v356h82v-342c0 -135 -72 -208 -233 -208c-145 0 -238 51 -238 164c0 62 30 106 82 128c-45 14 -79 53 -79 117
c0 101 67 151 160 151c36 0 61 -4 83 -11v-68c-18 6 -43 9 -68 9z" />
    <glyph glyph-name="uni0E1C" unicode="&#xe1c;" horiz-adv-x="642" 
d="M70 441c0 56 37 99 95 99h86l3 -68h-53c-36 0 -50 -15 -50 -53v-305l151 261h39l151 -261v426h80v-540h-84l-166 291l-168 -291h-84v441z" />
    <glyph glyph-name="uni0E1D" unicode="&#xe1d;" horiz-adv-x="642" 
d="M70 441c0 56 37 99 95 99h86l3 -68h-53c-36 0 -50 -15 -50 -53v-305l151 261h39l151 -261v586h80v-700h-84l-166 291l-168 -291h-84v441z" />
    <glyph glyph-name="uni0E1F" unicode="&#xe1f;" horiz-adv-x="721" 
d="M365 380l-120 -380h-81l-124 540h84l89 -425l114 357v68h61l122 -425l123 585h83l-158 -700h-82z" />
    <glyph glyph-name="uni0E1E" unicode="&#xe1e;" horiz-adv-x="721" 
d="M365 380l-120 -380h-81l-124 540h84l89 -425l114 357v68h61l122 -425l88 425h83l-123 -540h-82z" />
    <glyph glyph-name="uni0E2B" unicode="&#xe2b;" horiz-adv-x="593" 
d="M152 540v-175h179c88 0 116 38 116 109v66h82v-65c0 -68 -22 -122 -86 -142c67 -22 80 -72 80 -136v-197h-82v187c0 85 -27 111 -115 111h-174v-298h-82v540h82z" />
    <glyph glyph-name="uni0E2C" unicode="&#xe2c;" horiz-adv-x="721" 
d="M558 0h-82l-111 345l-120 -345h-81l-124 540h84l92 -425l111 317v68h61l119 -385l73 329c14 66 -1 88 -51 88h-40l10 65h42c54 0 75 15 86 63l9 40h80l-11 -49c-13 -57 -38 -82 -78 -90c35 -17 45 -55 32 -112z" />
    <glyph glyph-name="loChulathai.short" horiz-adv-x="721" 
d="M558 0h-82l-111 252l-120 -252h-81l-124 540h84l92 -440l111 224v68h61l119 -292l53 258c14 66 -1 88 -51 88h-40l10 65h42c54 0 75 15 86 63l9 41h80l-11 -50c-13 -57 -38 -82 -78 -90c35 -17 45 -55 32 -112z" />
    <glyph glyph-name="uni0E2D" unicode="&#xe2d;" horiz-adv-x="564" 
d="M233 480c-57 0 -120 -8 -175 -26v68c53 18 125 28 196 28c184 0 260 -94 260 -281c0 -183 -77 -279 -257 -279c-83 0 -158 18 -207 38v272h198l4 -67h-120v-153c35 -12 80 -20 123 -20c129 0 177 54 177 209c0 160 -50 211 -199 211z" />
    <glyph glyph-name="uni0E2E" unicode="&#xe2e;" horiz-adv-x="596" 
d="M455 473c41 -47 59 -115 59 -204c0 -183 -77 -279 -257 -279c-83 0 -158 18 -207 38v272h198l4 -67h-120v-153c35 -12 80 -20 123 -20c129 0 177 54 177 209c0 160 -50 211 -199 211c-57 0 -120 -8 -175 -26v68c53 18 125 28 196 28c34 0 65 -4 92 -10h200l-4 -67h-87z
" />
    <glyph glyph-name="uni0E32" unicode="&#xe32;" horiz-adv-x="439" 
d="M287 0v349c0 89 -17 131 -129 131c-43 0 -97 -10 -138 -26v68c40 16 98 28 153 28c137 0 196 -57 196 -192v-358h-82z" />
    <glyph glyph-name="uni0E33" unicode="&#xe33;" horiz-adv-x="439" 
d="M-217 711c0 58 47 102 105 102s104 -44 104 -102s-46 -101 -104 -101s-105 43 -105 101zM-162 711c0 -26 22 -49 50 -49c27 0 49 23 49 49c0 27 -22 50 -49 50c-28 0 -50 -23 -50 -50zM287 0v349c0 89 -17 131 -129 131c-43 0 -97 -10 -138 -26v68c40 16 98 28 153 28
c137 0 196 -57 196 -192v-358h-82z" />
    <glyph glyph-name="uni0E45" unicode="&#xe45;" horiz-adv-x="439" 
d="M287 -160v509c0 89 -17 131 -129 131c-43 0 -97 -10 -138 -26v68c40 16 98 28 153 28c137 0 196 -57 196 -192v-518h-82z" />
    <glyph glyph-name="uni0E30" unicode="&#xe30;" horiz-adv-x="326" 
d="M50 452h71v-49h155l-3 -63h-223v112zM50 176h71v-50h155l-3 -62h-223v112z" />
    <glyph glyph-name="uni0E40" unicode="&#xe40;" horiz-adv-x="306" 
d="M70 540h82v-424c0 -34 15 -49 47 -49h57v-67h-94c-58 0 -92 39 -92 96v444z" />
    <glyph glyph-name="uni0E41" unicode="&#xe41;" horiz-adv-x="525" 
d="M70 540h82v-424c0 -34 15 -49 47 -49h47v-67h-84c-58 0 -92 39 -92 96v444zM299 540h82v-424c0 -34 15 -49 47 -49h47v-67h-84c-58 0 -92 39 -92 96v444z" />
    <glyph glyph-name="uni0E44" unicode="&#xe44;" horiz-adv-x="295" 
d="M87 557c0 84 36 139 87 171h-179v66h280v-65c-82 -35 -106 -92 -106 -199v-414c0 -34 15 -49 47 -49h57v-67h-94c-58 0 -92 39 -92 96v461z" />
    <glyph glyph-name="uni0E43" unicode="&#xe43;" horiz-adv-x="288" 
d="M57 443c0 140 127 167 127 234c0 43 -26 52 -73 52c-36 0 -75 -11 -111 -31v64c39 23 90 35 136 35c89 0 132 -44 132 -114c0 -103 -129 -114 -129 -241v-326c0 -34 15 -49 47 -49h57v-67h-94c-58 0 -92 39 -92 96v347z" />
    <glyph glyph-name="uni0E42" unicode="&#xe42;" horiz-adv-x="317" 
d="M111 574c0 90 -34 124 -106 154v66h287v-66h-183c63 -34 84 -75 84 -179v-433c0 -34 15 -49 47 -49h57v-67h-94c-58 0 -92 39 -92 96v478z" />
    <glyph glyph-name="uni210A" unicode="&#x210a;" horiz-adv-x="575" 
d="M423 45c-45 -31 -97 -45 -158 -45c-134 0 -215 70 -215 241c0 172 81 243 214 243c71 0 121 -19 165 -60l6 50h70v-465c0 -111 -85 -185 -232 -185c-33 0 -93 4 -119 10v70c29 -9 78 -12 105 -12c98 0 164 30 164 106v47zM287 66c57 0 103 18 136 47v248
c-36 39 -83 57 -138 57c-111 0 -153 -53 -153 -177c0 -129 49 -175 155 -175z" />
    <glyph glyph-name="zero" unicode="0" horiz-adv-x="647" 
d="M324 -10c-195 0 -274 123 -274 324c0 215 71 340 274 340c202 0 273 -125 273 -340c0 -201 -78 -324 -273 -324zM324 60c141 0 191 101 191 254c0 174 -47 270 -191 270c-145 0 -192 -96 -192 -270c0 -153 51 -254 192 -254z" />
    <glyph glyph-name="one" unicode="1" horiz-adv-x="304" 
d="M152 0v574l-102 -18v69l184 29v-654h-82z" />
    <glyph glyph-name="two" unicode="2" horiz-adv-x="506" 
d="M50 0v44c34 84 104 152 177 213c110 92 140 128 140 208c0 77 -33 119 -142 119c-49 0 -103 -11 -150 -29v73c43 15 108 26 163 26c138 0 211 -72 211 -189c0 -96 -54 -151 -134 -222c-66 -58 -130 -109 -164 -179h305v-64h-406z" />
    <glyph glyph-name="three" unicode="3" horiz-adv-x="514" 
d="M464 177c0 -126 -93 -187 -241 -187c-59 0 -134 12 -173 27v72c51 -20 105 -29 163 -29c114 0 169 30 169 117c0 82 -55 118 -148 118h-93l8 62h77c96 0 142 44 142 120c0 73 -47 107 -153 107c-54 0 -110 -12 -153 -29v71c37 15 104 28 164 28c153 0 224 -74 224 -176
c0 -65 -32 -129 -107 -151c85 -19 121 -79 121 -150z" />
    <glyph glyph-name="four" unicode="4" horiz-adv-x="541" 
d="M443 148v-148h-82v148h-331v62l340 434h73v-429h68v-67h-68zM372 546l-260 -333h260v333z" />
    <glyph glyph-name="five" unicode="5" horiz-adv-x="512" 
d="M462 192c0 -126 -82 -202 -238 -202c-59 0 -130 9 -171 27v73c47 -19 105 -30 162 -30c115 0 165 41 165 132c0 85 -31 128 -144 128h-186v57l17 267h349l-8 -64h-272l-13 -195h121c150 0 218 -64 218 -193z" />
    <glyph glyph-name="six" unicode="6" horiz-adv-x="569" 
d="M519 201c0 -126 -76 -211 -234 -211c-154 0 -235 74 -235 245v152c0 160 100 267 260 267c62 0 109 -8 148 -21v-71c-39 14 -85 22 -144 22c-130 0 -186 -72 -186 -182v-49c52 38 121 56 173 56c147 0 218 -74 218 -208zM445 199c0 91 -33 146 -151 146
c-65 0 -122 -23 -166 -55v-78c0 -106 52 -157 157 -157c107 0 160 55 160 144z" />
    <glyph glyph-name="seven" unicode="7" horiz-adv-x="498" 
d="M210 0h-83l245 580h-332v64h418v-57z" />
    <glyph glyph-name="eight" unicode="8" horiz-adv-x="584" 
d="M292 654c154 0 224 -71 224 -180c0 -64 -29 -123 -111 -151c90 -23 129 -73 129 -153c0 -119 -84 -180 -242 -180c-157 0 -242 61 -242 180c0 77 43 140 124 163c-75 24 -106 80 -106 141c0 109 74 180 224 180zM320 349c83 20 122 52 122 124c0 76 -53 116 -150 116
c-96 0 -150 -38 -150 -115c0 -58 38 -97 102 -110zM292 55c110 0 168 37 168 116c0 71 -43 98 -122 114l-87 18c-78 -16 -127 -51 -127 -131s59 -117 168 -117z" />
    <glyph glyph-name="nine" unicode="9" horiz-adv-x="569" 
d="M50 443c0 126 76 211 234 211c154 0 235 -74 235 -245v-152c0 -160 -100 -267 -260 -267c-62 0 -109 8 -148 21v71c39 -14 85 -22 144 -22c130 0 186 72 186 182v49c-52 -38 -121 -56 -173 -56c-147 0 -218 74 -218 208zM124 445c0 -91 33 -146 151 -146
c65 0 122 23 166 55v78c0 106 -52 157 -157 157c-107 0 -160 -55 -160 -144z" />
    <glyph glyph-name="fraction" unicode="&#x2044;" horiz-adv-x="138" 
d="M-130 0l316 662h82l-315 -662h-83z" />
    <glyph glyph-name="onehalf" unicode="&#xbd;" horiz-adv-x="630" 
d="M124 370v228l-74 -16v46l132 26v-284h-58zM100 0l342 644h77l-342 -644h-77zM380 0v32c19 32 46 56 79 83c47 39 60 57 60 84c0 28 -16 38 -58 38c-23 0 -50 -6 -72 -14v47c19 6 53 14 88 14c65 0 101 -38 101 -85c0 -40 -17 -58 -57 -95c-24 -23 -42 -33 -61 -57h120
v-47h-200z" />
    <glyph glyph-name="uni2153" unicode="&#x2153;" horiz-adv-x="639" 
d="M124 370v228l-74 -16v46l132 26v-284h-58zM100 0l342 644h77l-342 -644h-77zM589 75c0 -55 -40 -84 -120 -84c-29 0 -66 5 -83 12v45c23 -9 46 -13 71 -13c52 0 71 11 71 42c0 29 -21 41 -65 41h-37l3 41h31c43 0 62 12 62 43c0 27 -20 36 -64 36c-23 0 -47 -5 -67 -12
v45c17 6 50 12 80 12c83 0 112 -32 112 -78c0 -29 -13 -56 -45 -67c37 -8 51 -33 51 -63z" />
    <glyph glyph-name="uni2154" unicode="&#x2154;" horiz-adv-x="647" 
d="M50 370v32c19 32 46 56 79 83c47 39 60 57 60 84c0 28 -16 38 -58 38c-23 0 -50 -6 -72 -14v47c19 6 53 14 88 14c65 0 101 -38 101 -85c0 -40 -17 -58 -57 -95c-24 -23 -42 -33 -61 -57h120v-47h-200zM108 0l342 644h78l-343 -644h-77zM597 75c0 -55 -40 -84 -120 -84
c-29 0 -66 5 -83 12v45c23 -9 46 -13 71 -13c52 0 71 11 71 42c0 29 -21 41 -65 41h-37l3 41h31c43 0 62 12 62 43c0 27 -20 36 -64 36c-23 0 -47 -5 -67 -12v45c17 6 50 12 80 12c83 0 112 -32 112 -78c0 -29 -13 -56 -45 -67c37 -8 51 -33 51 -63z" />
    <glyph glyph-name="onequarter" unicode="&#xbc;" horiz-adv-x="632" 
d="M124 370v228l-74 -16v46l132 26v-284h-58zM100 0l342 644h77l-342 -644h-77zM551 58v-58h-57v58h-150v43l143 183h64v-183h31v-43h-31zM505 238l-105 -136h105v136z" />
    <glyph glyph-name="threequarters" unicode="&#xbe;" horiz-adv-x="641" 
d="M253 446c0 -55 -40 -84 -120 -84c-29 0 -66 5 -83 12v43c23 -9 46 -13 71 -13c52 0 71 13 71 44c0 29 -21 42 -65 42h-37l3 39h31c43 0 62 13 62 44c0 27 -20 38 -64 38c-23 0 -47 -5 -67 -12v43c17 6 50 12 80 12c83 0 112 -32 112 -78c0 -29 -13 -56 -45 -67
c37 -8 51 -33 51 -63zM109 0l342 644h77l-342 -644h-77zM560 58v-58h-57v58h-150v43l143 183h64v-183h31v-43h-31zM514 238l-105 -136h105v136z" />
    <glyph glyph-name="oneeighth" unicode="&#x215b;" horiz-adv-x="645" 
d="M124 370v228l-74 -16v46l132 26v-284h-58zM100 0l342 644h77l-342 -644h-77zM480 282c67 0 107 -31 107 -78c0 -28 -8 -51 -44 -68c40 -14 52 -36 52 -67c0 -51 -47 -79 -115 -79s-116 28 -116 79c0 34 16 57 50 70c-32 14 -42 37 -42 65c0 47 41 78 108 78zM491 155
c34 11 42 20 42 48c0 27 -21 39 -53 39c-33 0 -54 -12 -54 -39c0 -21 8 -36 35 -42zM480 29c37 0 60 14 60 41c0 24 -11 34 -45 42l-30 7c-29 -9 -45 -18 -45 -48c0 -28 22 -42 60 -42z" />
    <glyph glyph-name="threeeighths" unicode="&#x215c;" horiz-adv-x="645" 
d="M253 446c0 -55 -40 -84 -120 -84c-29 0 -66 5 -83 12v45c23 -9 46 -13 71 -13c52 0 71 11 71 42c0 29 -21 41 -65 41h-37l3 41h31c43 0 62 12 62 43c0 27 -20 36 -64 36c-23 0 -47 -5 -67 -12v45c17 6 50 12 80 12c83 0 112 -32 112 -78c0 -29 -13 -56 -45 -67
c37 -8 51 -33 51 -63zM101 0l342 644h77l-342 -644h-77zM480 282c67 0 107 -31 107 -78c0 -28 -8 -51 -44 -68c40 -14 52 -36 52 -67c0 -51 -47 -79 -115 -79s-116 28 -116 79c0 34 16 57 50 70c-32 14 -42 37 -42 65c0 47 41 78 108 78zM491 155c34 11 42 20 42 48
c0 27 -21 39 -53 39c-33 0 -54 -12 -54 -39c0 -21 8 -36 35 -42zM480 29c37 0 60 14 60 41c0 24 -11 34 -45 42l-30 7c-29 -9 -45 -18 -45 -48c0 -28 22 -42 60 -42z" />
    <glyph glyph-name="fiveeighths" unicode="&#x215d;" horiz-adv-x="635" 
d="M253 452c0 -54 -40 -90 -123 -90c-28 0 -62 4 -80 11v48c21 -9 47 -12 71 -12c50 0 73 9 73 44c0 34 -14 44 -63 44h-80v40l7 107h175l-3 -47h-122l-3 -58h48c70 0 100 -31 100 -87zM90 0l342 644h78l-343 -644h-77zM470 282c67 0 107 -31 107 -78c0 -28 -8 -51 -44 -68
c40 -14 52 -36 52 -67c0 -51 -47 -79 -115 -79s-116 28 -116 79c0 34 16 57 50 70c-32 14 -42 37 -42 65c0 47 41 78 108 78zM481 155c34 11 42 20 42 48c0 27 -21 39 -53 39c-33 0 -54 -12 -54 -39c0 -21 8 -36 35 -42zM470 29c37 0 60 14 60 41c0 24 -11 34 -45 42l-30 7
c-29 -9 -45 -18 -45 -48c0 -28 22 -42 60 -42z" />
    <glyph glyph-name="seveneighths" unicode="&#x215e;" horiz-adv-x="647" 
d="M161 370h-61l96 226h-146v48h209v-44zM102 0l342 644h78l-343 -644h-77zM482 282c67 0 107 -31 107 -78c0 -28 -8 -51 -44 -68c40 -14 52 -36 52 -67c0 -51 -47 -79 -115 -79s-116 28 -116 79c0 34 16 57 50 70c-32 14 -42 37 -42 65c0 47 41 78 108 78zM493 155
c34 11 42 20 42 48c0 27 -21 39 -53 39c-33 0 -54 -12 -54 -39c0 -21 8 -36 35 -42zM482 29c37 0 60 14 60 41c0 24 -11 34 -45 42l-30 7c-29 -9 -45 -18 -45 -48c0 -28 22 -42 60 -42z" />
    <glyph glyph-name="uni2080" unicode="&#x2080;" horiz-adv-x="360" 
d="M180 -128c-88 0 -130 55 -130 140c0 94 36 152 130 152s130 -58 130 -152c0 -85 -40 -140 -130 -140zM180 -81c56 0 73 36 73 93c0 69 -15 105 -73 105c-57 0 -73 -36 -73 -105c0 -57 18 -93 73 -93z" />
    <glyph glyph-name="uni2081" unicode="&#x2081;" horiz-adv-x="212" 
d="M124 -120v228l-74 -16v46l132 26v-284h-58z" />
    <glyph glyph-name="uni2082" unicode="&#x2082;" horiz-adv-x="300" 
d="M50 -120v32c19 32 46 56 79 83c47 39 60 57 60 84c0 28 -16 38 -58 38c-23 0 -50 -6 -72 -14v47c19 6 53 14 88 14c65 0 101 -38 101 -85c0 -40 -17 -58 -57 -95c-24 -23 -42 -33 -61 -57h120v-47h-200z" />
    <glyph glyph-name="uni2083" unicode="&#x2083;" horiz-adv-x="303" 
d="M253 -44c0 -55 -40 -84 -120 -84c-29 0 -66 5 -83 12v45c23 -9 46 -13 71 -13c52 0 71 11 71 42c0 29 -21 41 -65 41h-37l3 41h31c43 0 62 12 62 43c0 27 -20 36 -64 36c-23 0 -47 -5 -67 -12v45c17 6 50 12 80 12c83 0 112 -32 112 -78c0 -29 -13 -56 -45 -67
c37 -8 51 -33 51 -63z" />
    <glyph glyph-name="uni2084" unicode="&#x2084;" horiz-adv-x="298" 
d="M237 -62v-58h-57v58h-150v43l143 183h64v-183h31v-43h-31zM191 118l-105 -136h105v136z" />
    <glyph glyph-name="uni2085" unicode="&#x2085;" horiz-adv-x="303" 
d="M253 -38c0 -54 -40 -90 -123 -90c-28 0 -62 4 -80 11v48c21 -9 47 -12 71 -12c50 0 73 9 73 44c0 34 -14 44 -63 44h-80v40l7 107h175l-3 -47h-122l-3 -58h48c70 0 100 -31 100 -87z" />
    <glyph glyph-name="uni2086" unicode="&#x2086;" horiz-adv-x="323" 
d="M273 -33c0 -58 -33 -95 -109 -95c-71 0 -114 33 -114 108v66c0 74 48 118 124 118c28 0 54 -4 72 -10v-46c-17 6 -42 9 -69 9c-51 0 -76 -23 -76 -63v-18c23 18 49 25 74 25c72 0 98 -32 98 -94zM220 -33c0 36 -10 50 -56 50c-23 0 -45 -10 -63 -24v-22
c0 -39 18 -55 62 -55c43 0 57 16 57 51z" />
    <glyph glyph-name="uni2087" unicode="&#x2087;" horiz-adv-x="289" 
d="M151 -120h-61l96 226h-146v48h209v-44z" />
    <glyph glyph-name="uni2088" unicode="&#x2088;" horiz-adv-x="331" 
d="M166 164c67 0 107 -31 107 -78c0 -28 -8 -51 -44 -68c40 -14 52 -36 52 -67c0 -51 -47 -79 -115 -79s-116 28 -116 79c0 34 16 57 50 70c-32 14 -42 37 -42 65c0 47 41 78 108 78zM177 37c34 11 42 20 42 48c0 27 -21 39 -53 39c-33 0 -54 -12 -54 -39
c0 -21 8 -36 35 -42zM166 -89c37 0 60 14 60 41c0 24 -11 34 -45 42l-30 7c-29 -9 -45 -18 -45 -48c0 -28 22 -42 60 -42z" />
    <glyph glyph-name="uni2089" unicode="&#x2089;" horiz-adv-x="323" 
d="M50 69c0 58 33 95 109 95c71 0 114 -33 114 -108v-66c0 -74 -48 -118 -124 -118c-28 0 -54 4 -72 10v46c17 -6 42 -9 69 -9c51 0 76 23 76 63v18c-23 -18 -49 -25 -74 -25c-72 0 -98 32 -98 94zM103 69c0 -36 10 -50 56 -50c23 0 45 10 63 24v22c0 39 -18 55 -62 55
c-43 0 -57 -16 -57 -51z" />
    <glyph glyph-name="uni2070" unicode="&#x2070;" horiz-adv-x="360" 
d="M180 362c-88 0 -130 55 -130 140c0 94 36 152 130 152s130 -58 130 -152c0 -85 -40 -140 -130 -140zM180 409c56 0 73 36 73 93c0 69 -15 105 -73 105c-57 0 -73 -36 -73 -105c0 -57 18 -93 73 -93z" />
    <glyph glyph-name="uni00B9" unicode="&#xb9;" horiz-adv-x="212" 
d="M124 370v228l-74 -16v46l132 26v-284h-58z" />
    <glyph glyph-name="uni00B2" unicode="&#xb2;" horiz-adv-x="300" 
d="M50 370v32c19 32 46 56 79 83c47 39 60 57 60 84c0 28 -16 38 -58 38c-23 0 -50 -6 -72 -14v47c19 6 53 14 88 14c65 0 101 -38 101 -85c0 -40 -17 -58 -57 -95c-24 -23 -42 -33 -61 -57h120v-47h-200z" />
    <glyph glyph-name="uni00B3" unicode="&#xb3;" horiz-adv-x="303" 
d="M253 446c0 -55 -40 -84 -120 -84c-29 0 -66 5 -83 12v45c23 -9 46 -13 71 -13c52 0 71 11 71 42c0 29 -21 41 -65 41h-37l3 41h31c43 0 62 12 62 43c0 27 -20 36 -64 36c-23 0 -47 -5 -67 -12v45c17 6 50 12 80 12c83 0 112 -32 112 -78c0 -29 -13 -56 -45 -67
c37 -8 51 -33 51 -63z" />
    <glyph glyph-name="uni2074" unicode="&#x2074;" horiz-adv-x="298" 
d="M237 428v-58h-57v58h-150v43l143 183h64v-183h31v-43h-31zM191 608l-105 -136h105v136z" />
    <glyph glyph-name="uni2075" unicode="&#x2075;" horiz-adv-x="303" 
d="M253 452c0 -54 -40 -90 -123 -90c-28 0 -62 4 -80 11v48c21 -9 47 -12 71 -12c50 0 73 9 73 44c0 34 -14 44 -63 44h-80v40l7 107h175l-3 -47h-122l-3 -58h48c70 0 100 -31 100 -87z" />
    <glyph glyph-name="uni2076" unicode="&#x2076;" horiz-adv-x="323" 
d="M273 457c0 -58 -33 -95 -109 -95c-71 0 -114 33 -114 108v66c0 74 48 118 124 118c28 0 54 -4 72 -10v-46c-17 6 -42 9 -69 9c-51 0 -76 -23 -76 -63v-18c23 18 49 25 74 25c72 0 98 -32 98 -94zM220 457c0 36 -10 50 -56 50c-23 0 -45 -10 -63 -24v-22
c0 -39 18 -55 62 -55c43 0 57 16 57 51z" />
    <glyph glyph-name="uni2077" unicode="&#x2077;" horiz-adv-x="289" 
d="M151 370h-61l96 226h-146v48h209v-44z" />
    <glyph glyph-name="uni2078" unicode="&#x2078;" horiz-adv-x="331" 
d="M166 654c67 0 107 -31 107 -78c0 -28 -8 -51 -44 -68c40 -14 52 -36 52 -67c0 -51 -47 -79 -115 -79s-116 28 -116 79c0 34 16 57 50 70c-32 14 -42 37 -42 65c0 47 41 78 108 78zM177 527c34 11 42 20 42 48c0 27 -21 39 -53 39c-33 0 -54 -12 -54 -39
c0 -21 8 -36 35 -42zM166 401c37 0 60 14 60 41c0 24 -11 34 -45 42l-30 7c-29 -9 -45 -18 -45 -48c0 -28 22 -42 60 -42z" />
    <glyph glyph-name="uni2079" unicode="&#x2079;" horiz-adv-x="323" 
d="M50 559c0 58 33 95 109 95c71 0 114 -33 114 -108v-66c0 -74 -48 -118 -124 -118c-28 0 -54 4 -72 10v46c17 -6 42 -9 69 -9c51 0 76 23 76 63v18c-23 -18 -49 -25 -74 -25c-72 0 -98 32 -98 94zM103 559c0 -36 10 -50 56 -50c23 0 45 10 63 24v22c0 39 -18 55 -62 55
c-43 0 -57 -16 -57 -51z" />
    <glyph glyph-name="uni0E50" unicode="&#xe50;" horiz-adv-x="614" 
d="M307 484c154 0 257 -83 257 -247c0 -165 -101 -247 -257 -247s-257 82 -257 247c0 164 103 247 257 247zM307 60c115 0 175 52 175 177c0 124 -60 177 -175 177c-114 0 -175 -53 -175 -177c0 -125 61 -177 175 -177z" />
    <glyph glyph-name="uni0E51" unicode="&#xe51;" horiz-adv-x="641" 
d="M246 50c-127 0 -196 73 -196 202c0 147 93 232 271 232c183 0 270 -99 270 -267c0 -158 -97 -279 -294 -321v73c143 33 213 110 213 250c0 125 -53 195 -189 195c-132 0 -189 -53 -189 -162c0 -94 41 -132 130 -132c33 0 73 8 95 23v-67c-27 -16 -63 -26 -111 -26z" />
    <glyph glyph-name="uni0E52" unicode="&#xe52;" horiz-adv-x="696" 
d="M626 213c0 -146 -111 -223 -272 -223c-168 0 -284 77 -284 238v312h77v-314c0 -115 74 -169 207 -169c114 0 195 44 195 147v146c0 49 -11 70 -51 70c-33 0 -53 -22 -61 -53h-51c-12 31 -23 53 -59 53c-43 0 -60 -30 -60 -105c0 -68 30 -85 89 -85c23 0 46 3 64 9v-57
c-22 -7 -46 -11 -78 -11c-84 0 -142 44 -142 144c0 119 47 169 117 169c45 0 70 -14 94 -49c29 36 65 49 105 49c74 0 110 -45 110 -124v-147z" />
    <glyph glyph-name="uni0E53" unicode="&#xe53;" horiz-adv-x="640" 
d="M290 355c0 40 -31 59 -64 59c-72 0 -94 -60 -94 -189c0 -140 51 -165 147 -165c24 0 50 2 68 8v-68c-22 -7 -48 -10 -84 -10c-130 0 -213 56 -213 235c0 178 63 259 166 259c49 0 85 -18 109 -54c30 37 73 54 115 54c73 0 130 -40 130 -124v-360h-82v344
c0 52 -19 70 -65 70c-33 0 -64 -20 -64 -60v-88l-69 1v88z" />
    <glyph glyph-name="uni0E54" unicode="&#xe54;" horiz-adv-x="632" 
d="M536 0c-54 0 -99 7 -134 23c-36 -23 -77 -33 -122 -33c-142 0 -230 81 -230 234c0 165 118 260 318 260c102 0 161 7 216 42v-72c-51 -32 -119 -40 -213 -40c-164 0 -239 -60 -239 -190c0 -116 56 -164 155 -164c19 0 38 3 57 12c-15 22 -22 50 -22 83
c0 82 62 131 151 131c41 0 71 -6 94 -18v-62c-19 11 -45 17 -71 17c-65 0 -98 -18 -98 -69c0 -78 60 -84 162 -84h42v-70h-66z" />
    <glyph glyph-name="uni0E55" unicode="&#xe55;" horiz-adv-x="632" 
d="M536 0c-54 0 -99 7 -134 23c-36 -23 -77 -33 -122 -33c-142 0 -230 81 -230 234c0 126 76 204 198 232c-21 4 -42 13 -52 19v73c44 -33 131 -64 193 -64c89 0 144 9 195 42v-72c-51 -32 -119 -40 -213 -40c-142 0 -239 -60 -239 -190c0 -116 56 -164 155 -164
c19 0 38 3 57 12c-15 22 -22 50 -22 83c0 82 62 131 151 131c41 0 71 -6 94 -18v-62c-19 11 -45 17 -71 17c-65 0 -98 -18 -98 -69c0 -78 60 -84 162 -84h42v-70h-66z" />
    <glyph glyph-name="uni0E56" unicode="&#xe56;" horiz-adv-x="649" 
d="M367 484c166 0 232 -104 232 -248c0 -152 -98 -246 -259 -246c-72 0 -140 16 -191 53v73c59 -42 119 -56 186 -56c123 0 183 56 183 176s-40 178 -162 178c-88 0 -145 -43 -171 -137h-64l-91 263h76l58 -173c34 73 107 117 203 117z" />
    <glyph glyph-name="uni0E57" unicode="&#xe57;" horiz-adv-x="855" 
d="M563 63h16c95 0 129 32 129 134v343h77v-328c0 -150 -59 -212 -217 -212h-80v345c0 52 -19 70 -67 70c-31 0 -66 -19 -66 -59v-89h-72v88c0 41 -30 60 -63 60c-74 0 -91 -69 -91 -190c0 -145 55 -168 150 -168c23 0 51 2 69 8v-65c-22 -7 -50 -10 -86 -10
c-130 0 -212 57 -212 235s59 259 161 259c52 0 85 -18 109 -54c30 37 71 54 115 54c79 0 128 -41 128 -125v-296z" />
    <glyph glyph-name="uni0E58" unicode="&#xe58;" horiz-adv-x="629" 
d="M343 484c107 0 178 6 236 42v-72c-52 -32 -133 -40 -235 -40c-142 0 -212 -39 -212 -185c0 -129 28 -169 96 -169c37 0 72 20 72 60v80h63v-81c0 -41 43 -59 75 -59c31 0 49 4 69 17v153h-71l5 57h138v-253c-36 -28 -70 -44 -130 -44c-47 0 -92 17 -117 53
c-24 -36 -64 -53 -116 -53c-105 0 -166 72 -166 239c0 178 106 255 293 255z" />
    <glyph glyph-name="uni0E59" unicode="&#xe59;" horiz-adv-x="746" 
d="M559 360h6c59 0 80 18 80 94v66h71v-49c0 -130 -47 -177 -167 -177h-52v47c0 54 -17 74 -65 74c-45 0 -72 -24 -60 -65l103 -350h-72l-106 359c-11 37 -29 56 -75 56c-69 0 -93 -61 -93 -191c0 -129 46 -167 122 -167c21 0 42 2 60 8v-68c-21 -5 -44 -7 -75 -7
c-108 0 -186 71 -186 236c0 176 59 258 168 258c58 0 88 -19 107 -54c22 36 63 54 112 54c65 0 122 -35 122 -107v-17z" />
    <glyph glyph-name="asterisk" unicode="*" horiz-adv-x="428" 
d="M186 525l-4 119h65l-4 -119l109 53l26 -54l-121 -49l93 -103l-50 -37l-86 112l-86 -112l-50 37l92 103l-120 49l26 54z" />
    <glyph glyph-name="backslash" unicode="\" horiz-adv-x="436" 
d="M303 -54l-253 716h84l252 -716h-83z" />
    <glyph glyph-name="periodcentered" unicode="&#xb7;" horiz-adv-x="174" 
d="M50 250v69h74v-69h-74z" />
    <glyph glyph-name="bullet" unicode="&#x2022;" horiz-adv-x="339" 
d="M50 287c0 66 53 120 119 120c67 0 120 -54 120 -120c0 -67 -53 -119 -120 -119c-66 0 -119 52 -119 119z" />
    <glyph glyph-name="colon" unicode=":" horiz-adv-x="173" 
d="M50 329v69h73v-69h-73zM50 28v69h73v-69h-73z" />
    <glyph glyph-name="comma" unicode="," horiz-adv-x="202" 
d="M50 -120l28 177h74l-42 -177h-60z" />
    <glyph glyph-name="ellipsis" unicode="&#x2026;" horiz-adv-x="557" 
d="M50 0v67h72v-67h-72zM243 0v67h71v-67h-71zM436 0v67h71v-67h-71z" />
    <glyph glyph-name="exclam" unicode="!" horiz-adv-x="190" 
d="M136 644v-157l-6 -333h-70l-6 333v157h82zM140 65h-90v-65h90v65z" />
    <glyph glyph-name="exclamdown" unicode="&#xa1;" horiz-adv-x="190" 
d="M140 555h-90v65h90v-65zM136 -24v157l-6 333h-70l-6 -333v-157h82z" />
    <glyph glyph-name="numbersign" unicode="#" horiz-adv-x="700" 
d="M229 464l57 180h72l-57 -180h188l57 180h73l-57 -180h88v-58h-106l-54 -169h113v-57h-131l-56 -180h-72l56 180h-189l-56 -180h-71l56 180h-90v57h108l53 169h-114v58h132zM229 237h189l53 169h-188z" />
    <glyph glyph-name="period" unicode="." horiz-adv-x="174" 
d="M50 0v69h74v-69h-74z" />
    <glyph glyph-name="question" unicode="?" horiz-adv-x="493" 
d="M443 475c0 -73 -40 -112 -100 -162c-58 -49 -95 -71 -95 -139v-19h-82v23c0 90 71 134 127 182c37 32 68 65 68 114c0 77 -37 110 -151 110c-59 0 -117 -15 -160 -36v70c42 22 107 36 179 36c142 0 214 -67 214 -179zM252 65h-90v-65h90v65z" />
    <glyph glyph-name="questiondown" unicode="&#xbf;" horiz-adv-x="493" 
d="M261 620h90v-65h-90v65zM70 145c0 73 40 112 100 162c58 49 95 71 95 139v19h82v-23c0 -90 -71 -134 -127 -182c-37 -32 -68 -65 -68 -114c0 -77 37 -110 151 -110c59 0 117 15 160 36v-70c-42 -22 -107 -36 -179 -36c-142 0 -214 67 -214 179z" />
    <glyph glyph-name="quotedbl" unicode="&#x22;" horiz-adv-x="321" 
d="M50 467v177h74l-13 -177h-61zM197 467v177h74l-13 -177h-61z" />
    <glyph glyph-name="quotesingle" unicode="'" horiz-adv-x="174" 
d="M50 467v177h74l-13 -177h-61z" />
    <glyph glyph-name="semicolon" unicode=";" horiz-adv-x="202" 
d="M80 329v69h72v-69h-72zM50 -103l28 177h74l-42 -177h-60z" />
    <glyph glyph-name="slash" unicode="/" horiz-adv-x="417" 
d="M50 0l234 662h83l-234 -662h-83z" />
    <glyph glyph-name="underscore" unicode="_" horiz-adv-x="549" 
d="M499 0v-64h-449v64h449z" />
    <glyph glyph-name="uni208D" unicode="&#x208d;" horiz-adv-x="219" 
d="M50 16c0 56 19 123 56 162h63c-44 -44 -62 -104 -62 -162c0 -59 18 -119 62 -162h-63c-37 38 -56 106 -56 162z" />
    <glyph glyph-name="uni208E" unicode="&#x208e;" horiz-adv-x="219" 
d="M169 16c0 -56 -19 -124 -56 -162h-63c44 43 62 103 62 162c0 58 -18 118 -62 162h63c37 -39 56 -106 56 -162z" />
    <glyph glyph-name="braceleft" unicode="{" horiz-adv-x="296" 
d="M97 171c0 61 -10 93 -67 100v54c57 7 67 39 67 100v171c0 76 30 104 110 104h49v-65h-34c-32 0 -43 -8 -43 -47v-197c0 -37 -15 -79 -58 -93c43 -14 58 -56 58 -92v-198c0 -39 11 -47 43 -47h34v-65h-49c-80 0 -110 28 -110 104v171z" />
    <glyph glyph-name="braceright" unicode="}" horiz-adv-x="296" 
d="M199 0c0 -76 -30 -104 -110 -104h-49v65h34c32 0 43 8 43 47v198c0 36 15 78 58 92c-43 14 -58 56 -58 93v197c0 39 -11 47 -43 47h-34v65h49c80 0 110 -28 110 -104v-171c0 -61 10 -93 67 -100v-54c-57 -7 -67 -39 -67 -100v-171z" />
    <glyph glyph-name="bracketleft" unicode="[" horiz-adv-x="344" 
d="M50 -99v805h251l3 -65h-172v-676h172l-3 -64h-251z" />
    <glyph glyph-name="bracketright" unicode="]" horiz-adv-x="344" 
d="M43 -99l-3 64h172v676h-172l3 65h251v-805h-251z" />
    <glyph glyph-name="parenleft" unicode="(" horiz-adv-x="310" 
d="M50 303c0 132 34 287 137 375h93c-106 -90 -148 -220 -148 -375c0 -156 42 -285 148 -375h-93c-103 87 -137 242 -137 375z" />
    <glyph glyph-name="parenright" unicode=")" horiz-adv-x="310" 
d="M260 303c0 -133 -34 -288 -136 -375h-94c106 90 148 219 148 375c0 155 -42 285 -148 375h94c102 -88 136 -243 136 -375z" />
    <glyph glyph-name="uni207D" unicode="&#x207d;" horiz-adv-x="219" 
d="M50 514c0 56 19 123 56 162h63c-44 -44 -62 -104 -62 -162c0 -59 18 -119 62 -162h-63c-37 38 -56 106 -56 162z" />
    <glyph glyph-name="uni207E" unicode="&#x207e;" horiz-adv-x="219" 
d="M169 514c0 -56 -18 -124 -56 -162h-63c45 43 63 103 63 162c0 58 -18 118 -63 162h63c38 -39 56 -106 56 -162z" />
    <glyph glyph-name="emdash" unicode="&#x2014;" horiz-adv-x="877" 
d="M827 301v-65h-777v65h777z" />
    <glyph glyph-name="endash" unicode="&#x2013;" horiz-adv-x="585" 
d="M535 301v-65h-485v65h485z" />
    <glyph glyph-name="figuredash" unicode="&#x2012;" horiz-adv-x="613" 
d="M563 301v-65h-513v65h513z" />
    <glyph glyph-name="uni2015" unicode="&#x2015;" horiz-adv-x="924" 
d="M874 301v-65h-824v65h824z" />
    <glyph glyph-name="hyphen" unicode="-" horiz-adv-x="477" 
d="M427 301v-65h-377v65h377z" />
    <glyph glyph-name="uni2010" unicode="&#x2010;" horiz-adv-x="510" 
d="M460 301v-65h-410v65h410z" />
    <glyph glyph-name="uni00AD" unicode="&#xad;" horiz-adv-x="477" 
d="M427 301v-65h-377v65h377z" />
    <glyph glyph-name="guillemotleft" unicode="&#xab;" horiz-adv-x="602" 
d="M337 128l-33 -48l-254 187v39l254 187l33 -48l-213 -159zM552 128l-33 -48l-254 187v39l254 187l33 -48l-213 -159z" />
    <glyph glyph-name="guillemotright" unicode="&#xbb;" horiz-adv-x="602" 
d="M263 286l-213 159l33 48l254 -187v-39l-254 -187l-33 48zM478 286l-213 159l33 48l254 -187v-39l-254 -187l-33 48z" />
    <glyph glyph-name="guilsinglleft" unicode="&#x2039;" horiz-adv-x="387" 
d="M337 128l-33 -48l-254 187v39l254 187l33 -48l-213 -159z" />
    <glyph glyph-name="guilsinglright" unicode="&#x203a;" horiz-adv-x="387" 
d="M263 286l-213 159l33 48l254 -187v-39l-254 -187l-33 48z" />
    <glyph glyph-name="quotedblbase" unicode="&#x201e;" horiz-adv-x="355" 
d="M50 -119l50 183h69l-62 -183h-57zM187 -119l49 183h69l-62 -183h-56z" />
    <glyph glyph-name="quotedblleft" unicode="&#x201c;" horiz-adv-x="355" 
d="M169 654l-49 -183h-70l62 183h57zM305 654l-49 -183h-69l62 183h56z" />
    <glyph glyph-name="quotedblright" unicode="&#x201d;" horiz-adv-x="355" 
d="M50 471l50 183h69l-62 -183h-57zM187 471l49 183h69l-62 -183h-56z" />
    <glyph glyph-name="quoteleft" unicode="&#x2018;" horiz-adv-x="224" 
d="M174 654l-49 -183h-75l62 183h62z" />
    <glyph glyph-name="quoteright" unicode="&#x2019;" horiz-adv-x="224" 
d="M50 471l49 183h75l-62 -183h-62z" />
    <glyph glyph-name="quotesinglbase" unicode="&#x201a;" horiz-adv-x="224" 
d="M50 -150l49 183h75l-62 -183h-62z" />
    <glyph glyph-name="uni0E5A" unicode="&#xe5a;" horiz-adv-x="828" 
d="M246 341c56 0 101 13 135 39v160h82v-178c17 -14 42 -21 78 -21c56 0 101 13 135 39v160h82v-540h-82v310c-36 -24 -86 -39 -142 -39c-34 0 -55 5 -71 16v-287h-82v310c-36 -24 -86 -39 -142 -39c-109 0 -179 65 -179 159c0 42 8 76 23 110h84c-17 -33 -25 -62 -25 -110
c0 -58 31 -89 104 -89z" />
    <glyph glyph-name="uni0E4F" unicode="&#xe4f;" horiz-adv-x="609" 
d="M50 244c0 140 114 255 255 255c140 0 254 -115 254 -255c0 -141 -114 -254 -254 -254c-141 0 -255 113 -255 254zM113 244c0 -106 86 -192 192 -192c105 0 192 86 192 192c0 105 -87 192 -192 192c-106 0 -192 -87 -192 -192zM175 244c0 72 58 129 130 129
c71 0 129 -57 129 -129s-58 -130 -129 -130c-72 0 -130 58 -130 130zM231 244c0 -41 32 -74 74 -74c41 0 74 33 74 74s-33 74 -74 74c-42 0 -74 -33 -74 -74z" />
    <glyph glyph-name="uni0E5B" unicode="&#xe5b;" horiz-adv-x="1202" 
d="M476 365c0 -87 -50 -155 -143 -189v73c54 29 66 69 66 115c0 78 -28 122 -119 122c-103 0 -155 -75 -155 -192c0 -141 69 -206 194 -206c157 0 225 96 225 247c0 52 -4 89 -12 133h91c33 -57 65 -138 78 -204h2c16 49 34 137 31 184h71c18 -36 47 -113 62 -173h2
c12 36 28 111 31 160h63c19 -35 45 -109 53 -148h2c15 32 22 73 20 125h51c1 -22 0 -46 -2 -62h65l-4 -49h-71c-7 -31 -17 -54 -33 -85h-59c-4 30 -27 104 -44 137h-2c-3 -32 -22 -122 -36 -158h-71c-8 52 -31 124 -54 169h-2c-3 -44 -24 -137 -43 -191h-70
c-3 61 -31 150 -55 202h-2c19 -215 -86 -353 -287 -353c-170 0 -269 101 -269 269c0 149 84 259 230 259c144 0 196 -76 196 -185z" />
    <glyph glyph-name="uni0E46" unicode="&#xe46;" horiz-adv-x="582" 
d="M430 415c0 32 -6 65 -46 65c-32 0 -54 -19 -69 -50h-49c-15 33 -24 50 -57 50c-40 0 -67 -30 -67 -104c0 -73 37 -96 97 -96c25 0 51 2 69 8v-68c-23 -7 -48 -10 -84 -10c-101 0 -164 55 -164 166c0 103 52 174 135 174c45 0 72 -14 96 -50c28 36 66 50 108 50
c85 0 113 -43 113 -147v-403h-82v415z" />
    <glyph glyph-name="uni0E2F" unicode="&#xe2f;" horiz-adv-x="533" 
d="M246 341c56 0 101 13 135 39v160h82v-540h-82v310c-36 -24 -86 -39 -142 -39c-109 0 -179 65 -179 159c0 42 8 76 23 110h84c-17 -33 -25 -62 -25 -110c0 -58 31 -89 104 -89z" />
    <glyph glyph-name="uni2007" unicode="&#x2007;" 
 />
    <glyph glyph-name="space" unicode=" " horiz-adv-x="380" 
 />
    <glyph glyph-name="uni00A0" unicode="&#xa0;" horiz-adv-x="380" 
 />
    <glyph glyph-name="CR" unicode="&#xd;" horiz-adv-x="400" 
 />
    <glyph glyph-name=".null" horiz-adv-x="500" 
 />
    <glyph glyph-name="uni0E3F" unicode="&#xe3f;" horiz-adv-x="627" 
d="M266 -86v86h-196v644h196v86h64v-86h38c127 0 184 -62 184 -170c0 -71 -31 -118 -81 -142c65 -16 106 -59 106 -148c0 -125 -66 -184 -193 -184h-54v-86h-64zM152 362h114v219h-114v-219zM475 468c0 74 -27 113 -127 113h-18v-219h33c81 0 112 43 112 106zM266 62v238
h-114v-238h114zM330 300v-238h40c86 0 125 34 125 125c0 74 -33 113 -138 113h-27z" />
    <glyph glyph-name="uni20B5" unicode="&#x20b5;" horiz-adv-x="595" 
d="M321 -120v112c-183 14 -271 136 -271 316c0 197 80 329 271 344v83h64v-82c62 -2 113 -13 160 -29v-72c-48 18 -102 29 -160 31v-523c55 1 112 11 160 29v-73c-46 -14 -98 -23 -160 -25v-111h-64zM132 308c0 -143 58 -230 189 -246v519c-140 -16 -189 -117 -189 -273z
" />
    <glyph glyph-name="cent" unicode="&#xa2;" horiz-adv-x="490" 
d="M264 -86v77c-145 10 -214 98 -214 246c0 152 82 232 214 245v78h62v-77c48 -2 79 -11 113 -26v-65c-33 16 -70 25 -113 26v-362c40 1 79 10 114 26v-66c-33 -14 -71 -22 -114 -25v-77h-62zM132 237c0 -109 38 -165 132 -178v355c-85 -14 -132 -68 -132 -177z" />
    <glyph glyph-name="colonmonetary" unicode="&#x20a1;" horiz-adv-x="595" 
d="M128 -31l28 112c-71 47 -106 125 -106 227c0 169 72 279 240 301l16 62h69l-15 -57c21 0 40 -2 59 -3l15 60h69l-18 -70c21 -4 41 -10 60 -17v-72c-24 9 -50 16 -77 22l-111 -434h10c60 0 125 9 178 29v-73c-52 -16 -112 -26 -186 -26h-20l-15 -61h-68l17 68
c-20 3 -39 8 -56 14l-21 -82h-68zM235 122c16 -7 35 -12 55 -16l111 437c-12 1 -24 1 -36 1c-8 0 -15 0 -23 -1zM132 308c0 -63 14 -111 45 -145l94 370c-102 -27 -139 -105 -139 -225z" />
    <glyph glyph-name="currency" unicode="&#xa4;" horiz-adv-x="573" 
d="M401 125c-30 -25 -70 -41 -114 -41s-84 16 -115 41l-84 -65l-38 47l83 62c-21 28 -32 62 -32 100c0 37 11 72 32 99l-82 63l37 46l84 -66c30 26 70 42 114 42s84 -16 115 -42l85 66l37 -46l-83 -63c20 -27 33 -62 33 -99s-13 -72 -33 -101l83 -62l-37 -46zM286 394
c-69 0 -122 -56 -122 -125s54 -125 122 -125c69 0 124 56 124 125s-56 125 -124 125z" />
    <glyph glyph-name="dollar" unicode="$" horiz-adv-x="556" 
d="M247 -86v76c-75 1 -136 11 -182 30v73c54 -21 117 -33 182 -33v237c-2 0 -4 0 -5 1c-142 35 -192 85 -192 179c0 99 64 164 197 175v78h64v-77c65 -2 124 -13 156 -24v-72c-46 16 -100 26 -156 27v-228c150 -38 195 -98 195 -188c0 -101 -66 -163 -195 -175v-79h-64z
M132 477c0 -56 28 -80 115 -105v209c-75 -9 -115 -41 -115 -104zM424 168c0 60 -31 87 -113 112v-217c75 9 113 38 113 105z" />
    <glyph glyph-name="dong" unicode="&#x20ab;" horiz-adv-x="595" 
d="M423 609v65h82v-65h60v-65h-60v-544h-70l-6 50c-44 -41 -94 -60 -165 -60c-133 0 -214 74 -214 246c0 171 81 248 215 248c61 0 113 -14 158 -45v105h-173v65h173zM287 418c-106 0 -155 -53 -155 -182c0 -124 42 -180 153 -180c55 0 102 18 138 57v258
c-33 29 -79 47 -136 47zM519 -55v-65h-417v65h417z" />
    <glyph glyph-name="Euro" unicode="&#x20ac;" horiz-adv-x="594" 
d="M111 416c22 145 97 238 271 238c74 0 119 -11 172 -30v-71c-54 21 -98 31 -166 31c-128 0 -179 -62 -195 -168h243v-57h-249c-1 -17 -1 -35 -1 -53c0 -19 0 -37 2 -54h248v-57h-239c21 -89 78 -135 194 -135c62 0 110 8 163 27v-71c-53 -16 -97 -26 -171 -26
c-162 0 -242 79 -269 205h-74v57h66c-1 17 -2 35 -2 54c0 18 0 36 1 53h-65v57h71z" />
    <glyph glyph-name="florin" unicode="&#x192;" horiz-adv-x="518" 
d="M176 409h-71l14 65h71l15 69c21 96 74 147 179 147c35 0 62 -6 84 -15l-13 -62c-19 7 -41 11 -64 11c-63 0 -92 -22 -104 -81l-15 -69h128l-18 -65h-124l-81 -385c-20 -90 -75 -147 -180 -147c-34 0 -60 6 -82 15l13 62c18 -7 40 -11 63 -11c67 0 91 22 104 81z" />
    <glyph glyph-name="uni20B2" unicode="&#x20b2;" horiz-adv-x="639" 
d="M321 -120v112c-183 14 -271 136 -271 316c0 197 80 329 271 344v83h64v-82c62 -2 113 -13 160 -29v-72c-48 18 -102 29 -160 31v-236h204v-306c-36 -23 -100 -47 -204 -50v-111h-64zM132 308c0 -144 57 -231 189 -246v519c-140 -16 -189 -117 -189 -273zM385 291v-231
c49 2 97 12 133 26v205h-133z" />
    <glyph glyph-name="lira" unicode="&#x20a4;" horiz-adv-x="503" 
d="M217 140c0 -34 -6 -59 -27 -75h263v-65h-403v65h26c41 0 59 27 59 71v56h-70v65h70v74h-70v65h70v101c0 100 72 157 170 157c46 0 85 -7 111 -19v-63c-19 10 -57 16 -87 16c-74 0 -112 -25 -112 -95v-97h198l-3 -65h-195v-74h198l-3 -65h-195v-52z" />
    <glyph glyph-name="uni20BA" unicode="&#x20ba;" horiz-adv-x="579" 
d="M224 329v-265c154 3 223 79 223 231v31h82v-35c0 -190 -112 -291 -320 -291h-67v302l-92 -30v59l92 30v74l-92 -30v59l92 30v150h82v-124l195 65v-59l-195 -64v-75l195 65v-59z" />
    <glyph glyph-name="uni20A6" unicode="&#x20a6;" horiz-adv-x="652" 
d="M108 424v220h75l120 -220h160v220h82v-220h57v-66h-57v-89h57v-67h-57v-202h-75l-111 202h-169v-202h-82v202h-58v67h58v89h-58v66h58zM190 424h48l-48 89v-89zM190 269h133l-49 89h-84v-89zM387 269h76v89h-124zM463 130v72h-39z" />
    <glyph glyph-name="peseta" unicode="&#x20a7;" horiz-adv-x="1151" 
d="M457 436c0 -125 -82 -205 -214 -205h-91v-231h-82v644h177c144 0 210 -86 210 -208zM232 297c96 0 146 54 146 139c0 91 -47 142 -141 142h-85v-281h80zM1019 124c0 53 -43 61 -134 92c-83 28 -141 51 -141 138c0 84 55 130 186 130c51 0 99 -8 134 -19v-68
c-38 14 -82 21 -121 21c-83 0 -117 -18 -117 -63c0 -47 35 -56 120 -83c109 -34 155 -63 155 -147c0 -94 -68 -135 -188 -135c-61 0 -120 9 -157 22v69c45 -16 97 -24 146 -24c84 0 117 17 117 67zM444 332h66v122l81 20v-142h132l-3 -63h-129v-134c0 -55 27 -85 88 -85
c17 0 35 3 57 11v-57c-25 -9 -52 -14 -86 -14c-92 0 -140 53 -140 142v137h-66v63z" />
    <glyph glyph-name="uni20B1" unicode="&#x20b1;" horiz-adv-x="604" 
d="M66 407v61h-36v63h36v113h257c102 0 166 -44 193 -113h58v-63h-43c1 -11 2 -21 2 -32c0 -10 -1 -20 -2 -29h43v-63h-59c-31 -70 -101 -111 -196 -111h-171v-233h-82v344h-36v63h36zM148 531h277c-23 31 -61 48 -114 48h-163v-48zM451 436c0 11 -1 22 -2 32h-301v-61h300
c2 9 3 19 3 29zM306 297c54 0 93 17 117 47h-275v-47h158z" />
    <glyph glyph-name="uni20BD" unicode="&#x20bd;" horiz-adv-x="638" 
d="M111 311v333h267c144 0 210 -78 210 -200c0 -126 -84 -197 -216 -197h-179v-75h135v-64h-135v-108h-82v108h-61v64h61v75h-61v64h61zM361 311c96 0 145 45 145 130c0 91 -46 138 -140 138h-173v-268h168z" />
    <glyph glyph-name="uni20B9" unicode="&#x20b9;" horiz-adv-x="449" 
d="M255 494c-12 65 -65 92 -140 92h-65v58h349v-58h-122c35 -21 52 -48 59 -92h63v-57h-61c-3 -96 -60 -146 -155 -163c37 -22 44 -34 61 -74l84 -200h-84l-82 194c-19 46 -40 64 -112 64v57h49c89 0 156 25 158 122h-206v57h204z" />
    <glyph glyph-name="sterling" unicode="&#xa3;" horiz-adv-x="503" 
d="M453 65v-65h-403v65h26c41 0 59 27 59 71v173h-70v65h70v123c0 100 72 157 170 157c46 0 85 -7 111 -19v-63c-19 10 -57 16 -87 16c-74 0 -112 -25 -112 -95v-119h198l-3 -65h-195v-169c0 -34 -6 -59 -27 -75h263z" />
    <glyph glyph-name="yen" unicode="&#xa5;" horiz-adv-x="642" 
d="M280 153v52h-157v57h144l-217 382h85l186 -334l186 334h85l-218 -382h145v-57h-157v-52h157v-57h-157v-96h-82v96h-157v57h157z" />
    <glyph glyph-name="uni2126" unicode="&#x2126;" horiz-adv-x="769" 
d="M385 625c-151 0 -253 -107 -253 -262c0 -127 62 -229 189 -298v-65h-264v64h159c-98 61 -166 160 -166 299c0 190 125 332 335 332c209 0 334 -142 334 -332c0 -139 -66 -239 -165 -299h158v-64h-263v65c127 69 188 171 188 298c0 155 -101 262 -252 262z" />
    <glyph glyph-name="approxequal" unicode="&#x2248;" horiz-adv-x="482" 
d="M337 346c40 0 63 7 95 44v-68c-23 -28 -58 -36 -98 -36c-75 0 -109 53 -185 53c-41 0 -67 -7 -99 -43v67c24 27 59 36 99 36c80 0 116 -53 188 -53zM337 199c40 0 63 7 95 44v-68c-23 -28 -58 -35 -98 -35c-75 0 -109 53 -185 53c-41 0 -67 -7 -99 -44v67
c24 27 59 36 99 36c80 0 116 -53 188 -53z" />
    <glyph glyph-name="asciitilde" unicode="~" horiz-adv-x="572" 
d="M406 304c51 0 84 19 116 60v-83c-23 -32 -66 -52 -116 -52c-81 0 -158 71 -238 71c-51 0 -86 -19 -118 -60v83c23 31 68 52 118 52c95 0 156 -71 238 -71z" />
    <glyph glyph-name="uni2219" unicode="&#x2219;" horiz-adv-x="174" 
d="M50 250v69h74v-69h-74z" />
    <glyph glyph-name="divide" unicode="&#xf7;" horiz-adv-x="476" 
d="M202 465h71v-67h-71v67zM50 236v65h376v-65h-376zM202 145h71v-67h-71v67z" />
    <glyph glyph-name="uni2215" unicode="&#x2215;" horiz-adv-x="498" 
d="M50 0l316 662h82l-315 -662h-83z" />
    <glyph glyph-name="equal" unicode="=" horiz-adv-x="482" 
d="M50 311v59h382v-59h-382zM50 168v60h382v-60h-382z" />
    <glyph glyph-name="greater" unicode="&#x3e;" horiz-adv-x="547" 
d="M497 329v-67l-447 -206v77l362 163l-362 162v77z" />
    <glyph glyph-name="greaterequal" unicode="&#x2265;" horiz-adv-x="547" 
d="M497 358v-58l-447 -202v71l361 160l-361 160v71zM497 65v-65h-447v65h447z" />
    <glyph glyph-name="infinity" unicode="&#x221e;" horiz-adv-x="712" 
d="M356 230c-30 -56 -84 -93 -150 -93c-91 0 -156 49 -156 146s65 145 156 145c66 0 120 -37 150 -93c31 56 84 93 151 93c90 0 155 -48 155 -145s-65 -146 -155 -146c-67 0 -120 37 -151 93zM322 283c-27 58 -57 87 -113 87c-64 0 -95 -32 -95 -87c0 -56 31 -88 95 -88
c56 0 90 32 113 88zM390 281c28 -56 58 -86 114 -86c64 0 95 32 95 88c0 55 -31 87 -95 87c-56 0 -87 -29 -114 -89z" />
    <glyph glyph-name="integral" unicode="&#x222b;" horiz-adv-x="448" 
d="M183 543c0 90 51 147 148 147c35 0 63 -6 87 -15v-62c-20 7 -43 11 -66 11c-68 0 -87 -22 -87 -81v-519c0 -90 -51 -147 -148 -147c-35 0 -63 6 -87 15v62c20 -7 43 -11 66 -11c68 0 87 22 87 81v519z" />
    <glyph glyph-name="less" unicode="&#x3c;" horiz-adv-x="547" 
d="M497 535v-77l-361 -162l361 -163v-77l-447 206v67z" />
    <glyph glyph-name="lessequal" unicode="&#x2264;" horiz-adv-x="547" 
d="M497 560v-71l-361 -160l361 -160v-71l-447 202v58zM497 65v-65h-447v65h447z" />
    <glyph glyph-name="logicalnot" unicode="&#xac;" horiz-adv-x="531" 
d="M481 368v-221h-67v156h-364v65h431z" />
    <glyph glyph-name="minus" unicode="&#x2212;" horiz-adv-x="477" 
d="M50 236v65h377v-65h-377z" />
    <glyph glyph-name="multiply" unicode="&#xd7;" horiz-adv-x="410" 
d="M207 216l-109 -108l-43 43l108 109l-113 111l43 43l111 -113l113 112l43 -43l-112 -113l112 -112l-41 -42z" />
    <glyph glyph-name="notequal" unicode="&#x2260;" horiz-adv-x="482" 
d="M123 62l37 106h-110v60h132l29 83h-161v59h182l37 103h77l-37 -103h123v-59h-144l-29 -83h173v-60h-195l-37 -106h-77z" />
    <glyph glyph-name="partialdiff" unicode="&#x2202;" horiz-adv-x="619" 
d="M57 201c29 134 111 206 261 206c52 0 117 -18 162 -56l5 25c24 129 5 210 -129 210c-67 0 -120 -11 -165 -30l13 70c42 17 100 28 162 28c161 0 230 -113 193 -293l-26 -126c-37 -171 -122 -245 -285 -245c-154 0 -218 87 -191 211zM134 199c-20 -95 10 -146 124 -146
c110 0 172 57 193 162l16 77c-36 33 -85 52 -148 52c-115 0 -166 -51 -185 -145z" />
    <glyph glyph-name="percent" unicode="%" horiz-adv-x="713" 
d="M188 654c92 0 137 -58 137 -151c0 -81 -45 -138 -137 -138c-93 0 -138 57 -138 138c0 93 45 151 138 151zM146 0l342 644h77l-342 -644h-77zM188 420c58 0 80 31 80 84c0 66 -24 94 -80 94s-80 -28 -80 -94c0 -53 22 -84 80 -84zM526 279c92 0 137 -58 137 -151
c0 -81 -45 -138 -137 -138c-93 0 -138 57 -138 138c0 93 45 151 138 151zM526 45c58 0 80 31 80 84c0 66 -24 94 -80 94s-80 -28 -80 -94c0 -53 22 -84 80 -84z" />
    <glyph glyph-name="perthousand" unicode="&#x2030;" horiz-adv-x="1023" 
d="M188 654c92 0 137 -58 137 -151c0 -81 -45 -138 -137 -138c-93 0 -138 57 -138 138c0 93 45 151 138 151zM146 0l342 644h77l-342 -644h-77zM188 420c58 0 80 31 80 84c0 66 -24 94 -80 94s-80 -28 -80 -94c0 -53 22 -84 80 -84zM526 279c92 0 137 -58 137 -151
c0 -81 -45 -138 -137 -138c-93 0 -138 57 -138 138c0 93 45 151 138 151zM836 279c92 0 137 -58 137 -151c0 -81 -45 -138 -137 -138c-93 0 -138 57 -138 138c0 93 45 151 138 151zM526 45c58 0 80 31 80 84c0 66 -24 94 -80 94s-80 -28 -80 -94c0 -53 22 -84 80 -84z
M836 45c58 0 80 31 80 84c0 66 -24 94 -80 94s-80 -28 -80 -94c0 -53 22 -84 80 -84z" />
    <glyph glyph-name="plus" unicode="+" horiz-adv-x="477" 
d="M272 236v-148h-67v148h-155v65h155v154h67v-154h155v-65h-155z" />
    <glyph glyph-name="plusminus" unicode="&#xb1;" horiz-adv-x="477" 
d="M272 256v-148h-67v148h-155v65h155v154h67v-154h155v-65h-155zM50 0v65h377v-65h-377z" />
    <glyph glyph-name="product" unicode="&#x220f;" horiz-adv-x="629" 
d="M477 642h-325v-771h-82v835h489v-835h-82v771z" />
    <glyph glyph-name="radical" unicode="&#x221a;" horiz-adv-x="681" 
d="M215 446l120 -349l216 617h80l-251 -714h-87l-137 381h-106v65h165z" />
    <glyph glyph-name="summation" unicode="&#x2211;" horiz-adv-x="535" 
d="M153 -56h332v-64h-435v51l250 331l-250 330v52h435v-65h-332l239 -317z" />
    <glyph glyph-name="arrowup" unicode="&#x2191;" horiz-adv-x="509" 
d="M283 537v-588h-57v588l-138 -171l-38 27l188 235h33l188 -235l-38 -27z" />
    <glyph glyph-name="arrowright" unicode="&#x2192;" horiz-adv-x="780" 
d="M467 433l28 38l235 -188v-33l-235 -188l-28 38l171 138h-588v57h589z" />
    <glyph glyph-name="arrowdown" unicode="&#x2193;" horiz-adv-x="509" 
d="M421 206l38 -27l-188 -235h-33l-188 235l38 27l138 -171v588h57v-588z" />
    <glyph glyph-name="arrowleft" unicode="&#x2190;" horiz-adv-x="780" 
d="M141 295h589v-57h-588l171 -138l-28 -38l-235 188v33l235 188l28 -38z" />
    <glyph glyph-name="uni25C6" unicode="&#x25c6;" horiz-adv-x="633" 
d="M50 331l266 267l267 -267l-267 -266z" />
    <glyph glyph-name="lozenge" unicode="&#x25ca;" horiz-adv-x="603" 
d="M50 321l221 323h61l221 -323l-221 -321h-61zM469 321l-168 247l-166 -247l167 -247z" />
    <glyph glyph-name="filledbox" unicode="&#x25a0;" horiz-adv-x="584" 
d="M50 604h484v-484h-484v484z" />
    <glyph glyph-name="triagup" unicode="&#x25b2;" horiz-adv-x="685" 
d="M50 0l293 585l292 -585h-585z" />
    <glyph glyph-name="uni25B6" unicode="&#x25b6;" horiz-adv-x="685" 
d="M50 585l585 -292l-585 -293v585z" />
    <glyph glyph-name="triagdn" unicode="&#x25bc;" horiz-adv-x="685" 
d="M635 585l-292 -585l-293 585h585z" />
    <glyph glyph-name="uni25C0" unicode="&#x25c0;" horiz-adv-x="685" 
d="M635 0l-585 293l585 292v-585z" />
    <glyph glyph-name="uni25B3" unicode="&#x25b3;" horiz-adv-x="685" 
d="M50 0l293 585l292 -585h-585zM518 71l-175 353l-177 -353h352z" />
    <glyph glyph-name="uni25B7" unicode="&#x25b7;" horiz-adv-x="685" 
d="M50 584l585 -293l-585 -292v585zM121 116l353 175l-353 177v-352z" />
    <glyph glyph-name="uni25BD" unicode="&#x25bd;" horiz-adv-x="685" 
d="M635 585l-292 -585l-293 585h585zM166 514l177 -353l175 353h-352z" />
    <glyph glyph-name="uni25C1" unicode="&#x25c1;" horiz-adv-x="685" 
d="M635 -1l-585 292l585 293v-585zM564 468l-353 -177l353 -175v352z" />
    <glyph glyph-name="uniF8FF" unicode="&#xf8ff;" horiz-adv-x="511" 
d="M50 714h411v-714h-411v714zM101 51h309v612h-309v-612z" />
    <glyph glyph-name="bar" unicode="|" horiz-adv-x="182" 
d="M50 -120v855h82v-855h-82z" />
    <glyph glyph-name="brokenbar" unicode="&#xa6;" horiz-adv-x="182" 
d="M50 424v311h82v-311h-82zM50 -120v310h82v-310h-82z" />
    <glyph glyph-name="at" unicode="@" horiz-adv-x="768" 
d="M554 97c69 0 95 51 95 155c0 142 -74 207 -246 207c-191 0 -284 -73 -284 -272c0 -201 116 -253 270 -253c73 0 130 6 173 19v-67c-42 -10 -102 -18 -171 -18c-192 0 -341 81 -341 320c0 233 129 337 353 337c208 0 315 -96 315 -273c0 -128 -55 -214 -177 -214h-17
c-36 -36 -87 -58 -161 -58c-90 0 -149 49 -149 126c0 72 41 136 151 136h127v20c0 70 -21 88 -107 88c-40 0 -85 -7 -123 -20v54c35 15 86 22 138 22c104 0 154 -44 154 -143v-166zM492 187h-117c-77 0 -97 -31 -97 -82s29 -71 92 -71c55 0 95 16 122 51v102z" />
    <glyph glyph-name="ampersand" unicode="&#x26;" horiz-adv-x="660" 
d="M565 270c0 -52 -13 -104 -35 -140l90 -91l-50 -45l-80 79c-47 -58 -123 -83 -220 -83c-133 0 -220 63 -220 162c0 91 60 153 157 204c-52 52 -93 91 -93 155c0 80 58 143 159 143c99 0 156 -57 156 -143c0 -72 -40 -116 -112 -166l166 -169c11 24 17 57 17 94v14h65v-14z
M361 508c0 51 -25 83 -88 83c-64 0 -91 -36 -91 -83c0 -43 32 -74 84 -123c62 39 95 68 95 123zM270 49c77 0 131 23 170 70l-183 187c-87 -40 -128 -81 -128 -152c0 -69 59 -105 141 -105z" />
    <glyph glyph-name="paragraph" unicode="&#xb6;" horiz-adv-x="628" 
d="M578 710v-787h-82v723h-100v-723h-82v330c-148 0 -264 50 -264 224c0 169 108 233 263 233h265z" />
    <glyph glyph-name="copyright" unicode="&#xa9;" horiz-adv-x="764" 
d="M50 322c0 183 149 332 332 332s332 -149 332 -332s-149 -332 -332 -332s-332 149 -332 332zM113 322c0 -158 114 -272 269 -272c156 0 270 114 270 272c0 157 -114 271 -270 271c-155 0 -269 -114 -269 -271zM517 121c-35 -19 -85 -30 -136 -30c-140 0 -224 87 -224 230
c0 153 104 230 231 230c57 0 99 -13 129 -31v-54c-36 19 -75 27 -116 27c-107 0 -178 -47 -178 -172s55 -173 173 -173c40 0 88 11 121 29v-56z" />
    <glyph glyph-name="registered" unicode="&#xae;" horiz-adv-x="764" 
d="M50 322c0 183 149 332 332 332s332 -149 332 -332s-149 -332 -332 -332s-332 149 -332 332zM113 322c0 -158 114 -272 269 -272c156 0 270 114 270 272c0 157 -114 271 -270 271c-155 0 -269 -114 -269 -271zM556 409c0 -63 -37 -109 -100 -122c19 -11 26 -24 36 -47
l54 -128h-61l-55 129c-12 28 -21 32 -70 32h-70v-161h-62v426h188c91 0 140 -50 140 -129zM388 325c68 0 107 12 107 84c0 63 -26 77 -87 77h-118v-161h98z" />
    <glyph glyph-name="uni2117" unicode="&#x2117;" horiz-adv-x="764" 
d="M50 322c0 183 149 332 332 332s332 -149 332 -332s-149 -332 -332 -332s-332 149 -332 332zM113 322c0 -158 114 -272 269 -272c156 0 270 114 270 272c0 157 -114 271 -270 271c-155 0 -269 -114 -269 -271zM307 257v-152h-62v429h198c91 0 144 -53 144 -132
s-55 -145 -144 -145h-136zM418 312c68 0 108 18 108 90c0 63 -30 77 -91 77h-128v-167h111z" />
    <glyph glyph-name="section" unicode="&#xa7;" horiz-adv-x="556" 
d="M50 591c0 109 78 174 239 174c74 0 143 -13 178 -25v-72c-48 17 -105 27 -165 27c-109 0 -170 -29 -170 -107c0 -66 41 -90 171 -121c162 -39 203 -78 203 -157c0 -22 -8 -54 -17 -73c11 -20 17 -45 17 -71c0 -114 -88 -176 -247 -176c-80 0 -145 10 -194 30v73
c56 -21 120 -33 187 -33c111 0 172 26 172 108c0 75 -59 96 -184 127c-140 37 -190 76 -190 161c0 25 7 48 18 65c-11 19 -18 42 -18 70zM127 446c0 -49 35 -63 152 -92c72 -18 126 -42 151 -70c4 12 5 17 5 27c0 51 -37 67 -166 100c-68 18 -112 32 -137 58
c-3 -7 -5 -12 -5 -23z" />
    <glyph glyph-name="trademark" unicode="&#x2122;" horiz-adv-x="682" 
d="M208 591v-229h-59v229h-99v53h256v-53h-98zM470 383l-83 167v-188h-57v282h57l95 -181l94 181h56v-282h-57v188l-81 -167h-24z" />
    <glyph glyph-name="degree" unicode="&#xb0;" horiz-adv-x="319" 
d="M50 612c0 63 50 108 109 108c61 0 110 -45 110 -108s-49 -108 -110 -108c-59 0 -109 45 -109 108zM105 612c0 -32 23 -55 54 -55c32 0 56 23 56 55c0 31 -24 55 -56 55c-31 0 -54 -24 -54 -55z" />
    <glyph glyph-name="estimated" unicode="&#x212e;" horiz-adv-x="783" 
d="M695 142c-74 -118 -162 -154 -292 -154c-198 0 -353 148 -353 338c0 221 161 338 342 338c180 0 341 -131 341 -321v-17h-542v-223c36 -47 122 -84 212 -84c120 0 187 29 255 123h37zM594 357v206c-39 40 -111 71 -202 71c-86 0 -153 -24 -201 -70v-207h403z" />
    <glyph glyph-name="uni2113" unicode="&#x2113;" horiz-adv-x="394" 
d="M30 360c30 7 54 16 77 29v186c0 114 36 175 133 175c88 0 123 -68 123 -149c0 -126 -75 -195 -176 -252v-219c0 -50 14 -79 56 -79c44 0 58 23 58 75h63c0 -77 -24 -136 -125 -136c-102 0 -132 65 -132 154v177c-18 -7 -45 -18 -77 -26v65zM178 420c81 49 119 98 119 176
c0 47 -13 90 -59 90c-45 0 -60 -32 -60 -92v-174z" />
    <glyph glyph-name="asciicircum" unicode="^" horiz-adv-x="459" 
d="M409 392h-77l-102 172l-102 -172h-78l147 232h63z" />
    <glyph glyph-name="dagger" unicode="&#x2020;" horiz-adv-x="555" 
d="M316 433l3 -433h-81l3 433l-191 -2v64l191 -2l-4 207h83l-4 -207l189 2v-64z" />
    <glyph glyph-name="daggerdbl" unicode="&#x2021;" horiz-adv-x="555" 
d="M316 256l189 2v-63l-189 1l3 -196h-81l3 196l-191 -1v63l191 -2l-4 94l4 93l-191 -1v63l191 -2l-4 197h83l-4 -197l189 2v-63l-189 1l4 -93z" />
    <glyph glyph-name="minute" unicode="&#x2032;" horiz-adv-x="174" 
d="M50 467v177h74l-13 -177h-61z" />
    <glyph glyph-name="second" unicode="&#x2033;" horiz-adv-x="321" 
d="M50 467v177h74l-13 -177h-61zM197 467v177h74l-13 -177h-61z" />
    <glyph glyph-name="uni2120" unicode="&#x2120;" horiz-adv-x="646" 
d="M208 439c0 26 -18 32 -66 49c-59 21 -92 39 -92 88c0 50 34 78 111 78c29 0 61 -4 82 -11v-46c-24 8 -49 12 -71 12c-46 0 -66 -9 -66 -33c0 -23 16 -31 64 -47c52 -17 93 -35 93 -90c0 -60 -52 -79 -112 -79c-37 0 -71 5 -93 12v46c26 -10 56 -14 86 -14
c41 0 64 7 64 35zM434 383l-83 167v-188h-57v282h57l95 -181l94 181h56v-282h-57v188l-81 -167h-24z" />
    <glyph glyph-name="uni0308" unicode="&#x308;" 
d="M-136 561v75h78v-75h-78zM40 561v75h78v-75h-78z" />
    <glyph glyph-name="uni0307" unicode="&#x307;" 
d="M-51 560v77h80v-77h-80z" />
    <glyph glyph-name="gravecomb" unicode="&#x300;" 
d="M-362 522l-79 168h74l71 -168h-66z" />
    <glyph glyph-name="acutecomb" unicode="&#x301;" 
d="M-374 522l71 168h74l-79 -168h-66z" />
    <glyph glyph-name="uni030B" unicode="&#x30b;" 
d="M-204 537l71 152h78l-81 -152h-68zM2 537l71 152h78l-81 -152h-68z" />
    <glyph glyph-name="uni0302" unicode="&#x302;" 
d="M125 537h-71l-77 102l-77 -102h-71l115 148h66z" />
    <glyph glyph-name="uni030C" unicode="&#x30c;" 
d="M10 537h-66l-115 148h71l77 -102l77 102h71z" />
    <glyph glyph-name="uni0306" unicode="&#x306;" 
d="M-80 667c0 -51 26 -74 68 -74c44 0 70 23 70 74h58c0 -75 -44 -126 -128 -126c-83 0 -126 51 -126 126h58z" />
    <glyph glyph-name="uni030A" unicode="&#x30a;" 
d="M-121 632c0 60 45 108 109 108c66 0 111 -48 111 -108s-45 -107 -111 -107c-64 0 -109 47 -109 107zM-73 632c0 -34 26 -61 61 -61c37 0 62 27 62 61s-25 61 -62 61c-35 0 -61 -27 -61 -61z" />
    <glyph glyph-name="tildecomb" unicode="&#x303;" 
d="M-243 573c-52 0 -101 38 -144 38c-32 0 -61 -9 -83 -35v63c16 18 52 30 83 30c55 0 95 -38 144 -38c34 0 59 11 77 36v-64c-13 -18 -43 -30 -77 -30z" />
    <glyph glyph-name="uni0304" unicode="&#x304;" 
d="M124 624v-59h-288v59h288z" />
    <glyph glyph-name="hookabovecomb" unicode="&#x309;" 
d="M-196 651c0 -54 -22 -84 -89 -93v-48h-66v83c78 4 93 17 93 52c0 33 -25 45 -78 45c-21 0 -49 -5 -66 -12v51c20 8 56 13 85 13c79 0 121 -34 121 -91z" />
    <glyph glyph-name="uni031B" unicode="&#x31b;" 
d="M-105 593c85 0 103 18 103 109h71c0 -137 -57 -174 -174 -175v66z" />
    <glyph glyph-name="dotbelowcomb" unicode="&#x323;" 
d="M-351 -164v77h80v-77h-80z" />
    <glyph glyph-name="uni0324" unicode="&#x324;" 
d="M-128 -162v75h78v-75h-78zM48 -162v75h78v-75h-78z" />
    <glyph glyph-name="uni0326" unicode="&#x326;" 
d="M-152 -214l28 177h74l-42 -177h-60z" />
    <glyph glyph-name="uni0327" unicode="&#x327;" 
d="M114 -138c0 -65 -44 -102 -143 -102c-22 0 -55 4 -70 8v50c18 -5 41 -8 63 -8c62 0 90 12 90 53c0 39 -28 46 -85 46h-37l29 91h58l-16 -48c73 0 111 -33 111 -90z" />
    <glyph glyph-name="uni0328" unicode="&#x328;" 
d="M-28 -120c0 -34 17 -43 50 -43c17 0 38 4 50 11v-56c-16 -8 -44 -12 -68 -12c-54 0 -99 25 -99 88c0 52 31 102 75 132h64c-47 -35 -72 -77 -72 -120z" />
    <glyph glyph-name="uni032E" unicode="&#x32e;" 
d="M-80 -70c0 -51 26 -74 68 -74c44 0 70 23 70 74h58c0 -75 -44 -126 -128 -126c-83 0 -126 51 -126 126h58z" />
    <glyph glyph-name="uni0331" unicode="&#x331;" 
d="M124 -71v-59h-288v59h288z" />
    <glyph glyph-name="uni02BC" unicode="&#x2bc;" horiz-adv-x="224" 
d="M50 471l50 183h74l-62 -183h-62z" />
    <glyph glyph-name="uni02BB" unicode="&#x2bb;" horiz-adv-x="224" 
d="M174 654l-49 -183h-75l62 183h62z" />
    <glyph glyph-name="uni02C9" unicode="&#x2c9;" 
d="M366 624v-59h-288v59h288z" />
    <glyph glyph-name="uni02CB" unicode="&#x2cb;" 
d="M-8 522l-79 168h74l71 -168h-66z" />
    <glyph glyph-name="uni02BF" unicode="&#x2bf;" 
d="M-318 611c0 -53 29 -87 85 -87v-50c-93 0 -141 57 -141 137s48 136 141 136v-50c-56 0 -85 -33 -85 -86z" />
    <glyph glyph-name="uni02BE" unicode="&#x2be;" 
d="M-289 611c0 53 -29 86 -85 86v50c93 0 141 -56 141 -136s-48 -137 -141 -137v50c56 0 85 34 85 87z" />
    <glyph glyph-name="uni02CA" unicode="&#x2ca;" 
d="M-82 522l71 168h74l-79 -168h-66z" />
    <glyph glyph-name="uni02CC" unicode="&#x2cc;" 
d="M-41 -211v170h58v-170h-58z" />
    <glyph glyph-name="uni02C8" unicode="&#x2c8;" 
d="M-41 485v170h58v-170h-58z" />
    <glyph glyph-name="acute" unicode="&#xb4;" horiz-adv-x="245" 
d="M50 522l71 168h74l-79 -168h-66z" />
    <glyph glyph-name="breve" unicode="&#x2d8;" horiz-adv-x="354" 
d="M108 666c0 -51 26 -74 68 -74c44 0 70 23 70 74h58c0 -75 -44 -126 -128 -126c-83 0 -126 51 -126 126h58z" />
    <glyph glyph-name="caron" unicode="&#x2c7;" horiz-adv-x="396" 
d="M231 537h-66l-115 148h71l77 -102l77 102h71z" />
    <glyph glyph-name="cedilla" unicode="&#xb8;" horiz-adv-x="313" 
d="M263 -138c0 -65 -44 -102 -143 -102c-22 0 -55 4 -70 8v50c18 -5 41 -8 63 -8c62 0 90 12 90 53c0 39 -28 46 -85 46h-37l29 91h58l-16 -48c73 0 111 -33 111 -90z" />
    <glyph glyph-name="circumflex" unicode="&#x2c6;" horiz-adv-x="396" 
d="M346 537h-71l-77 102l-77 -102h-71l115 148h66z" />
    <glyph glyph-name="dieresis" unicode="&#xa8;" horiz-adv-x="354" 
d="M50 561v75h78v-75h-78zM226 561v75h78v-75h-78z" />
    <glyph glyph-name="dotaccent" unicode="&#x2d9;" horiz-adv-x="180" 
d="M50 560v77h80v-77h-80z" />
    <glyph glyph-name="grave" unicode="`" horiz-adv-x="245" 
d="M129 522l-79 168h74l71 -168h-66z" />
    <glyph glyph-name="hungarumlaut" unicode="&#x2dd;" horiz-adv-x="455" 
d="M50 537l71 152h78l-81 -152h-68zM256 537l71 152h78l-81 -152h-68z" />
    <glyph glyph-name="macron" unicode="&#xaf;" horiz-adv-x="388" 
d="M338 624v-59h-288v59h288z" />
    <glyph glyph-name="ogonek" unicode="&#x2db;" horiz-adv-x="267" 
d="M117 -120c0 -34 17 -43 50 -43c17 0 38 4 50 11v-56c-16 -8 -44 -12 -68 -12c-54 0 -99 25 -99 88c0 52 31 102 75 132h64c-47 -35 -72 -77 -72 -120z" />
    <glyph glyph-name="ring" unicode="&#x2da;" horiz-adv-x="320" 
d="M50 632c0 60 45 108 109 108c66 0 111 -48 111 -108s-45 -107 -111 -107c-64 0 -109 47 -109 107zM98 632c0 -34 26 -61 61 -61c37 0 62 27 62 61s-25 61 -62 61c-35 0 -61 -27 -61 -61z" />
    <glyph glyph-name="tilde" unicode="&#x2dc;" horiz-adv-x="404" 
d="M277 573c-52 0 -101 38 -144 38c-32 0 -61 -9 -83 -35v63c16 18 52 30 83 30c55 0 95 -38 144 -38c34 0 59 11 77 36v-64c-13 -18 -43 -30 -77 -30z" />
    <glyph glyph-name="uni0E31" unicode="&#xe31;" 
d="M-287 763h69v-73h269l-4 -59h-334v132z" />
    <glyph glyph-name="uni0E31.narrow" 
d="M-531 763h69v-73h221l-3 -59h-287v132z" />
    <glyph glyph-name="uni0E48" unicode="&#xe48;" 
d="M-69 631h-82v162h82v-162z" />
    <glyph glyph-name="uni0E48.small" 
d="M-71 824h-69v139h69v-139z" />
    <glyph glyph-name="uni0E49" unicode="&#xe49;" 
d="M-222 784v-94h219l-4 -59h-274v94h-79v59h138z" />
    <glyph glyph-name="uni0E49.small" 
d="M-147 965v-78h153l-3 -56h-207v79h-61v55h118z" />
    <glyph glyph-name="uni0E49.narrow" 
d="M-398 784v-94h174l-4 -59h-229v94h-79v59h138z" />
    <glyph glyph-name="uni0E4A" unicode="&#xe4a;" 
d="M-305 670v-48h-34c-68 0 -109 32 -109 103c0 67 38 102 90 102c35 0 57 -14 66 -41h1c10 27 37 41 69 41c59 0 84 -31 84 -78v-72h14c20 0 25 8 25 32v114h53v-118c0 -44 -27 -74 -75 -74h-72v103c0 31 -5 42 -35 42c-34 0 -39 -18 -39 -45v-14h-47v14c0 27 -5 45 -37 45
c-31 0 -40 -14 -40 -53c0 -43 14 -53 59 -53h27z" />
    <glyph glyph-name="uni0E4A.small" 
d="M-206 866v-43h-27c-47 0 -87 24 -87 81c0 58 33 88 81 88c31 0 51 -14 57 -38h1c8 24 32 38 60 38c53 0 74 -27 74 -75v-44h11c22 0 29 9 29 33v82h50v-85c0 -44 -26 -73 -74 -73h-64v78c0 29 -7 39 -30 39c-25 0 -34 -15 -34 -40v-12h-42v12c0 25 -8 40 -32 40
c-25 0 -35 -14 -35 -44c0 -29 16 -37 41 -37h21z" />
    <glyph glyph-name="uni0E4A.narrow" 
d="M-449 670v-48h-29c-58 0 -96 32 -96 98c0 69 34 102 84 102c35 0 53 -14 62 -41h1c10 27 33 41 65 41c57 0 77 -29 77 -78v-65h11c21 0 25 8 25 32v107h53v-113c0 -44 -27 -74 -74 -74h-68v98c0 34 -4 45 -31 45c-29 0 -33 -21 -33 -48v-14h-49v14c0 27 -5 48 -32 48
c-24 0 -34 -17 -34 -56c0 -36 16 -48 49 -48h19z" />
    <glyph glyph-name="uni0E4B" unicode="&#xe4b;" 
d="M-218 747v58h76v-58h72v-62h-72v-54h-76v54h-71v62h71z" />
    <glyph glyph-name="uni0E4B.small" 
d="M-140 922v45h69v-45h61v-56h-61v-42h-69v42h-59v56h59z" />
    <glyph glyph-name="uni0E4C" unicode="&#xe4c;" 
d="M-9 706h-209v-75h-69v134h281z" />
    <glyph glyph-name="uni0E4C.small" 
d="M9 895h-193v-68h-64v124h261z" />
    <glyph glyph-name="uni0E4C.narrow" 
d="M-222 706h-199v-75h-69v134h271z" />
    <glyph glyph-name="uni0E47" unicode="&#xe47;" 
d="M-472 738c0 71 46 117 128 117h240l-4 -53h-229c-51 0 -74 -18 -74 -64c0 -42 23 -58 65 -58c41 0 58 15 58 44v23h54v-23c0 -31 15 -41 49 -41h64v-52h-69c-32 0 -61 9 -71 31c-14 -22 -55 -33 -90 -33c-75 0 -121 39 -121 109z" />
    <glyph glyph-name="uni0E47.narrow" 
d="M-550 738c0 71 46 117 128 117h216l-4 -53h-205c-51 0 -74 -18 -74 -64c0 -42 23 -58 65 -58c41 0 58 15 58 44v23h54v-23c0 -31 15 -41 49 -41h40v-52h-45c-32 0 -61 9 -71 31c-14 -22 -55 -33 -90 -33c-75 0 -121 39 -121 109z" />
    <glyph glyph-name="uni0E4E" unicode="&#xe4e;" 
d="M-122 647c-18 -12 -44 -16 -70 -16c-66 0 -103 24 -103 73c0 51 38 78 81 83c-12 11 -16 25 -16 41c0 36 33 62 93 62c19 0 42 -4 54 -11v-44c-13 7 -34 12 -49 12c-30 0 -44 -6 -44 -26c0 -17 13 -24 43 -31v-46c-12 6 -30 8 -41 8c-37 0 -62 -9 -62 -40
c0 -26 20 -35 53 -35c24 0 44 4 61 16v-46z" />
    <glyph glyph-name="uni0E34" unicode="&#xe34;" 
d="M-71 631h-397l4 59h393v-59z" />
    <glyph glyph-name="uni0E34.narrow" 
d="M-227 631h-340l5 59h335v-59z" />
    <glyph glyph-name="uni0E35" unicode="&#xe35;" 
d="M-140 690v85h69v-144h-397l4 59h324z" />
    <glyph glyph-name="uni0E35.narrow" 
d="M-296 690v85h69v-144h-340l4 59h267z" />
    <glyph glyph-name="uni0E36" unicode="&#xe36;" 
d="M-226 713c0 48 34 79 84 79c59 0 84 -40 84 -78c0 -46 -33 -83 -88 -83h-322l4 59h243c-3 6 -5 15 -5 23zM-181 713c0 -20 16 -38 39 -38c24 0 39 18 39 38c0 23 -16 40 -39 40c-21 0 -39 -16 -39 -40z" />
    <glyph glyph-name="uni0E36.narrow" 
d="M-371 713c0 48 34 79 84 79c59 0 84 -40 84 -78c0 -46 -33 -83 -88 -83h-276l4 59h197c-3 6 -5 15 -5 23zM-326 713c0 -20 16 -38 39 -38c24 0 39 18 39 38c0 23 -16 40 -39 40c-21 0 -39 -16 -39 -40z" />
    <glyph glyph-name="uni0E37" unicode="&#xe37;" 
d="M-259 690v85h62v-85h64v85h62v-144h-397l4 59h205z" />
    <glyph glyph-name="uni0E37.narrow" 
d="M-389 690v85h53v-85h56v85h53v-144h-342l4 59h176z" />
    <glyph glyph-name="uni0E4D" unicode="&#xe4d;" 
d="M-217 711c0 58 47 102 105 102s104 -44 104 -102s-46 -101 -104 -101s-105 43 -105 101zM-162 711c0 -26 22 -49 50 -49c27 0 49 23 49 49c0 27 -22 50 -49 50c-28 0 -50 -23 -50 -50z" />
    <glyph glyph-name="uni0E4D0E48" 
d="M-67 874h-69v139h69v-139zM-217 711c0 58 47 102 105 102s104 -44 104 -102s-46 -101 -104 -101s-105 43 -105 101zM-162 711c0 -26 22 -49 50 -49c27 0 49 23 49 49c0 27 -22 50 -49 50c-28 0 -50 -23 -50 -50z" />
    <glyph glyph-name="uni0E4D0E49" 
d="M-147 1008v-78h153l-3 -56h-207v79h-61v55h118zM-217 711c0 58 47 102 105 102s104 -44 104 -102s-46 -101 -104 -101s-105 43 -105 101zM-162 711c0 -26 22 -49 50 -49c27 0 49 23 49 49c0 27 -22 50 -49 50c-28 0 -50 -23 -50 -50z" />
    <glyph glyph-name="uni0E4D0E4A" 
d="M-176 910v-43h-27c-47 0 -87 24 -87 81c0 58 33 88 81 88c31 0 51 -14 57 -38h1c8 24 32 38 60 38c53 0 74 -27 74 -75v-44h11c22 0 29 9 29 33v82h50v-85c0 -44 -26 -73 -74 -73h-64v78c0 29 -7 39 -30 39c-25 0 -34 -15 -34 -40v-12h-42v12c0 25 -8 40 -32 40
c-25 0 -35 -14 -35 -44c0 -29 16 -37 41 -37h21zM-217 711c0 58 47 102 105 102s104 -44 104 -102s-46 -101 -104 -101s-105 43 -105 101zM-162 711c0 -26 22 -49 50 -49c27 0 49 23 49 49c0 27 -22 50 -49 50c-28 0 -50 -23 -50 -50z" />
    <glyph glyph-name="uni0E4D0E4B" 
d="M-137 972v45h69v-45h61v-56h-61v-42h-69v42h-59v56h59zM-217 711c0 58 47 102 105 102s104 -44 104 -102s-46 -101 -104 -101s-105 43 -105 101zM-162 711c0 -26 22 -49 50 -49c27 0 49 23 49 49c0 27 -22 50 -49 50c-28 0 -50 -23 -50 -50z" />
    <glyph glyph-name="uni0E3A" unicode="&#xe3a;" 
d="M-156 -103c0 26 21 46 46 46c26 0 46 -20 46 -46c0 -25 -20 -45 -46 -45c-25 0 -46 20 -46 45z" />
    <glyph glyph-name="uni0E3A.small" 
d="M-157 -204c0 26 21 46 46 46c26 0 46 -20 46 -46c0 -25 -20 -45 -46 -45c-25 0 -46 20 -46 45z" />
    <glyph glyph-name="uni0E38" unicode="&#xe38;" 
d="M-203 -63h133v-187h-71v131h-66z" />
    <glyph glyph-name="uni0E38.small" 
d="M-203 -159h133v-171h-71v115h-66z" />
    <glyph glyph-name="uni0E39" unicode="&#xe39;" 
d="M-132 -63h62v-110c0 -47 -39 -85 -107 -85c-64 0 -104 38 -104 85v56h-53l3 54h111v-105c0 -22 15 -35 43 -35s45 13 45 35v105z" />
    <glyph glyph-name="uni0E39.small" 
d="M-131 -159h62v-96c0 -47 -38 -84 -107 -84c-64 0 -104 30 -104 73v54h-53l4 53h110v-92c0 -22 16 -33 43 -33c28 0 45 11 45 33v92z" />
    <glyph glyph-name="uni0E48.narrow" 
d="M-277 631h-82v162h82v-162z" />
    <glyph glyph-name="uni0E4B.narrow" 
d="M-376 747v58h76v-58h72v-62h-72v-54h-76v54h-71v62h71z" />
    <glyph glyph-name="uni0E4D.narrow" 
d="M-432 711c0 58 47 102 105 102s104 -44 104 -102s-46 -101 -104 -101s-105 43 -105 101zM-377 711c0 -26 22 -49 50 -49c27 0 49 23 49 49c0 27 -22 50 -49 50c-28 0 -50 -23 -50 -50z" />
    <glyph glyph-name="uni0E4D0E48.narrow" 
d="M-285 874h-69v139h69v-139zM-432 711c0 58 47 102 105 102s104 -44 104 -102s-46 -101 -104 -101s-105 43 -105 101zM-377 711c0 -26 22 -49 50 -49c27 0 49 23 49 49c0 27 -22 50 -49 50c-28 0 -50 -23 -50 -50z" />
    <glyph glyph-name="uni0E4D0E49.narrow" 
d="M-357 1008v-78h153l-3 -56h-207v79h-61v55h118zM-432 711c0 58 47 102 105 102s104 -44 104 -102s-46 -101 -104 -101s-105 43 -105 101zM-377 711c0 -26 22 -49 50 -49c27 0 49 23 49 49c0 27 -22 50 -49 50c-28 0 -50 -23 -50 -50z" />
    </font>
</defs>
</svg>
